<?xml version="1.0" encoding="UTF-8"?>

<!DOCTYPE svg PUBLIC '-//W3C//DTD SVG 1.0//EN' 'http://www.w3.org/TR/2001/REC-SVG-20010904/DTD/svg10.dtd'>
<svg style="fill-opacity:1; color-rendering:auto; color-interpolation:auto; stroke:black; text-rendering:auto; stroke-linecap:square; stroke-miterlimit:10; stroke-opacity:1; shape-rendering:auto; fill:black; stroke-dasharray:none; font-weight:normal; stroke-width:1; font-family:&apos;Dialog&apos;; font-style:normal; stroke-linejoin:miter; font-size:12; stroke-dashoffset:0; image-rendering:auto;" xmlns="http://www.w3.org/2000/svg" width="1374" xmlns:xlink="http://www.w3.org/1999/xlink" height="667">
  <!--Generated by the Batik Graphics2D SVG Generator-->
  <defs id="genericDefs" />
  <g>
    <defs id="defs1">
      <clipPath clipPathUnits="userSpaceOnUse" id="clipPath1">
        <path d="M-3 -3 L137 -3 L137 587 L-3 587 L-3 -3 Z" />
      </clipPath>
      <clipPath clipPathUnits="userSpaceOnUse" id="clipPath2">
        <path d="M-3 -3 L97 -3 L97 587 L-3 587 L-3 -3 Z" />
      </clipPath>
      <clipPath clipPathUnits="userSpaceOnUse" id="clipPath3">
        <path d="M-3 -3 L127 -3 L127 587 L-3 587 L-3 -3 Z" />
      </clipPath>
      <clipPath clipPathUnits="userSpaceOnUse" id="clipPath4">
        <path d="M-3 -3 L67 -3 L67 587 L-3 587 L-3 -3 Z" />
      </clipPath>
      <clipPath clipPathUnits="userSpaceOnUse" id="clipPath5">
        <path d="M-3 -3 L15 -3 L15 51 L-3 51 L-3 -3 Z" />
      </clipPath>
      <clipPath clipPathUnits="userSpaceOnUse" id="clipPath6">
        <path d="M-3 -3 L14 -3 L14 18 L-3 18 L-3 -3 Z" />
      </clipPath>
      <clipPath clipPathUnits="userSpaceOnUse" id="clipPath7">
        <path d="M-3 -3 L14 -3 L14 57 L-3 57 L-3 -3 Z" />
      </clipPath>
      <clipPath clipPathUnits="userSpaceOnUse" id="clipPath8">
        <path d="M-3 -3 L14 -3 L14 50 L-3 50 L-3 -3 Z" />
      </clipPath>
      <clipPath clipPathUnits="userSpaceOnUse" id="clipPath9">
        <path d="M-3 -3 L14 -3 L14 22 L-3 22 L-3 -3 Z" />
      </clipPath>
      <clipPath clipPathUnits="userSpaceOnUse" id="clipPath10">
        <path d="M-3 -3 L15 -3 L15 61 L-3 61 L-3 -3 Z" />
      </clipPath>
      <clipPath clipPathUnits="userSpaceOnUse" id="clipPath11">
        <path d="M-3 -3 L14 -3 L14 68 L-3 68 L-3 -3 Z" />
      </clipPath>
      <clipPath clipPathUnits="userSpaceOnUse" id="clipPath12">
        <path d="M-3 -3 L14 -3 L14 47 L-3 47 L-3 -3 Z" />
      </clipPath>
      <clipPath clipPathUnits="userSpaceOnUse" id="clipPath13">
        <path d="M-3 -3 L15 -3 L15 19 L-3 19 L-3 -3 Z" />
      </clipPath>
      <clipPath clipPathUnits="userSpaceOnUse" id="clipPath14">
        <path d="M-3 -3 L357 -3 L357 97 L-3 97 L-3 -3 Z" />
      </clipPath>
      <clipPath clipPathUnits="userSpaceOnUse" id="clipPath15">
        <path d="M0 0 L31 0 L31 17 L0 17 L0 0 Z" />
      </clipPath>
      <clipPath clipPathUnits="userSpaceOnUse" id="clipPath16">
        <path d="M-3 -3 L197 -3 L197 77 L-3 77 L-3 -3 Z" />
      </clipPath>
      <clipPath clipPathUnits="userSpaceOnUse" id="clipPath17">
        <path d="M0 0 L28 0 L28 17 L0 17 L0 0 Z" />
      </clipPath>
      <clipPath clipPathUnits="userSpaceOnUse" id="clipPath18">
        <path d="M0 0 L190 0 L190 70 L0 70 L0 0 Z" />
      </clipPath>
      <clipPath clipPathUnits="userSpaceOnUse" id="clipPath19">
        <path d="M-3 -3 L27 -3 L27 27 L-3 27 L-3 -3 Z" />
      </clipPath>
      <clipPath clipPathUnits="userSpaceOnUse" id="clipPath20">
        <path d="M-3 -3 L14 -3 L14 48 L-3 48 L-3 -3 Z" />
      </clipPath>
      <clipPath clipPathUnits="userSpaceOnUse" id="clipPath21">
        <path d="M-3 -3 L357 -3 L357 87 L-3 87 L-3 -3 Z" />
      </clipPath>
      <clipPath clipPathUnits="userSpaceOnUse" id="clipPath22">
        <path d="M-3 -3 L357 -3 L357 80 L-3 80 L-3 -3 Z" />
      </clipPath>
      <clipPath clipPathUnits="userSpaceOnUse" id="clipPath23">
        <path d="M0 0 L92 0 L92 14 L0 14 L0 0 Z" />
      </clipPath>
      <clipPath clipPathUnits="userSpaceOnUse" id="clipPath24">
        <path d="M0 0 L0 4 L350 4 L350 0 Z" />
      </clipPath>
      <clipPath clipPathUnits="userSpaceOnUse" id="clipPath25">
        <path d="M-3 -3 L357 -3 L357 70 L-3 70 L-3 -3 Z" />
      </clipPath>
      <clipPath clipPathUnits="userSpaceOnUse" id="clipPath26">
        <path d="M0 0 L85 0 L85 14 L0 14 L0 0 Z" />
      </clipPath>
      <clipPath clipPathUnits="userSpaceOnUse" id="clipPath27">
        <path d="M-3 -3 L197 -3 L197 67 L-3 67 L-3 -3 Z" />
      </clipPath>
      <clipPath clipPathUnits="userSpaceOnUse" id="clipPath28">
        <path d="M0 0 L190 0 L190 60 L0 60 L0 0 Z" />
      </clipPath>
      <clipPath clipPathUnits="userSpaceOnUse" id="clipPath29">
        <path d="M-178 -13 L356 -13 L356 26 L-178 26 L-178 -13 Z" />
      </clipPath>
      <clipPath clipPathUnits="userSpaceOnUse" id="clipPath30">
        <path d="M-130 -42 L260 -42 L260 84 L-130 84 L-130 -42 Z" />
      </clipPath>
      <clipPath clipPathUnits="userSpaceOnUse" id="clipPath31">
        <path d="M-91 -14 L182 -14 L182 28 L-91 28 L-91 -14 Z" />
      </clipPath>
      <clipPath clipPathUnits="userSpaceOnUse" id="clipPath32">
        <path d="M-86 -14 L172 -14 L172 28 L-86 28 L-86 -14 Z" />
      </clipPath>
      <clipPath clipPathUnits="userSpaceOnUse" id="clipPath33">
        <path d="M-48 -13 L96 -13 L96 26 L-48 26 L-48 -13 Z" />
      </clipPath>
      <clipPath clipPathUnits="userSpaceOnUse" id="clipPath34">
        <path d="M-90 -42 L180 -42 L180 84 L-90 84 L-90 -42 Z" />
      </clipPath>
      <clipPath clipPathUnits="userSpaceOnUse" id="clipPath35">
        <path d="M-110 -14 L220 -14 L220 28 L-110 28 L-110 -14 Z" />
      </clipPath>
      <clipPath clipPathUnits="userSpaceOnUse" id="clipPath36">
        <path d="M0 0 L160 0 L160 149 L0 149 L0 0 Z" />
      </clipPath>
      <clipPath clipPathUnits="userSpaceOnUse" id="clipPath37">
        <path d="M0 0 L421 0 L421 129 L0 129 L0 0 Z" />
      </clipPath>
      <clipPath clipPathUnits="userSpaceOnUse" id="clipPath38">
        <path d="M0 0 L361 0 L361 129 L0 129 L0 0 Z" />
      </clipPath>
      <clipPath clipPathUnits="userSpaceOnUse" id="clipPath39">
        <path d="M0 0 L596 0 L596 129 L0 129 L0 0 Z" />
      </clipPath>
      <clipPath clipPathUnits="userSpaceOnUse" id="clipPath40">
        <path d="M0 0 L661 0 L661 129 L0 129 L0 0 Z" />
      </clipPath>
      <clipPath clipPathUnits="userSpaceOnUse" id="clipPath41">
        <path d="M0 0 L720 0 L720 129 L0 129 L0 0 Z" />
      </clipPath>
      <clipPath clipPathUnits="userSpaceOnUse" id="clipPath42">
        <path d="M-280 -13 L560 -13 L560 26 L-280 26 L-280 -13 Z" />
      </clipPath>
      <clipPath clipPathUnits="userSpaceOnUse" id="clipPath43">
        <path d="M-508 -13 L1016 -13 L1016 26 L-508 26 L-508 -13 Z" />
      </clipPath>
      <clipPath clipPathUnits="userSpaceOnUse" id="clipPath44">
        <path d="M-245 -13 L490 -13 L490 26 L-245 26 L-245 -13 Z" />
      </clipPath>
      <clipPath clipPathUnits="userSpaceOnUse" id="clipPath45">
        <path d="M-233 -13 L466 -13 L466 26 L-233 26 L-233 -13 Z" />
      </clipPath>
      <clipPath clipPathUnits="userSpaceOnUse" id="clipPath46">
        <path d="M-238 -27 L476 -27 L476 54 L-238 54 L-238 -27 Z" />
      </clipPath>
      <clipPath clipPathUnits="userSpaceOnUse" id="clipPath47">
        <path d="M-180 -27 L360 -27 L360 54 L-180 54 L-180 -27 Z" />
      </clipPath>
      <clipPath clipPathUnits="userSpaceOnUse" id="clipPath48">
        <path d="M-207 -27 L414 -27 L414 54 L-207 54 L-207 -27 Z" />
      </clipPath>
      <clipPath clipPathUnits="userSpaceOnUse" id="clipPath49">
        <path d="M-267 -13 L534 -13 L534 26 L-267 26 L-267 -13 Z" />
      </clipPath>
      <clipPath clipPathUnits="userSpaceOnUse" id="clipPath50">
        <path d="M-82 -13 L164 -13 L164 26 L-82 26 L-82 -13 Z" />
      </clipPath>
      <clipPath clipPathUnits="userSpaceOnUse" id="clipPath51">
        <path d="M-76 -13 L152 -13 L152 26 L-76 26 L-76 -13 Z" />
      </clipPath>
      <clipPath clipPathUnits="userSpaceOnUse" id="clipPath52">
        <path d="M-110 -42 L220 -42 L220 84 L-110 84 L-110 -42 Z" />
      </clipPath>
    </defs>
    <g style="fill:white; text-rendering:geometricPrecision; stroke:white;">
      <rect x="0" y="0" width="1374" style="stroke:none;" height="667" />
      <rect x="0" y="0" width="1373" style="fill:none; stroke:black;" height="666" />
      <text x="7" y="16" style="fill:black; stroke:none; font-weight:bold;" xml:space="preserve">sd</text>
      <text x="31" y="16" style="fill:black; stroke:none;" xml:space="preserve">selection adjust</text>
      <line x1="0" x2="131" y1="23" style="fill:none; stroke:black;" y2="23" />
      <line x1="137" x2="137" y1="0" style="fill:none; stroke:black;" y2="13" />
      <line x1="137" x2="131" y1="13" style="fill:none; stroke:black;" y2="23" />
    </g>
    <g transform="translate(450,73)" style="font-size:11; fill:rgb(122,207,245); text-rendering:geometricPrecision; font-family:sans-serif; stroke:rgb(122,207,245);">
      <rect x="0" y="0" width="129" style="clip-path:url(#clipPath1); stroke:none;" height="42" />
    </g>
    <g transform="translate(450,73)" style="font-size:11; stroke-linecap:butt; text-rendering:geometricPrecision; font-family:sans-serif; stroke-linejoin:round; stroke-miterlimit:0;">
      <rect x="0" y="0" width="129" style="clip-path:url(#clipPath1); fill:none;" height="42" />
      <line x1="64" x2="64" y1="35" style="clip-path:url(#clipPath1); fill:none; stroke-linejoin:bevel; stroke-dasharray:8,3;" y2="580" />
    </g>
    <g transform="translate(710,73)" style="font-size:11; fill:rgb(122,207,245); text-rendering:geometricPrecision; font-family:sans-serif; stroke:rgb(122,207,245);">
      <rect x="0" y="0" width="89" style="clip-path:url(#clipPath2); stroke:none;" height="42" />
    </g>
    <g transform="translate(710,73)" style="font-size:11; stroke-linecap:butt; text-rendering:geometricPrecision; font-family:sans-serif; stroke-linejoin:round; stroke-miterlimit:0;">
      <rect x="0" y="0" width="89" style="clip-path:url(#clipPath2); fill:none;" height="42" />
      <line x1="44" x2="44" y1="35" style="clip-path:url(#clipPath2); fill:none; stroke-linejoin:bevel; stroke-dasharray:8,3;" y2="580" />
    </g>
    <g transform="translate(120,73)" style="font-size:11; fill:rgb(122,207,245); text-rendering:geometricPrecision; font-family:sans-serif; stroke:rgb(122,207,245);">
      <circle style="clip-path:url(#clipPath3); stroke:none;" r="15.5" cx="59.5" cy="19.5" />
      <circle style="clip-path:url(#clipPath3); fill:none; stroke:black;" r="15.5" cx="59.5" cy="19.5" />
      <line x1="56" x2="64" y1="4" style="clip-path:url(#clipPath3); fill:none; stroke:black;" y2="0" />
      <line x1="56" x2="64" y1="4" style="clip-path:url(#clipPath3); fill:none; stroke:black;" y2="8" />
    </g>
    <g transform="translate(120,73)" style="font-size:11; stroke-linecap:butt; text-rendering:geometricPrecision; font-family:sans-serif; stroke-linejoin:bevel; stroke-dasharray:8,3; stroke-miterlimit:0;">
      <line x1="59" x2="59" y1="49" style="clip-path:url(#clipPath3); fill:none;" y2="580" />
    </g>
    <g transform="translate(10,73)" style="font-size:11; fill:rgb(122,207,245); text-rendering:geometricPrecision; font-family:sans-serif; stroke:rgb(122,207,245);">
      <circle style="clip-path:url(#clipPath4); stroke:none;" r="5" cx="30" cy="5" />
      <rect x="26" y="48" width="8" style="clip-path:url(#clipPath4); stroke:none;" height="531" />
    </g>
    <g transform="translate(10,73)" style="font-size:11; stroke-linecap:butt; text-rendering:geometricPrecision; font-family:sans-serif; stroke-linejoin:round; stroke-miterlimit:0;">
      <circle style="fill:none; clip-path:url(#clipPath4);" r="5" cx="30" cy="5" />
      <rect x="26" y="48" width="8" style="clip-path:url(#clipPath4); fill:none;" height="531" />
      <line x1="30" x2="30" y1="10" style="clip-path:url(#clipPath4); fill:none;" y2="25" />
      <line x1="30" x2="21" y1="25" style="clip-path:url(#clipPath4); fill:none;" y2="36" />
      <line x1="30" x2="39" y1="25" style="clip-path:url(#clipPath4); fill:none;" y2="36" />
      <line x1="21" x2="39" y1="16" style="clip-path:url(#clipPath4); fill:none;" y2="16" />
    </g>
    <g transform="translate(511,173)" style="font-size:11; fill:rgb(122,207,245); text-rendering:geometricPrecision; font-family:sans-serif; stroke:rgb(122,207,245);">
      <rect x="0" y="0" width="8" style="clip-path:url(#clipPath5); stroke:none;" height="44" />
    </g>
    <g transform="translate(511,173)" style="font-size:11; stroke-linecap:butt; text-rendering:geometricPrecision; font-family:sans-serif; stroke-linejoin:round; stroke-miterlimit:0;">
      <rect x="0" y="0" width="8" style="clip-path:url(#clipPath5); fill:none;" height="44" />
    </g>
    <g transform="translate(751,193)" style="font-size:11; fill:rgb(122,207,245); text-rendering:geometricPrecision; font-family:sans-serif; stroke:rgb(122,207,245);">
      <rect x="0" y="0" width="7" style="clip-path:url(#clipPath6); stroke:none;" height="11" />
    </g>
    <g transform="translate(751,193)" style="font-size:11; stroke-linecap:butt; text-rendering:geometricPrecision; font-family:sans-serif; stroke-linejoin:round; stroke-miterlimit:0;">
      <rect x="0" y="0" width="7" style="clip-path:url(#clipPath6); fill:none;" height="11" />
    </g>
    <g transform="translate(1010,73)" style="font-size:11; fill:rgb(122,207,245); text-rendering:geometricPrecision; font-family:sans-serif; stroke:rgb(122,207,245);">
      <circle style="clip-path:url(#clipPath2); stroke:none;" r="16.5" cx="44.5" cy="16.5" />
      <circle style="clip-path:url(#clipPath2); fill:none; stroke:black;" r="16.5" cx="44.5" cy="16.5" />
      <line x1="5" x2="84" y1="33" style="clip-path:url(#clipPath2); fill:none; stroke:black;" y2="33" />
    </g>
    <g transform="translate(1010,73)" style="font-size:11; stroke-linecap:butt; text-rendering:geometricPrecision; font-family:sans-serif; stroke-linejoin:bevel; stroke-dasharray:8,3; stroke-miterlimit:0;">
      <line x1="44" x2="44" y1="49" style="clip-path:url(#clipPath2); fill:none;" y2="580" />
    </g>
    <g transform="translate(751,213)" style="font-size:11; fill:rgb(122,207,245); text-rendering:geometricPrecision; font-family:sans-serif; stroke:rgb(122,207,245);">
      <rect x="0" y="0" width="7" style="clip-path:url(#clipPath7); stroke:none;" height="50" />
    </g>
    <g transform="translate(751,213)" style="font-size:11; stroke-linecap:butt; text-rendering:geometricPrecision; font-family:sans-serif; stroke-linejoin:round; stroke-miterlimit:0;">
      <rect x="0" y="0" width="7" style="clip-path:url(#clipPath7); fill:none;" height="50" />
    </g>
    <g transform="translate(1051,211)" style="font-size:11; fill:rgb(122,207,245); text-rendering:geometricPrecision; font-family:sans-serif; stroke:rgb(122,207,245);">
      <rect x="0" y="0" width="7" style="clip-path:url(#clipPath7); stroke:none;" height="50" />
    </g>
    <g transform="translate(1051,211)" style="font-size:11; stroke-linecap:butt; text-rendering:geometricPrecision; font-family:sans-serif; stroke-linejoin:round; stroke-miterlimit:0;">
      <rect x="0" y="0" width="7" style="clip-path:url(#clipPath7); fill:none;" height="50" />
    </g>
    <g transform="translate(751,325)" style="font-size:11; fill:rgb(122,207,245); text-rendering:geometricPrecision; font-family:sans-serif; stroke:rgb(122,207,245);">
      <rect x="0" y="0" width="7" style="clip-path:url(#clipPath8); stroke:none;" height="43" />
    </g>
    <g transform="translate(751,325)" style="font-size:11; stroke-linecap:butt; text-rendering:geometricPrecision; font-family:sans-serif; stroke-linejoin:round; stroke-miterlimit:0;">
      <rect x="0" y="0" width="7" style="clip-path:url(#clipPath8); fill:none;" height="43" />
    </g>
    <g transform="translate(1230,73)" style="font-size:11; fill:rgb(122,207,245); text-rendering:geometricPrecision; font-family:sans-serif; stroke:rgb(122,207,245);">
      <rect x="0" y="0" width="129" style="clip-path:url(#clipPath1); stroke:none;" height="42" />
    </g>
    <g transform="translate(1230,73)" style="font-size:11; stroke-linecap:butt; text-rendering:geometricPrecision; font-family:sans-serif; stroke-linejoin:round; stroke-miterlimit:0;">
      <rect x="0" y="0" width="129" style="clip-path:url(#clipPath1); fill:none;" height="42" />
      <line x1="64" x2="64" y1="35" style="clip-path:url(#clipPath1); fill:none; stroke-linejoin:bevel; stroke-dasharray:8,3;" y2="580" />
    </g>
    <g transform="translate(1291,343)" style="font-size:11; fill:rgb(122,207,245); text-rendering:geometricPrecision; font-family:sans-serif; stroke:rgb(122,207,245);">
      <rect x="0" y="0" width="7" style="clip-path:url(#clipPath9); stroke:none;" height="15" />
    </g>
    <g transform="translate(1291,343)" style="font-size:11; stroke-linecap:butt; text-rendering:geometricPrecision; font-family:sans-serif; stroke-linejoin:round; stroke-miterlimit:0;">
      <rect x="0" y="0" width="7" style="clip-path:url(#clipPath9); fill:none;" height="15" />
    </g>
    <g transform="translate(511,433)" style="font-size:11; fill:rgb(122,207,245); text-rendering:geometricPrecision; font-family:sans-serif; stroke:rgb(122,207,245);">
      <rect x="0" y="0" width="8" style="clip-path:url(#clipPath10); stroke:none;" height="54" />
    </g>
    <g transform="translate(511,433)" style="font-size:11; stroke-linecap:butt; text-rendering:geometricPrecision; font-family:sans-serif; stroke-linejoin:round; stroke-miterlimit:0;">
      <rect x="0" y="0" width="8" style="clip-path:url(#clipPath10); fill:none;" height="54" />
    </g>
    <g transform="translate(751,463)" style="font-size:11; fill:rgb(122,207,245); text-rendering:geometricPrecision; font-family:sans-serif; stroke:rgb(122,207,245);">
      <rect x="0" y="0" width="7" style="clip-path:url(#clipPath11); stroke:none;" height="61" />
    </g>
    <g transform="translate(751,463)" style="font-size:11; stroke-linecap:butt; text-rendering:geometricPrecision; font-family:sans-serif; stroke-linejoin:round; stroke-miterlimit:0;">
      <rect x="0" y="0" width="7" style="clip-path:url(#clipPath11); fill:none;" height="61" />
    </g>
    <g transform="translate(1051,473)" style="font-size:11; fill:rgb(122,207,245); text-rendering:geometricPrecision; font-family:sans-serif; stroke:rgb(122,207,245);">
      <rect x="0" y="0" width="7" style="clip-path:url(#clipPath12); stroke:none;" height="40" />
    </g>
    <g transform="translate(1051,473)" style="font-size:11; stroke-linecap:butt; text-rendering:geometricPrecision; font-family:sans-serif; stroke-linejoin:round; stroke-miterlimit:0;">
      <rect x="0" y="0" width="7" style="clip-path:url(#clipPath12); fill:none;" height="40" />
    </g>
    <g transform="translate(10,33)" style="font-size:11; fill:rgb(122,207,245); text-rendering:geometricPrecision; font-family:sans-serif; stroke:rgb(122,207,245);">
      <rect x="0" y="0" width="8" style="clip-path:url(#clipPath13); stroke:none;" height="12" />
    </g>
    <g transform="translate(10,33)" style="font-size:11; stroke-linecap:butt; text-rendering:geometricPrecision; font-family:sans-serif; stroke-linejoin:round; stroke-miterlimit:0;">
      <rect x="0" y="0" width="8" style="clip-path:url(#clipPath13); fill:none;" height="12" />
    </g>
    <g transform="translate(310,73)" style="font-size:11; fill:rgb(122,207,245); text-rendering:geometricPrecision; font-family:sans-serif; stroke:rgb(122,207,245);">
      <circle style="clip-path:url(#clipPath2); stroke:none;" r="16.5" cx="44.5" cy="16.5" />
      <circle style="clip-path:url(#clipPath2); fill:none; stroke:black;" r="16.5" cx="44.5" cy="16.5" />
      <line x1="5" x2="84" y1="33" style="clip-path:url(#clipPath2); fill:none; stroke:black;" y2="33" />
    </g>
    <g transform="translate(310,73)" style="font-size:11; stroke-linecap:butt; text-rendering:geometricPrecision; font-family:sans-serif; stroke-linejoin:bevel; stroke-dasharray:8,3; stroke-miterlimit:0;">
      <line x1="44" x2="44" y1="49" style="clip-path:url(#clipPath2); fill:none;" y2="580" />
    </g>
    <g transform="translate(1291,33)" style="font-size:11; fill:rgb(122,207,245); text-rendering:geometricPrecision; font-family:sans-serif; stroke:rgb(122,207,245);">
      <rect x="0" y="0" width="8" style="clip-path:url(#clipPath13); stroke:none;" height="12" />
    </g>
    <g transform="translate(1291,33)" style="font-size:11; stroke-linecap:butt; text-rendering:geometricPrecision; font-family:sans-serif; stroke-linejoin:round; stroke-miterlimit:0;">
      <rect x="0" y="0" width="8" style="clip-path:url(#clipPath13); fill:none;" height="12" />
    </g>
    <g transform="translate(1291,593)" style="font-size:11; fill:rgb(122,207,245); text-rendering:geometricPrecision; font-family:sans-serif; stroke:rgb(122,207,245);">
      <rect x="0" y="0" width="7" style="clip-path:url(#clipPath9); stroke:none;" height="15" />
    </g>
    <g transform="translate(1291,593)" style="font-size:11; stroke-linecap:butt; text-rendering:geometricPrecision; font-family:sans-serif; stroke-linejoin:round; stroke-miterlimit:0;">
      <rect x="0" y="0" width="7" style="clip-path:url(#clipPath9); fill:none;" height="15" />
    </g>
    <g transform="translate(730,523)" style="font-size:11; stroke-linecap:butt; text-rendering:geometricPrecision; font-family:sans-serif; stroke-linejoin:round; font-weight:bold; stroke-miterlimit:0;">
      <rect x="0" y="0" width="350" style="clip-path:url(#clipPath14); fill:none;" height="90" />
    </g>
    <g transform="translate(730,523)" style="font-size:11; fill:white; text-rendering:geometricPrecision; font-family:sans-serif; stroke:white; font-weight:bold;">
      <path d="M30 0 L30 8 L24 16 L0 16 L0 0 Z" style="clip-path:url(#clipPath14); stroke:none;" />
    </g>
    <g transform="translate(730,523)" style="font-size:11; stroke-linecap:butt; text-rendering:geometricPrecision; font-family:sans-serif; stroke-linejoin:round; font-weight:bold; stroke-miterlimit:0;">
      <path d="M30 0 L30 8 L24 16 L0 16 L0 0 Z" style="fill:none; clip-path:url(#clipPath14);" />
    </g>
    <g transform="translate(730,523)" style="text-rendering:geometricPrecision; font-size:11; font-weight:bold; font-family:sans-serif;">
      <text x="5" y="11" style="clip-path:url(#clipPath15); stroke:none;" xml:space="preserve">opt</text>
    </g>
    <g transform="translate(160,313)" style="font-size:11; stroke-linecap:butt; text-rendering:geometricPrecision; font-family:sans-serif; stroke-linejoin:round; stroke-miterlimit:0;">
      <rect x="0" y="0" width="190" style="clip-path:url(#clipPath16); fill:none;" height="70" />
      <path d="M27 0 L27 8 L21 16 L0 16" style="fill:none; clip-path:url(#clipPath16);" />
    </g>
    <g transform="translate(160,313)" style="text-rendering:geometricPrecision; font-size:11; font-weight:bold; font-family:sans-serif;">
      <text x="5" y="11" style="clip-path:url(#clipPath17); stroke:none;" xml:space="preserve">ref</text>
    </g>
    <g transform="translate(150,333)" style="font-size:11; fill:silver; text-rendering:geometricPrecision; font-family:sans-serif; stroke:silver;">
      <rect x="0" y="0" width="19" style="clip-path:url(#clipPath19); fill:none;" height="19" />
    </g>
    <g transform="translate(751,578)" style="font-size:11; fill:rgb(122,207,245); text-rendering:geometricPrecision; font-family:sans-serif; stroke:rgb(122,207,245);">
      <rect x="0" y="0" width="7" style="clip-path:url(#clipPath20); stroke:none;" height="41" />
    </g>
    <g transform="translate(751,578)" style="font-size:11; stroke-linecap:butt; text-rendering:geometricPrecision; font-family:sans-serif; stroke-linejoin:round; stroke-miterlimit:0;">
      <rect x="0" y="0" width="7" style="clip-path:url(#clipPath20); fill:none;" height="41" />
    </g>
    <g transform="translate(730,273)" style="font-size:11; stroke-linecap:butt; text-rendering:geometricPrecision; font-family:sans-serif; stroke-linejoin:round; font-weight:bold; stroke-miterlimit:0;">
      <rect x="0" y="0" width="350" style="clip-path:url(#clipPath21); fill:none;" height="80" />
    </g>
    <g transform="translate(730,273)" style="font-size:11; fill:white; text-rendering:geometricPrecision; font-family:sans-serif; stroke:white; font-weight:bold;">
      <path d="M30 0 L30 8 L24 16 L0 16 L0 0 Z" style="clip-path:url(#clipPath21); stroke:none;" />
    </g>
    <g transform="translate(730,273)" style="font-size:11; stroke-linecap:butt; text-rendering:geometricPrecision; font-family:sans-serif; stroke-linejoin:round; font-weight:bold; stroke-miterlimit:0;">
      <path d="M30 0 L30 8 L24 16 L0 16 L0 0 Z" style="fill:none; clip-path:url(#clipPath21);" />
    </g>
    <g transform="translate(730,273)" style="text-rendering:geometricPrecision; font-size:11; font-weight:bold; font-family:sans-serif;">
      <text x="5" y="11" style="clip-path:url(#clipPath15); stroke:none;" xml:space="preserve">opt</text>
    </g>
    <g transform="translate(730,540)" style="font-size:11; fill:white; text-rendering:geometricPrecision; font-family:sans-serif; stroke:white;">
      <rect x="28" y="5" width="92" style="clip-path:url(#clipPath22); stroke:none;" height="14" />
    </g>
    <g style="text-rendering:geometricPrecision; font-size:11; font-family:sans-serif;" transform="translate(758,545)">
      <text x="9" y="11" style="clip-path:url(#clipPath23); stroke:none;" xml:space="preserve">[hasResized]</text>
    </g>
    <g transform="translate(730,290)" style="font-size:11; fill:white; text-rendering:geometricPrecision; font-family:sans-serif; stroke:white;">
      <rect x="28" y="5" width="85" style="clip-path:url(#clipPath25); stroke:none;" height="14" />
    </g>
    <g style="text-rendering:geometricPrecision; font-size:11; font-family:sans-serif;" transform="translate(758,295)">
      <text x="10" y="11" style="clip-path:url(#clipPath26); stroke:none;" xml:space="preserve">[hasMoved]</text>
    </g>
    <g transform="translate(160,573)" style="font-size:11; stroke-linecap:butt; text-rendering:geometricPrecision; font-family:sans-serif; stroke-linejoin:round; stroke-miterlimit:0;">
      <rect x="0" y="0" width="190" style="clip-path:url(#clipPath27); fill:none;" height="60" />
      <path d="M27 0 L27 8 L21 16 L0 16" style="fill:none; clip-path:url(#clipPath27);" />
    </g>
    <g transform="translate(160,573)" style="text-rendering:geometricPrecision; font-size:11; font-weight:bold; font-family:sans-serif;">
      <text x="5" y="11" style="clip-path:url(#clipPath17); stroke:none;" xml:space="preserve">ref</text>
    </g>
    <g transform="translate(150,583)" style="font-size:11; fill:silver; text-rendering:geometricPrecision; font-family:sans-serif; stroke:silver;">
      <rect x="0" y="0" width="19" style="clip-path:url(#clipPath19); fill:none;" height="19" />
    </g>
    <g style="text-rendering:geometricPrecision; font-size:11; font-family:sans-serif;" transform="translate(71,603)">
      <text x="7" y="11" style="clip-path:url(#clipPath29); stroke:none;" xml:space="preserve">selectionChanged(rectangle)</text>
    </g>
    <g style="text-rendering:geometricPrecision; font-size:11; font-family:sans-serif;" transform="translate(71,353)">
      <text x="7" y="11" style="clip-path:url(#clipPath29); stroke:none;" xml:space="preserve">selectionChanged(rectangle)</text>
    </g>
    <g style="text-rendering:geometricPrecision; font-size:11; font-family:sans-serif;" transform="translate(1230,73)">
      <text x="6" y="11" style="clip-path:url(#clipPath30); stroke:none;" xml:space="preserve">ImagePropertiesPane</text>
      <text x="63" y="25" style="clip-path:url(#clipPath30); stroke:none;" xml:space="preserve">l</text>
      <text x="40" y="39" style="clip-path:url(#clipPath30); stroke:none;" xml:space="preserve">&lt;&lt;UI&gt;&gt;</text>
    </g>
    <g style="text-rendering:geometricPrecision; font-size:11; font-family:sans-serif;" transform="translate(450,73)">
      <text x="6" y="11" style="clip-path:url(#clipPath30); stroke:none;" xml:space="preserve">SelectionControlPane</text>
      <text x="63" y="25" style="clip-path:url(#clipPath30); stroke:none;" xml:space="preserve">l</text>
      <text x="40" y="39" style="clip-path:url(#clipPath30); stroke:none;" xml:space="preserve">&lt;&lt;UI&gt;&gt;</text>
    </g>
    <g style="text-rendering:geometricPrecision; font-size:11; font-family:sans-serif;" transform="translate(1010,108)">
      <text x="5" y="11" style="clip-path:url(#clipPath31); stroke:none;" xml:space="preserve">SelectionPanel</text>
    </g>
    <g style="text-rendering:geometricPrecision; font-size:11; font-family:sans-serif;" transform="translate(312,108)">
      <text x="5" y="11" style="clip-path:url(#clipPath32); stroke:none;" xml:space="preserve">ImageParams</text>
    </g>
    <g style="text-rendering:geometricPrecision; font-size:11; font-family:sans-serif;" transform="translate(16,108)">
      <text x="9" y="11" style="clip-path:url(#clipPath33); stroke:none;" xml:space="preserve">Actor</text>
    </g>
    <g style="text-rendering:geometricPrecision; font-size:11; font-family:sans-serif;" transform="translate(710,73)">
      <text x="6" y="11" style="clip-path:url(#clipPath34); stroke:none;" xml:space="preserve">SelectionPane</text>
      <text x="43" y="25" style="clip-path:url(#clipPath34); stroke:none;" xml:space="preserve">l</text>
      <text x="20" y="39" style="clip-path:url(#clipPath34); stroke:none;" xml:space="preserve">&lt;&lt;UI&gt;&gt;</text>
    </g>
    <g style="text-rendering:geometricPrecision; font-size:11; font-family:sans-serif;" transform="translate(125,108)">
      <text x="4" y="11" style="clip-path:url(#clipPath35); stroke:none;" xml:space="preserve">ImageCropControl</text>
    </g>
    <g transform="translate(996,160)" style="font-size:11; stroke-linecap:butt; text-rendering:geometricPrecision; font-family:sans-serif; stroke-linejoin:round;">
      <line x1="62" x2="94" y1="63" style="clip-path:url(#clipPath36); fill:none;" y2="63" />
      <line x1="94" x2="94" y1="63" style="clip-path:url(#clipPath36); fill:none;" y2="83" />
      <line x1="94" x2="62" y1="83" style="clip-path:url(#clipPath36); fill:none;" y2="83" />
      <polygon style="clip-path:url(#clipPath36); stroke:none;" points=" 62 83 74 89 74 77" />
      <polygon style="fill:none; clip-path:url(#clipPath36);" points=" 62 83 74 89 74 77" />
    </g>
    <g transform="translate(696,190)" style="font-size:11; stroke-linecap:butt; text-rendering:geometricPrecision; font-family:sans-serif; stroke-linejoin:round; stroke-dasharray:8,3; stroke-miterlimit:0;">
      <line x1="355" x2="62" y1="63" style="clip-path:url(#clipPath37); fill:none;" y2="63" />
      <line x1="62" x2="74" y1="63" style="clip-path:url(#clipPath37); fill:none; stroke-dasharray:none; stroke-miterlimit:10;" y2="69" />
      <line x1="62" x2="74" y1="63" style="clip-path:url(#clipPath37); fill:none; stroke-dasharray:none; stroke-miterlimit:10;" y2="57" />
    </g>
    <g transform="translate(696,440)" style="font-size:11; stroke-linecap:butt; text-rendering:geometricPrecision; font-family:sans-serif; stroke-linejoin:round; stroke-dasharray:8,3; stroke-miterlimit:0;">
      <line x1="355" x2="62" y1="63" style="clip-path:url(#clipPath37); fill:none;" y2="63" />
      <line x1="62" x2="74" y1="63" style="clip-path:url(#clipPath37); fill:none; stroke-dasharray:none; stroke-miterlimit:10;" y2="69" />
      <line x1="62" x2="74" y1="63" style="clip-path:url(#clipPath37); fill:none; stroke-dasharray:none; stroke-miterlimit:10;" y2="57" />
    </g>
    <g transform="translate(696,150)" style="font-size:11; stroke-linecap:butt; text-rendering:geometricPrecision; font-family:sans-serif; stroke-linejoin:round;">
      <line x1="62" x2="355" y1="63" style="clip-path:url(#clipPath37); fill:none;" y2="63" />
      <polygon style="clip-path:url(#clipPath37); stroke:none;" points=" 355 63 343 57 343 69" />
      <polygon style="fill:none; clip-path:url(#clipPath37);" points=" 355 63 343 57 343 69" />
    </g>
    <g transform="translate(696,410)" style="font-size:11; stroke-linecap:butt; text-rendering:geometricPrecision; font-family:sans-serif; stroke-linejoin:round;">
      <line x1="62" x2="355" y1="63" style="clip-path:url(#clipPath37); fill:none;" y2="63" />
      <polygon style="clip-path:url(#clipPath37); stroke:none;" points=" 355 63 343 57 343 69" />
      <polygon style="fill:none; clip-path:url(#clipPath37);" points=" 355 63 343 57 343 69" />
    </g>
    <g transform="translate(456,130)" style="font-size:11; stroke-linecap:butt; text-rendering:geometricPrecision; font-family:sans-serif; stroke-linejoin:round;">
      <line x1="62" x2="295" y1="63" style="clip-path:url(#clipPath38); fill:none;" y2="63" />
      <polygon style="clip-path:url(#clipPath38); stroke:none;" points=" 295 63 283 57 283 69" />
      <polygon style="fill:none; clip-path:url(#clipPath38);" points=" 295 63 283 57 283 69" />
    </g>
    <g transform="translate(456,400)" style="font-size:11; stroke-linecap:butt; text-rendering:geometricPrecision; font-family:sans-serif; stroke-linejoin:round;">
      <line x1="62" x2="295" y1="63" style="clip-path:url(#clipPath38); fill:none;" y2="63" />
      <polygon style="clip-path:url(#clipPath38); stroke:none;" points=" 295 63 283 57 283 69" />
      <polygon style="fill:none; clip-path:url(#clipPath38);" points=" 295 63 283 57 283 69" />
    </g>
    <g transform="translate(-18,110)" style="font-size:11; stroke-linecap:butt; text-rendering:geometricPrecision; font-family:sans-serif; stroke-linejoin:round;">
      <line x1="61" x2="529" y1="63" style="clip-path:url(#clipPath39); fill:none;" y2="63" />
      <polygon style="clip-path:url(#clipPath39); stroke:none;" points=" 529 63 517 57 517 69" />
      <polygon style="fill:none; clip-path:url(#clipPath39);" points=" 529 63 517 57 517 69" />
    </g>
    <g transform="translate(-18,380)" style="font-size:11; stroke-linecap:butt; text-rendering:geometricPrecision; font-family:sans-serif; stroke-linejoin:round;">
      <line x1="61" x2="529" y1="63" style="clip-path:url(#clipPath39); fill:none;" y2="63" />
      <polygon style="clip-path:url(#clipPath39); stroke:none;" points=" 529 63 517 57 517 69" />
      <polygon style="fill:none; clip-path:url(#clipPath39);" points=" 529 63 517 57 517 69" />
    </g>
    <g transform="translate(696,280)" style="font-size:11; stroke-linecap:butt; text-rendering:geometricPrecision; font-family:sans-serif; stroke-linejoin:round;">
      <line x1="62" x2="595" y1="63" style="clip-path:url(#clipPath40); fill:none;" y2="63" />
      <polygon style="clip-path:url(#clipPath40); stroke:none;" points=" 595 63 583 57 583 69" />
      <polygon style="fill:none; clip-path:url(#clipPath40);" points=" 595 63 583 57 583 69" />
    </g>
    <g transform="translate(696,530)" style="font-size:11; stroke-linecap:butt; text-rendering:geometricPrecision; font-family:sans-serif; stroke-linejoin:round;">
      <line x1="62" x2="595" y1="63" style="clip-path:url(#clipPath40); fill:none;" y2="63" />
      <polygon style="clip-path:url(#clipPath40); stroke:none;" points=" 595 63 583 57 583 69" />
      <polygon style="fill:none; clip-path:url(#clipPath40);" points=" 595 63 583 57 583 69" />
    </g>
    <g transform="translate(97,280)" style="font-size:11; stroke-linecap:butt; text-rendering:geometricPrecision; font-family:sans-serif; stroke-linejoin:round;">
      <line x1="654" x2="63" y1="63" style="clip-path:url(#clipPath41); fill:none;" y2="63" />
      <polygon style="fill:rgb(122,207,245); clip-path:url(#clipPath41); stroke:none;" points=" 63 63 75 69 75 57" />
      <polygon style="fill:none; clip-path:url(#clipPath41);" points=" 63 63 75 69 75 57" />
    </g>
    <g transform="translate(97,530)" style="font-size:11; stroke-linecap:butt; text-rendering:geometricPrecision; font-family:sans-serif; stroke-linejoin:round;">
      <line x1="654" x2="63" y1="63" style="clip-path:url(#clipPath41); fill:none;" y2="63" />
      <polygon style="fill:rgb(122,207,245); clip-path:url(#clipPath41); stroke:none;" points=" 63 63 75 69 75 57" />
      <polygon style="fill:none; clip-path:url(#clipPath41);" points=" 63 63 75 69 75 57" />
    </g>
    <g style="text-rendering:geometricPrecision; font-size:11; font-family:sans-serif;" transform="translate(350,573)">
      <text x="9" y="11" style="clip-path:url(#clipPath42); stroke:none;" xml:space="preserve">notification:SELECTION_RECTANGLE_CHANGED</text>
    </g>
    <g style="text-rendering:geometricPrecision; font-size:11; font-family:sans-serif;" transform="translate(350,323)">
      <text x="9" y="11" style="clip-path:url(#clipPath42); stroke:none;" xml:space="preserve">notification:SELECTION_RECTANGLE_CHANGED</text>
    </g>
    <g style="text-rendering:geometricPrecision; font-size:11; font-family:sans-serif;" transform="translate(765,573)">
      <text x="5" y="11" style="clip-path:url(#clipPath43); stroke:none;" xml:space="preserve">setCropSize(selectionRectangle) through notification:SELECTION_RECTANGLE_CHANGED</text>
    </g>
    <g style="text-rendering:geometricPrecision; font-size:11; font-family:sans-serif;" transform="translate(765,323)">
      <text x="5" y="11" style="clip-path:url(#clipPath43); stroke:none;" xml:space="preserve">setCropSize(selectionRectangle) through notification:SELECTION_RECTANGLE_CHANGED</text>
    </g>
    <g style="text-rendering:geometricPrecision; font-size:11; font-family:sans-serif;" transform="translate(156,423)">
      <text x="7" y="11" style="clip-path:url(#clipPath44); stroke:none;" xml:space="preserve">click any of the 'resize selection' buttons</text>
    </g>
    <g style="text-rendering:geometricPrecision; font-size:11; font-family:sans-serif;" transform="translate(157,153)">
      <text x="2" y="11" style="clip-path:url(#clipPath45); stroke:none;" xml:space="preserve">click any of the 'move selection' buttons</text>
    </g>
    <g style="text-rendering:geometricPrecision; font-size:11; font-family:sans-serif;" transform="translate(515,433)">
      <text x="10" y="11" style="clip-path:url(#clipPath46); stroke:none;" xml:space="preserve">resizeRectBy(amount, edge, direction)</text>
      <text x="6" y="25" style="clip-path:url(#clipPath46); stroke:none;" xml:space="preserve">through notification:RESIZE_SELECTION</text>
    </g>
    <g style="text-rendering:geometricPrecision; font-size:11; font-family:sans-serif;" transform="translate(548,163)">
      <text x="17" y="11" style="clip-path:url(#clipPath47); stroke:none;" xml:space="preserve">moveRectBy(x, y) through</text>
      <text x="6" y="25" style="clip-path:url(#clipPath47); stroke:none;" xml:space="preserve">notification:MOVE_SELECTION</text>
    </g>
    <g style="text-rendering:geometricPrecision; font-size:11; font-family:sans-serif;" transform="translate(801,439)">
      <text x="7" y="11" style="clip-path:url(#clipPath48); stroke:none;" xml:space="preserve">resizeBy(amount, edge, direction,</text>
      <text x="11" y="25" style="clip-path:url(#clipPath48); stroke:none;" xml:space="preserve">containerWidth, containerHeight)</text>
    </g>
    <g style="text-rendering:geometricPrecision; font-size:11; font-family:sans-serif;" transform="translate(773,193)">
      <text x="2" y="11" style="clip-path:url(#clipPath49); stroke:none;" xml:space="preserve">moveBy(x, y, containerWidth, containerHeight)</text>
    </g>
    <g style="text-rendering:geometricPrecision; font-size:11; font-family:sans-serif;" transform="translate(863,483)">
      <text x="9" y="11" style="clip-path:url(#clipPath50); stroke:none;" xml:space="preserve">hasResized</text>
    </g>
    <g style="text-rendering:geometricPrecision; font-size:11; font-family:sans-serif;" transform="translate(866,233)">
      <text x="9" y="11" style="clip-path:url(#clipPath51); stroke:none;" xml:space="preserve">hasMoved</text>
    </g>
    <g style="text-rendering:geometricPrecision; font-size:11; font-family:sans-serif;" transform="translate(1090,213)">
      <text x="18" y="11" style="clip-path:url(#clipPath52); stroke:none;" xml:space="preserve">moveTo(x, y,</text>
      <text x="11" y="25" style="clip-path:url(#clipPath52); stroke:none;" xml:space="preserve">containerWidth,</text>
      <text x="8" y="39" style="clip-path:url(#clipPath52); stroke:none;" xml:space="preserve">containerHeight)</text>
    </g>
    <g style="fill:rgb(120,120,120); text-rendering:geometricPrecision; font-size:10; stroke:rgb(120,120,120);">
      <text xml:space="preserve" x="0" y="10" style="stroke:none;">Visual Paradigm for UML Community Edition [not for commercial use] </text>
    </g>
  </g>
</svg>
