<?xml version="1.0" encoding="UTF-8"?>

<!DOCTYPE svg PUBLIC '-//W3C//DTD SVG 1.0//EN' 'http://www.w3.org/TR/2001/REC-SVG-20010904/DTD/svg10.dtd'>
<svg style="fill-opacity:1; color-rendering:auto; color-interpolation:auto; stroke:black; text-rendering:auto; stroke-linecap:square; stroke-miterlimit:10; stroke-opacity:1; shape-rendering:auto; fill:black; stroke-dasharray:none; font-weight:normal; stroke-width:1; font-family:&apos;Dialog&apos;; font-style:normal; stroke-linejoin:miter; font-size:12; stroke-dashoffset:0; image-rendering:auto;" xmlns="http://www.w3.org/2000/svg" width="1414" xmlns:xlink="http://www.w3.org/1999/xlink" height="959">
  <!--Generated by the Batik Graphics2D SVG Generator-->
  <defs id="genericDefs" />
  <g>
    <defs id="defs1">
      <clipPath clipPathUnits="userSpaceOnUse" id="clipPath1">
        <path d="M-3 -3 L127 -3 L127 917 L-3 917 L-3 -3 Z" />
      </clipPath>
      <clipPath clipPathUnits="userSpaceOnUse" id="clipPath2">
        <path d="M-3 -3 L97 -3 L97 917 L-3 917 L-3 -3 Z" />
      </clipPath>
      <clipPath clipPathUnits="userSpaceOnUse" id="clipPath3">
        <path d="M-3 -3 L87 -3 L87 917 L-3 917 L-3 -3 Z" />
      </clipPath>
      <clipPath clipPathUnits="userSpaceOnUse" id="clipPath4">
        <path d="M-3 -3 L137 -3 L137 917 L-3 917 L-3 -3 Z" />
      </clipPath>
      <clipPath clipPathUnits="userSpaceOnUse" id="clipPath5">
        <path d="M-3 -3 L167 -3 L167 917 L-3 917 L-3 -3 Z" />
      </clipPath>
      <clipPath clipPathUnits="userSpaceOnUse" id="clipPath6">
        <path d="M-3 -3 L67 -3 L67 917 L-3 917 L-3 -3 Z" />
      </clipPath>
      <clipPath clipPathUnits="userSpaceOnUse" id="clipPath7">
        <path d="M-3 -3 L15 -3 L15 71 L-3 71 L-3 -3 Z" />
      </clipPath>
      <clipPath clipPathUnits="userSpaceOnUse" id="clipPath8">
        <path d="M-3 -3 L15 -3 L15 78 L-3 78 L-3 -3 Z" />
      </clipPath>
      <clipPath clipPathUnits="userSpaceOnUse" id="clipPath9">
        <path d="M-3 -3 L15 -3 L15 19 L-3 19 L-3 -3 Z" />
      </clipPath>
      <clipPath clipPathUnits="userSpaceOnUse" id="clipPath10">
        <path d="M-3 -3 L15 -3 L15 87 L-3 87 L-3 -3 Z" />
      </clipPath>
      <clipPath clipPathUnits="userSpaceOnUse" id="clipPath11">
        <path d="M-3 -3 L15 -3 L15 101 L-3 101 L-3 -3 Z" />
      </clipPath>
      <clipPath clipPathUnits="userSpaceOnUse" id="clipPath12">
        <path d="M-3 -3 L15 -3 L15 277 L-3 277 L-3 -3 Z" />
      </clipPath>
      <clipPath clipPathUnits="userSpaceOnUse" id="clipPath13">
        <path d="M-3 -3 L15 -3 L15 189 L-3 189 L-3 -3 Z" />
      </clipPath>
      <clipPath clipPathUnits="userSpaceOnUse" id="clipPath14">
        <path d="M-3 -3 L15 -3 L15 61 L-3 61 L-3 -3 Z" />
      </clipPath>
      <clipPath clipPathUnits="userSpaceOnUse" id="clipPath15">
        <path d="M-3 -3 L15 -3 L15 159 L-3 159 L-3 -3 Z" />
      </clipPath>
      <clipPath clipPathUnits="userSpaceOnUse" id="clipPath16">
        <path d="M-3 -3 L341 -3 L341 150 L-3 150 L-3 -3 Z" />
      </clipPath>
      <clipPath clipPathUnits="userSpaceOnUse" id="clipPath17">
        <path d="M0 0 L26 0 L26 17 L0 17 L0 0 Z" />
      </clipPath>
      <clipPath clipPathUnits="userSpaceOnUse" id="clipPath18">
        <path d="M-3 -3 L341 -3 L341 67 L-3 67 L-3 -3 Z" />
      </clipPath>
      <clipPath clipPathUnits="userSpaceOnUse" id="clipPath19">
        <path d="M0 0 L176 0 L176 14 L0 14 L0 0 Z" />
      </clipPath>
      <clipPath clipPathUnits="userSpaceOnUse" id="clipPath20">
        <path d="M0 0 L0 4 L334 4 L334 0 Z" />
      </clipPath>
      <clipPath clipPathUnits="userSpaceOnUse" id="clipPath21">
        <path d="M-3 -3 L341 -3 L341 73 L-3 73 L-3 -3 Z" />
      </clipPath>
      <clipPath clipPathUnits="userSpaceOnUse" id="clipPath22">
        <path d="M-86 -14 L172 -14 L172 28 L-86 28 L-86 -14 Z" />
      </clipPath>
      <clipPath clipPathUnits="userSpaceOnUse" id="clipPath23">
        <path d="M-49 -14 L98 -14 L98 28 L-49 28 L-49 -14 Z" />
      </clipPath>
      <clipPath clipPathUnits="userSpaceOnUse" id="clipPath24">
        <path d="M-160 -42 L320 -42 L320 84 L-160 84 L-160 -42 Z" />
      </clipPath>
      <clipPath clipPathUnits="userSpaceOnUse" id="clipPath25">
        <path d="M-130 -42 L260 -42 L260 84 L-130 84 L-130 -42 Z" />
      </clipPath>
      <clipPath clipPathUnits="userSpaceOnUse" id="clipPath26">
        <path d="M-90 -42 L180 -42 L180 84 L-90 84 L-90 -42 Z" />
      </clipPath>
      <clipPath clipPathUnits="userSpaceOnUse" id="clipPath27">
        <path d="M-80 -28 L160 -28 L160 56 L-80 56 L-80 -28 Z" />
      </clipPath>
      <clipPath clipPathUnits="userSpaceOnUse" id="clipPath28">
        <path d="M-90 -28 L180 -28 L180 56 L-90 56 L-90 -28 Z" />
      </clipPath>
      <clipPath clipPathUnits="userSpaceOnUse" id="clipPath29">
        <path d="M-110 -14 L220 -14 L220 28 L-110 28 L-110 -14 Z" />
      </clipPath>
      <clipPath clipPathUnits="userSpaceOnUse" id="clipPath30">
        <path d="M0 0 L541 0 L541 104 L0 104 L0 0 Z" />
      </clipPath>
      <clipPath clipPathUnits="userSpaceOnUse" id="clipPath31">
        <path d="M0 0 L341 0 L341 104 L0 104 L0 0 Z" />
      </clipPath>
      <clipPath clipPathUnits="userSpaceOnUse" id="clipPath32">
        <path d="M0 0 L786 0 L786 104 L0 104 L0 0 Z" />
      </clipPath>
      <clipPath clipPathUnits="userSpaceOnUse" id="clipPath33">
        <path d="M0 0 L476 0 L476 104 L0 104 L0 0 Z" />
      </clipPath>
      <clipPath clipPathUnits="userSpaceOnUse" id="clipPath34">
        <path d="M0 0 L831 0 L831 104 L0 104 L0 0 Z" />
      </clipPath>
      <clipPath clipPathUnits="userSpaceOnUse" id="clipPath35">
        <path d="M0 0 L586 0 L586 104 L0 104 L0 0 Z" />
      </clipPath>
      <clipPath clipPathUnits="userSpaceOnUse" id="clipPath36">
        <path d="M0 0 L1276 0 L1276 104 L0 104 L0 0 Z" />
      </clipPath>
      <clipPath clipPathUnits="userSpaceOnUse" id="clipPath37">
        <path d="M0 0 L1376 0 L1376 104 L0 104 L0 0 Z" />
      </clipPath>
      <clipPath clipPathUnits="userSpaceOnUse" id="clipPath38">
        <path d="M0 0 L886 0 L886 104 L0 104 L0 0 Z" />
      </clipPath>
      <clipPath clipPathUnits="userSpaceOnUse" id="clipPath39">
        <path d="M0 0 L351 0 L351 104 L0 104 L0 0 Z" />
      </clipPath>
      <clipPath clipPathUnits="userSpaceOnUse" id="clipPath40">
        <path d="M-183 -14 L366 -14 L366 28 L-183 28 L-183 -14 Z" />
      </clipPath>
      <clipPath clipPathUnits="userSpaceOnUse" id="clipPath41">
        <path d="M-198 -14 L396 -14 L396 28 L-198 28 L-198 -14 Z" />
      </clipPath>
      <clipPath clipPathUnits="userSpaceOnUse" id="clipPath42">
        <path d="M-116 -14 L232 -14 L232 28 L-116 28 L-116 -14 Z" />
      </clipPath>
      <clipPath clipPathUnits="userSpaceOnUse" id="clipPath43">
        <path d="M-249 -14 L498 -14 L498 28 L-249 28 L-249 -14 Z" />
      </clipPath>
      <clipPath clipPathUnits="userSpaceOnUse" id="clipPath44">
        <path d="M-254 -14 L508 -14 L508 28 L-254 28 L-254 -14 Z" />
      </clipPath>
      <clipPath clipPathUnits="userSpaceOnUse" id="clipPath45">
        <path d="M-409 -14 L818 -14 L818 28 L-409 28 L-409 -14 Z" />
      </clipPath>
      <clipPath clipPathUnits="userSpaceOnUse" id="clipPath46">
        <path d="M-112 -14 L224 -14 L224 28 L-112 28 L-112 -14 Z" />
      </clipPath>
      <clipPath clipPathUnits="userSpaceOnUse" id="clipPath47">
        <path d="M-148 -14 L296 -14 L296 28 L-148 28 L-148 -14 Z" />
      </clipPath>
      <clipPath clipPathUnits="userSpaceOnUse" id="clipPath48">
        <path d="M-479 -14 L958 -14 L958 28 L-479 28 L-479 -14 Z" />
      </clipPath>
      <clipPath clipPathUnits="userSpaceOnUse" id="clipPath49">
        <path d="M-386 -14 L772 -14 L772 28 L-386 28 L-386 -14 Z" />
      </clipPath>
      <clipPath clipPathUnits="userSpaceOnUse" id="clipPath50">
        <path d="M-425 -14 L850 -14 L850 28 L-425 28 L-425 -14 Z" />
      </clipPath>
      <clipPath clipPathUnits="userSpaceOnUse" id="clipPath51">
        <path d="M-247 -14 L494 -14 L494 28 L-247 28 L-247 -14 Z" />
      </clipPath>
      <clipPath clipPathUnits="userSpaceOnUse" id="clipPath52">
        <path d="M-389 -14 L778 -14 L778 28 L-389 28 L-389 -14 Z" />
      </clipPath>
      <clipPath clipPathUnits="userSpaceOnUse" id="clipPath53">
        <path d="M-104 -14 L208 -14 L208 28 L-104 28 L-104 -14 Z" />
      </clipPath>
      <clipPath clipPathUnits="userSpaceOnUse" id="clipPath54">
        <path d="M-108 -14 L216 -14 L216 28 L-108 28 L-108 -14 Z" />
      </clipPath>
      <clipPath clipPathUnits="userSpaceOnUse" id="clipPath55">
        <path d="M-356 -14 L712 -14 L712 28 L-356 28 L-356 -14 Z" />
      </clipPath>
      <clipPath clipPathUnits="userSpaceOnUse" id="clipPath56">
        <path d="M-155 -14 L310 -14 L310 28 L-155 28 L-155 -14 Z" />
      </clipPath>
      <clipPath clipPathUnits="userSpaceOnUse" id="clipPath57">
        <path d="M-164 -14 L328 -14 L328 28 L-164 28 L-164 -14 Z" />
      </clipPath>
      <clipPath clipPathUnits="userSpaceOnUse" id="clipPath58">
        <path d="M-102 -14 L204 -14 L204 28 L-102 28 L-102 -14 Z" />
      </clipPath>
    </defs>
    <g style="fill:white; text-rendering:geometricPrecision; stroke:white;">
      <rect x="0" y="0" width="1414" style="stroke:none;" height="959" />
      <rect x="0" y="38" transform="translate(0,-38)" width="1413" style="fill:none; stroke:black;" height="958" />
      <text x="7" y="54" transform="translate(0,-38)" style="fill:black; stroke:none; font-weight:bold;" xml:space="preserve">sd</text>
      <text x="31" y="54" transform="translate(0,-38)" style="fill:black; stroke:none;" xml:space="preserve">bg properties change</text>
      <line transform="translate(0,-38)" x1="0" x2="167" y1="61" style="fill:none; stroke:black;" y2="61" />
      <line transform="translate(0,-38)" x1="173" x2="173" y1="38" style="fill:none; stroke:black;" y2="51" />
      <line transform="translate(0,-38)" x1="173" x2="167" y1="51" style="fill:none; stroke:black;" y2="61" />
    </g>
    <g transform="translate(80,35)" style="font-size:11; fill:rgb(122,207,245); text-rendering:geometricPrecision; font-family:sans-serif; stroke:rgb(122,207,245);">
      <circle style="clip-path:url(#clipPath1); stroke:none;" r="15.5" cx="59.5" cy="19.5" />
      <circle style="clip-path:url(#clipPath1); fill:none; stroke:black;" r="15.5" cx="59.5" cy="19.5" />
      <line x1="56" x2="64" y1="4" style="clip-path:url(#clipPath1); fill:none; stroke:black;" y2="0" />
      <line x1="56" x2="64" y1="4" style="clip-path:url(#clipPath1); fill:none; stroke:black;" y2="8" />
    </g>
    <g transform="translate(80,35)" style="font-size:11; stroke-linecap:butt; text-rendering:geometricPrecision; font-family:sans-serif; stroke-linejoin:bevel; stroke-dasharray:8,3; stroke-miterlimit:0;">
      <line x1="59" x2="59" y1="49" style="clip-path:url(#clipPath1); fill:none;" y2="910" />
    </g>
    <g transform="translate(540,35)" style="font-size:11; fill:rgb(122,207,245); text-rendering:geometricPrecision; font-family:sans-serif; stroke:rgb(122,207,245);">
      <rect x="0" y="0" width="89" style="clip-path:url(#clipPath2); stroke:none;" height="35" />
    </g>
    <g transform="translate(540,35)" style="font-size:11; stroke-linecap:butt; text-rendering:geometricPrecision; font-family:sans-serif; stroke-linejoin:round; stroke-miterlimit:0;">
      <rect x="0" y="0" width="89" style="clip-path:url(#clipPath2); fill:none;" height="35" />
      <line x1="44" x2="44" y1="35" style="clip-path:url(#clipPath2); fill:none; stroke-linejoin:bevel; stroke-dasharray:8,3;" y2="910" />
    </g>
    <g transform="translate(790,35)" style="font-size:11; fill:rgb(122,207,245); text-rendering:geometricPrecision; font-family:sans-serif; stroke:rgb(122,207,245);">
      <rect x="0" y="0" width="79" style="clip-path:url(#clipPath3); stroke:none;" height="35" />
    </g>
    <g transform="translate(790,35)" style="font-size:11; stroke-linecap:butt; text-rendering:geometricPrecision; font-family:sans-serif; stroke-linejoin:round; stroke-miterlimit:0;">
      <rect x="0" y="0" width="79" style="clip-path:url(#clipPath3); fill:none;" height="35" />
      <line x1="39" x2="39" y1="35" style="clip-path:url(#clipPath3); fill:none; stroke-linejoin:bevel; stroke-dasharray:8,3;" y2="910" />
    </g>
    <g transform="translate(920,35)" style="font-size:11; fill:rgb(122,207,245); text-rendering:geometricPrecision; font-family:sans-serif; stroke:rgb(122,207,245);">
      <rect x="0" y="0" width="89" style="clip-path:url(#clipPath2); stroke:none;" height="42" />
    </g>
    <g transform="translate(920,35)" style="font-size:11; stroke-linecap:butt; text-rendering:geometricPrecision; font-family:sans-serif; stroke-linejoin:round; stroke-miterlimit:0;">
      <rect x="0" y="0" width="89" style="clip-path:url(#clipPath2); fill:none;" height="42" />
      <line x1="44" x2="44" y1="35" style="clip-path:url(#clipPath2); fill:none; stroke-linejoin:bevel; stroke-dasharray:8,3;" y2="910" />
    </g>
    <g transform="translate(1060,35)" style="font-size:11; fill:rgb(122,207,245); text-rendering:geometricPrecision; font-family:sans-serif; stroke:rgb(122,207,245);">
      <rect x="0" y="0" width="129" style="clip-path:url(#clipPath4); stroke:none;" height="42" />
    </g>
    <g transform="translate(1060,35)" style="font-size:11; stroke-linecap:butt; text-rendering:geometricPrecision; font-family:sans-serif; stroke-linejoin:round; stroke-miterlimit:0;">
      <rect x="0" y="0" width="129" style="clip-path:url(#clipPath4); fill:none;" height="42" />
      <line x1="64" x2="64" y1="35" style="clip-path:url(#clipPath4); fill:none; stroke-linejoin:bevel; stroke-dasharray:8,3;" y2="910" />
    </g>
    <g transform="translate(1240,35)" style="font-size:11; fill:rgb(122,207,245); text-rendering:geometricPrecision; font-family:sans-serif; stroke:rgb(122,207,245);">
      <rect x="0" y="0" width="159" style="clip-path:url(#clipPath5); stroke:none;" height="42" />
    </g>
    <g transform="translate(1240,35)" style="font-size:11; stroke-linecap:butt; text-rendering:geometricPrecision; font-family:sans-serif; stroke-linejoin:round; stroke-miterlimit:0;">
      <rect x="0" y="0" width="159" style="clip-path:url(#clipPath5); fill:none;" height="42" />
      <line x1="79" x2="79" y1="35" style="clip-path:url(#clipPath5); fill:none; stroke-linejoin:bevel; stroke-dasharray:8,3;" y2="910" />
    </g>
    <g transform="translate(10,35)" style="font-size:11; fill:rgb(122,207,245); text-rendering:geometricPrecision; font-family:sans-serif; stroke:rgb(122,207,245);">
      <circle style="clip-path:url(#clipPath6); stroke:none;" r="5" cx="30" cy="5" />
      <rect x="26" y="49" width="8" style="clip-path:url(#clipPath6); stroke:none;" height="860" />
    </g>
    <g transform="translate(10,35)" style="font-size:11; stroke-linecap:butt; text-rendering:geometricPrecision; font-family:sans-serif; stroke-linejoin:round; stroke-miterlimit:0;">
      <circle style="fill:none; clip-path:url(#clipPath6);" r="5" cx="30" cy="5" />
      <rect x="26" y="49" width="8" style="clip-path:url(#clipPath6); fill:none;" height="860" />
      <line x1="30" x2="30" y1="10" style="clip-path:url(#clipPath6); fill:none;" y2="25" />
      <line x1="30" x2="21" y1="25" style="clip-path:url(#clipPath6); fill:none;" y2="36" />
      <line x1="30" x2="39" y1="25" style="clip-path:url(#clipPath6); fill:none;" y2="36" />
      <line x1="21" x2="39" y1="16" style="clip-path:url(#clipPath6); fill:none;" y2="16" />
    </g>
    <g transform="translate(1316,115)" style="font-size:11; fill:rgb(122,207,245); text-rendering:geometricPrecision; font-family:sans-serif; stroke:rgb(122,207,245);">
      <rect x="0" y="0" width="8" style="clip-path:url(#clipPath7); stroke:none;" height="64" />
    </g>
    <g transform="translate(1316,115)" style="font-size:11; stroke-linecap:butt; text-rendering:geometricPrecision; font-family:sans-serif; stroke-linejoin:round; stroke-miterlimit:0;">
      <rect x="0" y="0" width="8" style="clip-path:url(#clipPath7); fill:none;" height="64" />
    </g>
    <g transform="translate(136,165)" style="font-size:11; fill:rgb(122,207,245); text-rendering:geometricPrecision; font-family:sans-serif; stroke:rgb(122,207,245);">
      <rect x="0" y="0" width="8" style="clip-path:url(#clipPath8); stroke:none;" height="71" />
    </g>
    <g transform="translate(136,165)" style="font-size:11; stroke-linecap:butt; text-rendering:geometricPrecision; font-family:sans-serif; stroke-linejoin:round; stroke-miterlimit:0;">
      <rect x="0" y="0" width="8" style="clip-path:url(#clipPath8); fill:none;" height="71" />
    </g>
    <g transform="translate(350,35)" style="font-size:11; fill:rgb(122,207,245); text-rendering:geometricPrecision; font-family:sans-serif; stroke:rgb(122,207,245);">
      <circle style="clip-path:url(#clipPath2); stroke:none;" r="16.5" cx="44.5" cy="16.5" />
      <circle style="clip-path:url(#clipPath2); fill:none; stroke:black;" r="16.5" cx="44.5" cy="16.5" />
      <line x1="5" x2="84" y1="33" style="clip-path:url(#clipPath2); fill:none; stroke:black;" y2="33" />
    </g>
    <g transform="translate(350,35)" style="font-size:11; stroke-linecap:butt; text-rendering:geometricPrecision; font-family:sans-serif; stroke-linejoin:bevel; stroke-dasharray:8,3; stroke-miterlimit:0;">
      <line x1="44" x2="44" y1="49" style="clip-path:url(#clipPath2); fill:none;" y2="910" />
    </g>
    <g transform="translate(391,195)" style="font-size:11; fill:rgb(122,207,245); text-rendering:geometricPrecision; font-family:sans-serif; stroke:rgb(122,207,245);">
      <rect x="0" y="0" width="8" style="clip-path:url(#clipPath9); stroke:none;" height="12" />
    </g>
    <g transform="translate(391,195)" style="font-size:11; stroke-linecap:butt; text-rendering:geometricPrecision; font-family:sans-serif; stroke-linejoin:round; stroke-miterlimit:0;">
      <rect x="0" y="0" width="8" style="clip-path:url(#clipPath9); fill:none;" height="12" />
    </g>
    <g transform="translate(581,225)" style="font-size:11; fill:rgb(122,207,245); text-rendering:geometricPrecision; font-family:sans-serif; stroke:rgb(122,207,245);">
      <rect x="0" y="0" width="8" style="clip-path:url(#clipPath10); stroke:none;" height="80" />
    </g>
    <g transform="translate(581,225)" style="font-size:11; stroke-linecap:butt; text-rendering:geometricPrecision; font-family:sans-serif; stroke-linejoin:round; stroke-miterlimit:0;">
      <rect x="0" y="0" width="8" style="clip-path:url(#clipPath10); fill:none;" height="80" />
    </g>
    <g transform="translate(1316,235)" style="font-size:11; fill:rgb(122,207,245); text-rendering:geometricPrecision; font-family:sans-serif; stroke:rgb(122,207,245);">
      <rect x="0" y="0" width="8" style="clip-path:url(#clipPath9); stroke:none;" height="12" />
    </g>
    <g transform="translate(1316,235)" style="font-size:11; stroke-linecap:butt; text-rendering:geometricPrecision; font-family:sans-serif; stroke-linejoin:round; stroke-miterlimit:0;">
      <rect x="0" y="0" width="8" style="clip-path:url(#clipPath9); fill:none;" height="12" />
    </g>
    <g transform="translate(961,265)" style="font-size:11; fill:rgb(122,207,245); text-rendering:geometricPrecision; font-family:sans-serif; stroke:rgb(122,207,245);">
      <rect x="0" y="0" width="8" style="clip-path:url(#clipPath9); stroke:none;" height="12" />
    </g>
    <g transform="translate(961,265)" style="font-size:11; stroke-linecap:butt; text-rendering:geometricPrecision; font-family:sans-serif; stroke-linejoin:round; stroke-miterlimit:0;">
      <rect x="0" y="0" width="8" style="clip-path:url(#clipPath9); fill:none;" height="12" />
    </g>
    <g transform="translate(826,295)" style="font-size:11; fill:rgb(122,207,245); text-rendering:geometricPrecision; font-family:sans-serif; stroke:rgb(122,207,245);">
      <rect x="0" y="0" width="8" style="clip-path:url(#clipPath11); stroke:none;" height="94" />
    </g>
    <g transform="translate(826,295)" style="font-size:11; stroke-linecap:butt; text-rendering:geometricPrecision; font-family:sans-serif; stroke-linejoin:round; stroke-miterlimit:0;">
      <rect x="0" y="0" width="8" style="clip-path:url(#clipPath11); fill:none;" height="94" />
    </g>
    <g transform="translate(1316,345)" style="font-size:11; fill:rgb(122,207,245); text-rendering:geometricPrecision; font-family:sans-serif; stroke:rgb(122,207,245);">
      <rect x="0" y="0" width="8" style="clip-path:url(#clipPath9); stroke:none;" height="12" />
    </g>
    <g transform="translate(1316,345)" style="font-size:11; stroke-linecap:butt; text-rendering:geometricPrecision; font-family:sans-serif; stroke-linejoin:round; stroke-miterlimit:0;">
      <rect x="0" y="0" width="8" style="clip-path:url(#clipPath9); fill:none;" height="12" />
    </g>
    <g transform="translate(136,365)" style="font-size:11; fill:rgb(122,207,245); text-rendering:geometricPrecision; font-family:sans-serif; stroke:rgb(122,207,245);">
      <rect x="0" y="0" width="8" style="clip-path:url(#clipPath12); stroke:none;" height="270" />
    </g>
    <g transform="translate(136,365)" style="font-size:11; stroke-linecap:butt; text-rendering:geometricPrecision; font-family:sans-serif; stroke-linejoin:round; stroke-miterlimit:0;">
      <rect x="0" y="0" width="8" style="clip-path:url(#clipPath12); fill:none;" height="270" />
    </g>
    <g transform="translate(391,395)" style="font-size:11; fill:rgb(122,207,245); text-rendering:geometricPrecision; font-family:sans-serif; stroke:rgb(122,207,245);">
      <rect x="0" y="0" width="8" style="clip-path:url(#clipPath13); stroke:none;" height="182" />
    </g>
    <g transform="translate(391,395)" style="font-size:11; stroke-linecap:butt; text-rendering:geometricPrecision; font-family:sans-serif; stroke-linejoin:round; stroke-miterlimit:0;">
      <rect x="0" y="0" width="8" style="clip-path:url(#clipPath13); fill:none;" height="182" />
    </g>
    <g transform="translate(1316,615)" style="font-size:11; fill:rgb(122,207,245); text-rendering:geometricPrecision; font-family:sans-serif; stroke:rgb(122,207,245);">
      <rect x="0" y="0" width="8" style="clip-path:url(#clipPath9); stroke:none;" height="12" />
    </g>
    <g transform="translate(1316,615)" style="font-size:11; stroke-linecap:butt; text-rendering:geometricPrecision; font-family:sans-serif; stroke-linejoin:round; stroke-miterlimit:0;">
      <rect x="0" y="0" width="8" style="clip-path:url(#clipPath9); fill:none;" height="12" />
    </g>
    <g transform="translate(961,645)" style="font-size:11; fill:rgb(122,207,245); text-rendering:geometricPrecision; font-family:sans-serif; stroke:rgb(122,207,245);">
      <rect x="0" y="0" width="8" style="clip-path:url(#clipPath9); stroke:none;" height="12" />
    </g>
    <g transform="translate(961,645)" style="font-size:11; stroke-linecap:butt; text-rendering:geometricPrecision; font-family:sans-serif; stroke-linejoin:round; stroke-miterlimit:0;">
      <rect x="0" y="0" width="8" style="clip-path:url(#clipPath9); fill:none;" height="12" />
    </g>
    <g transform="translate(826,675)" style="font-size:11; fill:rgb(122,207,245); text-rendering:geometricPrecision; font-family:sans-serif; stroke:rgb(122,207,245);">
      <rect x="0" y="0" width="8" style="clip-path:url(#clipPath9); stroke:none;" height="12" />
    </g>
    <g transform="translate(826,675)" style="font-size:11; stroke-linecap:butt; text-rendering:geometricPrecision; font-family:sans-serif; stroke-linejoin:round; stroke-miterlimit:0;">
      <rect x="0" y="0" width="8" style="clip-path:url(#clipPath9); fill:none;" height="12" />
    </g>
    <g transform="translate(136,755)" style="font-size:11; fill:rgb(122,207,245); text-rendering:geometricPrecision; font-family:sans-serif; stroke:rgb(122,207,245);">
      <rect x="0" y="0" width="8" style="clip-path:url(#clipPath14); stroke:none;" height="54" />
    </g>
    <g transform="translate(136,755)" style="font-size:11; stroke-linecap:butt; text-rendering:geometricPrecision; font-family:sans-serif; stroke-linejoin:round; stroke-miterlimit:0;">
      <rect x="0" y="0" width="8" style="clip-path:url(#clipPath14); fill:none;" height="54" />
    </g>
    <g transform="translate(391,785)" style="font-size:11; fill:rgb(122,207,245); text-rendering:geometricPrecision; font-family:sans-serif; stroke:rgb(122,207,245);">
      <rect x="0" y="0" width="8" style="clip-path:url(#clipPath9); stroke:none;" height="12" />
    </g>
    <g transform="translate(391,785)" style="font-size:11; stroke-linecap:butt; text-rendering:geometricPrecision; font-family:sans-serif; stroke-linejoin:round; stroke-miterlimit:0;">
      <rect x="0" y="0" width="8" style="clip-path:url(#clipPath9); fill:none;" height="12" />
    </g>
    <g transform="translate(136,865)" style="font-size:11; fill:rgb(122,207,245); text-rendering:geometricPrecision; font-family:sans-serif; stroke:rgb(122,207,245);">
      <rect x="0" y="0" width="8" style="clip-path:url(#clipPath14); stroke:none;" height="54" />
    </g>
    <g transform="translate(136,865)" style="font-size:11; stroke-linecap:butt; text-rendering:geometricPrecision; font-family:sans-serif; stroke-linejoin:round; stroke-miterlimit:0;">
      <rect x="0" y="0" width="8" style="clip-path:url(#clipPath14); fill:none;" height="54" />
    </g>
    <g transform="translate(391,895)" style="font-size:11; fill:rgb(122,207,245); text-rendering:geometricPrecision; font-family:sans-serif; stroke:rgb(122,207,245);">
      <rect x="0" y="0" width="8" style="clip-path:url(#clipPath9); stroke:none;" height="12" />
    </g>
    <g transform="translate(391,895)" style="font-size:11; stroke-linecap:butt; text-rendering:geometricPrecision; font-family:sans-serif; stroke-linejoin:round; stroke-miterlimit:0;">
      <rect x="0" y="0" width="8" style="clip-path:url(#clipPath9); fill:none;" height="12" />
    </g>
    <g transform="translate(1316,725)" style="font-size:11; fill:rgb(122,207,245); text-rendering:geometricPrecision; font-family:sans-serif; stroke:rgb(122,207,245);">
      <rect x="0" y="0" width="8" style="clip-path:url(#clipPath15); stroke:none;" height="152" />
    </g>
    <g transform="translate(1316,725)" style="font-size:11; stroke-linecap:butt; text-rendering:geometricPrecision; font-family:sans-serif; stroke-linejoin:round; stroke-miterlimit:0;">
      <rect x="0" y="0" width="8" style="clip-path:url(#clipPath15); fill:none;" height="152" />
    </g>
    <g transform="translate(581,605)" style="font-size:11; fill:rgb(122,207,245); text-rendering:geometricPrecision; font-family:sans-serif; stroke:rgb(122,207,245);">
      <rect x="0" y="0" width="8" style="clip-path:url(#clipPath10); stroke:none;" height="80" />
    </g>
    <g transform="translate(581,605)" style="font-size:11; stroke-linecap:butt; text-rendering:geometricPrecision; font-family:sans-serif; stroke-linejoin:round; stroke-miterlimit:0;">
      <rect x="0" y="0" width="8" style="clip-path:url(#clipPath10); fill:none;" height="80" />
    </g>
    <g transform="translate(102,425)" style="font-size:11; stroke-linecap:butt; text-rendering:geometricPrecision; font-family:sans-serif; stroke-linejoin:round; font-weight:bold; stroke-miterlimit:0;">
      <rect x="0" y="0" width="334" style="clip-path:url(#clipPath16); fill:none;" height="143" />
    </g>
    <g transform="translate(102,425)" style="font-size:11; fill:white; text-rendering:geometricPrecision; font-family:sans-serif; stroke:white; font-weight:bold;">
      <path d="M25 0 L25 8 L19 16 L0 16 L0 0 Z" style="clip-path:url(#clipPath16); stroke:none;" />
    </g>
    <g transform="translate(102,425)" style="font-size:11; stroke-linecap:butt; text-rendering:geometricPrecision; font-family:sans-serif; stroke-linejoin:round; font-weight:bold; stroke-miterlimit:0;">
      <path d="M25 0 L25 8 L19 16 L0 16 L0 0 Z" style="fill:none; clip-path:url(#clipPath16);" />
    </g>
    <g transform="translate(102,425)" style="text-rendering:geometricPrecision; font-size:11; font-weight:bold; font-family:sans-serif;">
      <text x="4" y="11" style="clip-path:url(#clipPath17); stroke:none;" xml:space="preserve">alt</text>
    </g>
    <g transform="translate(102,442)" style="font-size:11; fill:white; text-rendering:geometricPrecision; font-family:sans-serif; stroke:white;">
      <rect x="28" y="5" width="176" style="clip-path:url(#clipPath18); stroke:none;" height="14" />
    </g>
    <g transform="translate(102,442)" style="font-size:11; stroke-linecap:butt; text-rendering:geometricPrecision; font-family:sans-serif; stroke-linejoin:bevel; stroke-dasharray:5,2; stroke-miterlimit:0;">
      <line x1="0" x2="333" y1="59" style="clip-path:url(#clipPath18); fill:none;" y2="59" />
    </g>
    <g style="text-rendering:geometricPrecision; font-size:11; font-family:sans-serif;" transform="translate(130,447)">
      <text x="10" y="11" style="clip-path:url(#clipPath19); stroke:none;" xml:space="preserve">[selection rectangle != null]</text>
    </g>
    <g style="text-rendering:geometricPrecision; font-size:11; font-family:sans-serif;" transform="translate(352,70)">
      <text x="5" y="11" style="clip-path:url(#clipPath22); stroke:none;" xml:space="preserve">ImageParams</text>
    </g>
    <g style="text-rendering:geometricPrecision; font-size:11; font-family:sans-serif;" transform="translate(16,70)">
      <text x="10" y="11" style="clip-path:url(#clipPath23); stroke:none;" xml:space="preserve">Actor</text>
    </g>
    <g style="text-rendering:geometricPrecision; font-size:11; font-family:sans-serif;" transform="translate(1240,35)">
      <text x="4" y="11" style="clip-path:url(#clipPath24); stroke:none;" xml:space="preserve">BackgroundPropertiesPane</text>
      <text x="78" y="25" style="clip-path:url(#clipPath24); stroke:none;" xml:space="preserve">l</text>
      <text x="55" y="39" style="clip-path:url(#clipPath24); stroke:none;" xml:space="preserve">&lt;&lt;UI&gt;&gt;</text>
    </g>
    <g style="text-rendering:geometricPrecision; font-size:11; font-family:sans-serif;" transform="translate(1060,35)">
      <text x="6" y="11" style="clip-path:url(#clipPath25); stroke:none;" xml:space="preserve">ImagePropertiesPane</text>
      <text x="63" y="25" style="clip-path:url(#clipPath25); stroke:none;" xml:space="preserve">l</text>
      <text x="40" y="39" style="clip-path:url(#clipPath25); stroke:none;" xml:space="preserve">&lt;&lt;UI&gt;&gt;</text>
    </g>
    <g style="text-rendering:geometricPrecision; font-size:11; font-family:sans-serif;" transform="translate(920,35)">
      <text x="6" y="11" style="clip-path:url(#clipPath26); stroke:none;" xml:space="preserve">SelectionPane</text>
      <text x="43" y="25" style="clip-path:url(#clipPath26); stroke:none;" xml:space="preserve">l</text>
      <text x="20" y="39" style="clip-path:url(#clipPath26); stroke:none;" xml:space="preserve">&lt;&lt;UI&gt;&gt;</text>
    </g>
    <g style="text-rendering:geometricPrecision; font-size:11; font-family:sans-serif;" transform="translate(790,35)">
      <text x="7" y="11" style="clip-path:url(#clipPath27); stroke:none;" xml:space="preserve">ImagePanel</text>
      <text x="15" y="25" style="clip-path:url(#clipPath27); stroke:none;" xml:space="preserve">&lt;&lt;UI&gt;&gt;</text>
    </g>
    <g style="text-rendering:geometricPrecision; font-size:11; font-family:sans-serif;" transform="translate(540,35)">
      <text x="4" y="11" style="clip-path:url(#clipPath28); stroke:none;" xml:space="preserve">ImageCropGUI</text>
      <text x="21" y="25" style="clip-path:url(#clipPath28); stroke:none;" xml:space="preserve">&lt;&lt;UI&gt;&gt;</text>
    </g>
    <g style="text-rendering:geometricPrecision; font-size:11; font-family:sans-serif;" transform="translate(85,70)">
      <text x="4" y="11" style="clip-path:url(#clipPath29); stroke:none;" xml:space="preserve">ImageCropControl</text>
    </g>
    <g transform="translate(94,175)" style="font-size:11; stroke-linecap:butt; text-rendering:geometricPrecision; font-family:sans-serif; stroke-linejoin:round;">
      <line x1="50" x2="487" y1="50" style="clip-path:url(#clipPath30); fill:none;" y2="50" />
      <polygon style="clip-path:url(#clipPath30); stroke:none;" points=" 487 50 475 44 475 56" />
      <polygon style="fill:none; clip-path:url(#clipPath30);" points=" 487 50 475 44 475 56" />
    </g>
    <g transform="translate(94,555)" style="font-size:11; stroke-linecap:butt; text-rendering:geometricPrecision; font-family:sans-serif; stroke-linejoin:round;">
      <line x1="50" x2="487" y1="50" style="clip-path:url(#clipPath30); fill:none;" y2="50" />
      <polygon style="clip-path:url(#clipPath30); stroke:none;" points=" 487 50 475 44 475 56" />
      <polygon style="fill:none; clip-path:url(#clipPath30);" points=" 487 50 475 44 475 56" />
    </g>
    <g transform="translate(539,245)" style="font-size:11; stroke-linecap:butt; text-rendering:geometricPrecision; font-family:sans-serif; stroke-linejoin:round;">
      <line x1="50" x2="287" y1="50" style="clip-path:url(#clipPath31); fill:none;" y2="50" />
      <polygon style="clip-path:url(#clipPath31); stroke:none;" points=" 287 50 275 44 275 56" />
      <polygon style="fill:none; clip-path:url(#clipPath31);" points=" 287 50 275 44 275 56" />
    </g>
    <g transform="translate(539,625)" style="font-size:11; stroke-linecap:butt; text-rendering:geometricPrecision; font-family:sans-serif; stroke-linejoin:round;">
      <line x1="50" x2="287" y1="50" style="clip-path:url(#clipPath31); fill:none;" y2="50" />
      <polygon style="clip-path:url(#clipPath31); stroke:none;" points=" 287 50 275 44 275 56" />
      <polygon style="fill:none; clip-path:url(#clipPath31);" points=" 287 50 275 44 275 56" />
    </g>
    <g transform="translate(94,315)" style="font-size:11; stroke-linecap:butt; text-rendering:geometricPrecision; font-family:sans-serif; stroke-linejoin:round;">
      <line x1="732" x2="50" y1="50" style="clip-path:url(#clipPath32); fill:none;" y2="50" />
      <polygon style="clip-path:url(#clipPath32); stroke:none;" points=" 50 50 62 56 62 44" />
      <polygon style="fill:none; clip-path:url(#clipPath32);" points=" 50 50 62 56 62 44" />
    </g>
    <g transform="translate(539,215)" style="font-size:11; stroke-linecap:butt; text-rendering:geometricPrecision; font-family:sans-serif; stroke-linejoin:round;">
      <line x1="50" x2="422" y1="50" style="clip-path:url(#clipPath33); fill:none;" y2="50" />
      <polygon style="clip-path:url(#clipPath33); stroke:none;" points=" 422 50 410 44 410 56" />
      <polygon style="fill:none; clip-path:url(#clipPath33);" points=" 422 50 410 44 410 56" />
    </g>
    <g transform="translate(539,595)" style="font-size:11; stroke-linecap:butt; text-rendering:geometricPrecision; font-family:sans-serif; stroke-linejoin:round;">
      <line x1="50" x2="422" y1="50" style="clip-path:url(#clipPath33); fill:none;" y2="50" />
      <polygon style="clip-path:url(#clipPath33); stroke:none;" points=" 422 50 410 44 410 56" />
      <polygon style="fill:none; clip-path:url(#clipPath33);" points=" 422 50 410 44 410 56" />
    </g>
    <g transform="translate(539,185)" style="font-size:11; stroke-linecap:butt; text-rendering:geometricPrecision; font-family:sans-serif; stroke-linejoin:round;">
      <line x1="50" x2="777" y1="50" style="clip-path:url(#clipPath34); fill:none;" y2="50" />
      <polygon style="clip-path:url(#clipPath34); stroke:none;" points=" 777 50 765 44 765 56" />
      <polygon style="fill:none; clip-path:url(#clipPath34);" points=" 777 50 765 44 765 56" />
    </g>
    <g transform="translate(784,295)" style="font-size:11; stroke-linecap:butt; text-rendering:geometricPrecision; font-family:sans-serif; stroke-linejoin:round;">
      <line x1="50" x2="532" y1="50" style="clip-path:url(#clipPath35); fill:none;" y2="50" />
      <polygon style="clip-path:url(#clipPath35); stroke:none;" points=" 532 50 520 44 520 56" />
      <polygon style="fill:none; clip-path:url(#clipPath35);" points=" 532 50 520 44 520 56" />
    </g>
    <g transform="translate(539,565)" style="font-size:11; stroke-linecap:butt; text-rendering:geometricPrecision; font-family:sans-serif; stroke-linejoin:round;">
      <line x1="50" x2="777" y1="50" style="clip-path:url(#clipPath34); fill:none;" y2="50" />
      <polygon style="clip-path:url(#clipPath34); stroke:none;" points=" 777 50 765 44 765 56" />
      <polygon style="fill:none; clip-path:url(#clipPath34);" points=" 777 50 765 44 765 56" />
    </g>
    <g transform="translate(94,115)" style="font-size:11; stroke-linecap:butt; text-rendering:geometricPrecision; font-family:sans-serif; stroke-linejoin:round;">
      <line x1="1222" x2="50" y1="50" style="clip-path:url(#clipPath36); fill:none;" y2="50" />
      <polygon style="clip-path:url(#clipPath36); stroke:none;" points=" 50 50 62 56 62 44" />
      <polygon style="fill:none; clip-path:url(#clipPath36);" points=" 50 50 62 56 62 44" />
    </g>
    <g transform="translate(94,705)" style="font-size:11; stroke-linecap:butt; text-rendering:geometricPrecision; font-family:sans-serif; stroke-linejoin:round;">
      <line x1="1222" x2="50" y1="50" style="clip-path:url(#clipPath36); fill:none;" y2="50" />
      <polygon style="clip-path:url(#clipPath36); stroke:none;" points=" 50 50 62 56 62 44" />
      <polygon style="fill:none; clip-path:url(#clipPath36);" points=" 50 50 62 56 62 44" />
    </g>
    <g transform="translate(94,815)" style="font-size:11; stroke-linecap:butt; text-rendering:geometricPrecision; font-family:sans-serif; stroke-linejoin:round;">
      <line x1="1222" x2="50" y1="50" style="clip-path:url(#clipPath36); fill:none;" y2="50" />
      <polygon style="clip-path:url(#clipPath36); stroke:none;" points=" 50 50 62 56 62 44" />
      <polygon style="fill:none; clip-path:url(#clipPath36);" points=" 50 50 62 56 62 44" />
    </g>
    <g transform="translate(-6,85)" style="font-size:11; stroke-linecap:butt; text-rendering:geometricPrecision; font-family:sans-serif; stroke-linejoin:round;">
      <line x1="50" x2="1322" y1="50" style="clip-path:url(#clipPath37); fill:none;" y2="50" />
      <polygon style="clip-path:url(#clipPath37); stroke:none;" points=" 1322 50 1310 44 1310 56" />
      <polygon style="fill:none; clip-path:url(#clipPath37);" points=" 1322 50 1310 44 1310 56" />
    </g>
    <g transform="translate(-6,275)" style="font-size:11; stroke-linecap:butt; text-rendering:geometricPrecision; font-family:sans-serif; stroke-linejoin:round;">
      <line x1="50" x2="832" y1="50" style="clip-path:url(#clipPath38); fill:none;" y2="50" />
      <polygon style="clip-path:url(#clipPath38); stroke:none;" points=" 832 50 820 44 820 56" />
      <polygon style="fill:none; clip-path:url(#clipPath38);" points=" 832 50 820 44 820 56" />
    </g>
    <g transform="translate(-6,675)" style="font-size:11; stroke-linecap:butt; text-rendering:geometricPrecision; font-family:sans-serif; stroke-linejoin:round;">
      <line x1="50" x2="1322" y1="50" style="clip-path:url(#clipPath37); fill:none;" y2="50" />
      <polygon style="clip-path:url(#clipPath37); stroke:none;" points=" 1322 50 1310 44 1310 56" />
      <polygon style="fill:none; clip-path:url(#clipPath37);" points=" 1322 50 1310 44 1310 56" />
    </g>
    <g transform="translate(-6,785)" style="font-size:11; stroke-linecap:butt; text-rendering:geometricPrecision; font-family:sans-serif; stroke-linejoin:round;">
      <line x1="50" x2="1322" y1="50" style="clip-path:url(#clipPath37); fill:none;" y2="50" />
      <polygon style="clip-path:url(#clipPath37); stroke:none;" points=" 1322 50 1310 44 1310 56" />
      <polygon style="fill:none; clip-path:url(#clipPath37);" points=" 1322 50 1310 44 1310 56" />
    </g>
    <g transform="translate(94,145)" style="font-size:11; stroke-linecap:butt; text-rendering:geometricPrecision; font-family:sans-serif; stroke-linejoin:round;">
      <line x1="50" x2="297" y1="50" style="clip-path:url(#clipPath39); fill:none;" y2="50" />
      <polygon style="clip-path:url(#clipPath39); stroke:none;" points=" 297 50 285 44 285 56" />
      <polygon style="fill:none; clip-path:url(#clipPath39);" points=" 297 50 285 44 285 56" />
    </g>
    <g transform="translate(94,345)" style="font-size:11; stroke-linecap:butt; text-rendering:geometricPrecision; font-family:sans-serif; stroke-linejoin:round;">
      <line x1="50" x2="297" y1="50" style="clip-path:url(#clipPath39); fill:none;" y2="50" />
      <polygon style="clip-path:url(#clipPath39); stroke:none;" points=" 297 50 285 44 285 56" />
      <polygon style="fill:none; clip-path:url(#clipPath39);" points=" 297 50 285 44 285 56" />
    </g>
    <g transform="translate(94,435)" style="font-size:11; stroke-linecap:butt; text-rendering:geometricPrecision; font-family:sans-serif; stroke-linejoin:round;">
      <line x1="50" x2="297" y1="50" style="clip-path:url(#clipPath39); fill:none;" y2="50" />
      <polygon style="clip-path:url(#clipPath39); stroke:none;" points=" 297 50 285 44 285 56" />
      <polygon style="fill:none; clip-path:url(#clipPath39);" points=" 297 50 285 44 285 56" />
    </g>
    <g transform="translate(94,735)" style="font-size:11; stroke-linecap:butt; text-rendering:geometricPrecision; font-family:sans-serif; stroke-linejoin:round;">
      <line x1="50" x2="297" y1="50" style="clip-path:url(#clipPath39); fill:none;" y2="50" />
      <polygon style="clip-path:url(#clipPath39); stroke:none;" points=" 297 50 285 44 285 56" />
      <polygon style="fill:none; clip-path:url(#clipPath39);" points=" 297 50 285 44 285 56" />
    </g>
    <g transform="translate(94,845)" style="font-size:11; stroke-linecap:butt; text-rendering:geometricPrecision; font-family:sans-serif; stroke-linejoin:round;">
      <line x1="50" x2="297" y1="50" style="clip-path:url(#clipPath39); fill:none;" y2="50" />
      <polygon style="clip-path:url(#clipPath39); stroke:none;" points=" 297 50 285 44 285 56" />
      <polygon style="fill:none; clip-path:url(#clipPath39);" points=" 297 50 285 44 285 56" />
    </g>
    <g transform="translate(94,495)" style="font-size:11; stroke-linecap:butt; text-rendering:geometricPrecision; font-family:sans-serif; stroke-linejoin:round;">
      <line x1="50" x2="297" y1="50" style="clip-path:url(#clipPath39); fill:none;" y2="50" />
      <polygon style="clip-path:url(#clipPath39); stroke:none;" points=" 297 50 285 44 285 56" />
      <polygon style="fill:none; clip-path:url(#clipPath39);" points=" 297 50 285 44 285 56" />
    </g>
    <g style="text-rendering:geometricPrecision; font-size:11; font-family:sans-serif;" transform="translate(170,525)">
      <text x="8" y="11" style="clip-path:url(#clipPath40); stroke:none;" xml:space="preserve">setState(StateSelectionDone)</text>
    </g>
    <g style="text-rendering:geometricPrecision; font-size:11; font-family:sans-serif;" transform="translate(170,895)">
      <text x="8" y="11" style="clip-path:url(#clipPath41); stroke:none;" xml:space="preserve">bgToleranceChanged(tolerance)</text>
    </g>
    <g style="text-rendering:geometricPrecision; font-size:11; font-family:sans-serif;" transform="translate(210,765)">
      <text x="8" y="11" style="clip-path:url(#clipPath42); stroke:none;" xml:space="preserve">setBgColor(color)</text>
    </g>
    <g style="text-rendering:geometricPrecision; font-size:11; font-family:sans-serif;" transform="translate(170,465)">
      <text x="7" y="11" style="clip-path:url(#clipPath41); stroke:none;" xml:space="preserve">setState(StateBackgroundColor)</text>
    </g>
    <g style="text-rendering:geometricPrecision; font-size:11; font-family:sans-serif;" transform="translate(210,375)">
      <text x="8" y="11" style="clip-path:url(#clipPath42); stroke:none;" xml:space="preserve">setBgColor(color)</text>
    </g>
    <g style="text-rendering:geometricPrecision; font-size:11; font-family:sans-serif;" transform="translate(140,175)">
      <text x="7" y="11" style="clip-path:url(#clipPath43); stroke:none;" xml:space="preserve">setState(StateSelectingBackgroundColor)</text>
    </g>
    <g style="text-rendering:geometricPrecision; font-size:11; font-family:sans-serif;" transform="translate(550,815)">
      <text x="6" y="11" style="clip-path:url(#clipPath44); stroke:none;" xml:space="preserve">change the bg tolerance using the spinner</text>
    </g>
    <g style="text-rendering:geometricPrecision; font-size:11; font-family:sans-serif;" transform="translate(470,705)">
      <text x="1" y="11" style="clip-path:url(#clipPath45); stroke:none;" xml:space="preserve">change the bg color red, green or blue components using the spinners</text>
    </g>
    <g style="text-rendering:geometricPrecision; font-size:11; font-family:sans-serif;" transform="translate(380,305)">
      <text x="9" y="11" style="clip-path:url(#clipPath46); stroke:none;" xml:space="preserve">pick the bg color</text>
    </g>
    <g style="text-rendering:geometricPrecision; font-size:11; font-family:sans-serif;" transform="translate(600,115)">
      <text x="6" y="11" style="clip-path:url(#clipPath47); stroke:none;" xml:space="preserve">select background color</text>
    </g>
    <g style="text-rendering:geometricPrecision; font-size:11; font-family:sans-serif;" transform="translate(490,845)">
      <text x="6" y="11" style="clip-path:url(#clipPath48); stroke:none;" xml:space="preserve">bgToleranceChanged(bgTolerance) through notification:BG_TOLERANCE_CHANGED</text>
    </g>
    <g style="text-rendering:geometricPrecision; font-size:11; font-family:sans-serif;" transform="translate(540,735)">
      <text x="6" y="11" style="clip-path:url(#clipPath49); stroke:none;" xml:space="preserve">bgColorChanged(color) through notification:BG_COLOR_SELECTED</text>
    </g>
    <g style="text-rendering:geometricPrecision; font-size:11; font-family:sans-serif;" transform="translate(520,145)">
      <text x="-3" y="11" style="clip-path:url(#clipPath50); stroke:none;" xml:space="preserve">toggleSelectBackgroundMode() through notification:TOGGLE_BG_SELECTION</text>
    </g>
    <g style="text-rendering:geometricPrecision; font-size:11; font-family:sans-serif;" transform="translate(830,595)">
      <text x="7" y="11" style="clip-path:url(#clipPath51); stroke:none;" xml:space="preserve">change the 'select bg color' button name</text>
    </g>
    <g style="text-rendering:geometricPrecision; font-size:11; font-family:sans-serif;" transform="translate(880,325)">
      <text x="6" y="11" style="clip-path:url(#clipPath52); stroke:none;" xml:space="preserve">setBackgroundColor(color) through notification:BG_COLOR_PICKED</text>
    </g>
    <g style="text-rendering:geometricPrecision; font-size:11; font-family:sans-serif;" transform="translate(830,215)">
      <text x="7" y="11" style="clip-path:url(#clipPath51); stroke:none;" xml:space="preserve">change the 'select bg color' button name</text>
    </g>
    <g style="text-rendering:geometricPrecision; font-size:11; font-family:sans-serif;" transform="translate(710,625)">
      <text x="9" y="11" style="clip-path:url(#clipPath53); stroke:none;" xml:space="preserve">setVisible(true)</text>
    </g>
    <g style="text-rendering:geometricPrecision; font-size:11; font-family:sans-serif;" transform="translate(710,245)">
      <text x="8" y="11" style="clip-path:url(#clipPath54); stroke:none;" xml:space="preserve">setVisible(false)</text>
    </g>
    <g style="text-rendering:geometricPrecision; font-size:11; font-family:sans-serif;" transform="translate(300,345)">
      <text x="7" y="11" style="clip-path:url(#clipPath55); stroke:none;" xml:space="preserve">bgColorPicked(color) through notification:BG_COLOR_PICKED</text>
    </g>
    <g style="text-rendering:geometricPrecision; font-size:11; font-family:sans-serif;" transform="translate(630,655)">
      <text x="8" y="11" style="clip-path:url(#clipPath56); stroke:none;" xml:space="preserve">exit 'pick bg color' mode</text>
    </g>
    <g style="text-rendering:geometricPrecision; font-size:11; font-family:sans-serif;" transform="translate(620,275)">
      <text x="8" y="11" style="clip-path:url(#clipPath57); stroke:none;" xml:space="preserve">enter 'pick bg color' mode</text>
    </g>
    <g style="text-rendering:geometricPrecision; font-size:11; font-family:sans-serif;" transform="translate(300,585)">
      <text x="8" y="11" style="clip-path:url(#clipPath58); stroke:none;" xml:space="preserve">setState(state)</text>
    </g>
    <g style="text-rendering:geometricPrecision; font-size:11; font-family:sans-serif;" transform="translate(300,205)">
      <text x="8" y="11" style="clip-path:url(#clipPath58); stroke:none;" xml:space="preserve">setState(state)</text>
    </g>
    <g style="fill:rgb(120,120,120); text-rendering:geometricPrecision; font-size:10; stroke:rgb(120,120,120);">
      <text xml:space="preserve" x="0" y="10" style="stroke:none;">Visual Paradigm for UML Community Edition [not for commercial use] </text>
    </g>
  </g>
</svg>
