<?xml version="1.0" encoding="UTF-8"?>

<!DOCTYPE svg PUBLIC '-//W3C//DTD SVG 1.0//EN' 'http://www.w3.org/TR/2001/REC-SVG-20010904/DTD/svg10.dtd'>
<svg style="fill-opacity:1; color-rendering:auto; color-interpolation:auto; stroke:black; text-rendering:auto; stroke-linecap:square; stroke-miterlimit:10; stroke-opacity:1; shape-rendering:auto; fill:black; stroke-dasharray:none; font-weight:normal; stroke-width:1; font-family:&apos;Dialog&apos;; font-style:normal; stroke-linejoin:miter; font-size:12; stroke-dashoffset:0; image-rendering:auto;" xmlns="http://www.w3.org/2000/svg" width="894" xmlns:xlink="http://www.w3.org/1999/xlink" height="279">
  <!--Generated by the Batik Graphics2D SVG Generator-->
  <defs id="genericDefs" />
  <g>
    <defs id="defs1">
      <clipPath clipPathUnits="userSpaceOnUse" id="clipPath1">
        <path d="M-3 -3 L97 -3 L97 237 L-3 237 L-3 -3 Z" />
      </clipPath>
      <clipPath clipPathUnits="userSpaceOnUse" id="clipPath2">
        <path d="M-3 -3 L87 -3 L87 237 L-3 237 L-3 -3 Z" />
      </clipPath>
      <clipPath clipPathUnits="userSpaceOnUse" id="clipPath3">
        <path d="M-3 -3 L137 -3 L137 237 L-3 237 L-3 -3 Z" />
      </clipPath>
      <clipPath clipPathUnits="userSpaceOnUse" id="clipPath4">
        <path d="M-3 -3 L15 -3 L15 137 L-3 137 L-3 -3 Z" />
      </clipPath>
      <clipPath clipPathUnits="userSpaceOnUse" id="clipPath5">
        <path d="M-3 -3 L15 -3 L15 21 L-3 21 L-3 -3 Z" />
      </clipPath>
      <clipPath clipPathUnits="userSpaceOnUse" id="clipPath6">
        <path d="M-3 -3 L15 -3 L15 92 L-3 92 L-3 -3 Z" />
      </clipPath>
      <clipPath clipPathUnits="userSpaceOnUse" id="clipPath7">
        <path d="M-3 -3 L27 -3 L27 27 L-3 27 L-3 -3 Z" />
      </clipPath>
      <clipPath clipPathUnits="userSpaceOnUse" id="clipPath8">
        <path d="M-272 -14 L544 -14 L544 28 L-272 28 L-272 -14 Z" />
      </clipPath>
      <clipPath clipPathUnits="userSpaceOnUse" id="clipPath9">
        <path d="M-130 -42 L260 -42 L260 84 L-130 84 L-130 -42 Z" />
      </clipPath>
      <clipPath clipPathUnits="userSpaceOnUse" id="clipPath10">
        <path d="M-90 -42 L180 -42 L180 84 L-90 84 L-90 -42 Z" />
      </clipPath>
      <clipPath clipPathUnits="userSpaceOnUse" id="clipPath11">
        <path d="M-80 -28 L160 -28 L160 56 L-80 56 L-80 -28 Z" />
      </clipPath>
      <clipPath clipPathUnits="userSpaceOnUse" id="clipPath12">
        <path d="M-90 -28 L180 -28 L180 56 L-90 56 L-90 -28 Z" />
      </clipPath>
      <clipPath clipPathUnits="userSpaceOnUse" id="clipPath13">
        <path d="M0 0 L406 0 L406 104 L0 104 L0 0 Z" />
      </clipPath>
      <clipPath clipPathUnits="userSpaceOnUse" id="clipPath14">
        <path d="M0 0 L566 0 L566 104 L0 104 L0 0 Z" />
      </clipPath>
      <clipPath clipPathUnits="userSpaceOnUse" id="clipPath15">
        <path d="M0 0 L365 0 L365 104 L0 104 L0 0 Z" />
      </clipPath>
      <clipPath clipPathUnits="userSpaceOnUse" id="clipPath16">
        <path d="M-190 -14 L380 -14 L380 28 L-190 28 L-190 -14 Z" />
      </clipPath>
      <clipPath clipPathUnits="userSpaceOnUse" id="clipPath17">
        <path d="M-96 -14 L192 -14 L192 28 L-96 28 L-96 -14 Z" />
      </clipPath>
      <clipPath clipPathUnits="userSpaceOnUse" id="clipPath18">
        <path d="M-165 -14 L330 -14 L330 28 L-165 28 L-165 -14 Z" />
      </clipPath>
    </defs>
    <g style="fill:white; text-rendering:geometricPrecision; stroke:white;">
      <rect x="0" y="0" width="894" style="stroke:none;" height="279" />
      <rect x="0" y="38" transform="translate(0,-38)" width="893" style="fill:none; stroke:black;" height="278" />
      <text x="7" y="54" transform="translate(0,-38)" style="fill:black; stroke:none; font-weight:bold;" xml:space="preserve">sd</text>
      <text x="31" y="54" transform="translate(0,-38)" style="fill:black; stroke:none;" xml:space="preserve">setSelectionRect(...)</text>
      <line transform="translate(0,-38)" x1="0" x2="159" y1="61" style="fill:none; stroke:black;" y2="61" />
      <line transform="translate(0,-38)" x1="165" x2="165" y1="38" style="fill:none; stroke:black;" y2="51" />
      <line transform="translate(0,-38)" x1="165" x2="159" y1="51" style="fill:none; stroke:black;" y2="61" />
    </g>
    <g transform="translate(300,35)" style="font-size:11; fill:rgb(122,207,245); text-rendering:geometricPrecision; font-family:sans-serif; stroke:rgb(122,207,245);">
      <rect x="0" y="0" width="89" style="clip-path:url(#clipPath1); stroke:none;" height="35" />
    </g>
    <g transform="translate(300,35)" style="font-size:11; stroke-linecap:butt; text-rendering:geometricPrecision; font-family:sans-serif; stroke-linejoin:round; stroke-miterlimit:0;">
      <rect x="0" y="0" width="89" style="clip-path:url(#clipPath1); fill:none;" height="35" />
      <line x1="44" x2="44" y1="35" style="clip-path:url(#clipPath1); fill:none; stroke-linejoin:bevel; stroke-dasharray:8,3;" y2="230" />
    </g>
    <g transform="translate(520,35)" style="font-size:11; fill:rgb(122,207,245); text-rendering:geometricPrecision; font-family:sans-serif; stroke:rgb(122,207,245);">
      <rect x="0" y="0" width="79" style="clip-path:url(#clipPath2); stroke:none;" height="35" />
    </g>
    <g transform="translate(520,35)" style="font-size:11; stroke-linecap:butt; text-rendering:geometricPrecision; font-family:sans-serif; stroke-linejoin:round; stroke-miterlimit:0;">
      <rect x="0" y="0" width="79" style="clip-path:url(#clipPath2); fill:none;" height="35" />
      <line x1="39" x2="39" y1="35" style="clip-path:url(#clipPath2); fill:none; stroke-linejoin:bevel; stroke-dasharray:8,3;" y2="230" />
    </g>
    <g transform="translate(610,35)" style="font-size:11; fill:rgb(122,207,245); text-rendering:geometricPrecision; font-family:sans-serif; stroke:rgb(122,207,245);">
      <rect x="0" y="0" width="89" style="clip-path:url(#clipPath1); stroke:none;" height="42" />
    </g>
    <g transform="translate(610,35)" style="font-size:11; stroke-linecap:butt; text-rendering:geometricPrecision; font-family:sans-serif; stroke-linejoin:round; stroke-miterlimit:0;">
      <rect x="0" y="0" width="89" style="clip-path:url(#clipPath1); fill:none;" height="42" />
      <line x1="44" x2="44" y1="35" style="clip-path:url(#clipPath1); fill:none; stroke-linejoin:bevel; stroke-dasharray:8,3;" y2="230" />
    </g>
    <g transform="translate(750,35)" style="font-size:11; fill:rgb(122,207,245); text-rendering:geometricPrecision; font-family:sans-serif; stroke:rgb(122,207,245);">
      <rect x="0" y="0" width="129" style="clip-path:url(#clipPath3); stroke:none;" height="42" />
    </g>
    <g transform="translate(750,35)" style="font-size:11; stroke-linecap:butt; text-rendering:geometricPrecision; font-family:sans-serif; stroke-linejoin:round; stroke-miterlimit:0;">
      <rect x="0" y="0" width="129" style="clip-path:url(#clipPath3); fill:none;" height="42" />
      <line x1="64" x2="64" y1="35" style="clip-path:url(#clipPath3); fill:none; stroke-linejoin:bevel; stroke-dasharray:8,3;" y2="230" />
    </g>
    <g transform="translate(341,112)" style="font-size:11; fill:rgb(122,207,245); text-rendering:geometricPrecision; font-family:sans-serif; stroke:rgb(122,207,245);">
      <rect x="0" y="0" width="8" style="clip-path:url(#clipPath4); stroke:none;" height="130" />
    </g>
    <g transform="translate(341,112)" style="font-size:11; stroke-linecap:butt; text-rendering:geometricPrecision; font-family:sans-serif; stroke-linejoin:round; stroke-miterlimit:0;">
      <rect x="0" y="0" width="8" style="clip-path:url(#clipPath4); fill:none;" height="130" />
    </g>
    <g transform="translate(811,205)" style="font-size:11; fill:rgb(122,207,245); text-rendering:geometricPrecision; font-family:sans-serif; stroke:rgb(122,207,245);">
      <rect x="0" y="0" width="8" style="clip-path:url(#clipPath5); stroke:none;" height="14" />
    </g>
    <g transform="translate(811,205)" style="font-size:11; stroke-linecap:butt; text-rendering:geometricPrecision; font-family:sans-serif; stroke-linejoin:round; stroke-miterlimit:0;">
      <rect x="0" y="0" width="8" style="clip-path:url(#clipPath5); fill:none;" height="14" />
    </g>
    <g transform="translate(651,145)" style="font-size:11; fill:rgb(122,207,245); text-rendering:geometricPrecision; font-family:sans-serif; stroke:rgb(122,207,245);">
      <rect x="0" y="0" width="8" style="clip-path:url(#clipPath6); stroke:none;" height="85" />
    </g>
    <g transform="translate(651,145)" style="font-size:11; stroke-linecap:butt; text-rendering:geometricPrecision; font-family:sans-serif; stroke-linejoin:round; stroke-miterlimit:0;">
      <rect x="0" y="0" width="8" style="clip-path:url(#clipPath6); fill:none;" height="85" />
    </g>
    <g transform="translate(70,115)" style="font-size:11; fill:silver; text-rendering:geometricPrecision; font-family:sans-serif; stroke:silver;">
      <rect x="0" y="0" width="19" style="clip-path:url(#clipPath7); fill:none;" height="19" />
    </g>
    <g style="text-rendering:geometricPrecision; font-size:11; font-family:sans-serif;" transform="translate(10,135)">
      <text x="8" y="11" style="clip-path:url(#clipPath8); stroke:none;" xml:space="preserve">setSelectionRect(selectionRectangle, repaint)</text>
    </g>
    <g style="text-rendering:geometricPrecision; font-size:11; font-family:sans-serif;" transform="translate(750,35)">
      <text x="6" y="11" style="clip-path:url(#clipPath9); stroke:none;" xml:space="preserve">ImagePropertiesPane</text>
      <text x="63" y="25" style="clip-path:url(#clipPath9); stroke:none;" xml:space="preserve">l</text>
      <text x="40" y="39" style="clip-path:url(#clipPath9); stroke:none;" xml:space="preserve">&lt;&lt;UI&gt;&gt;</text>
    </g>
    <g style="text-rendering:geometricPrecision; font-size:11; font-family:sans-serif;" transform="translate(610,35)">
      <text x="6" y="11" style="clip-path:url(#clipPath10); stroke:none;" xml:space="preserve">SelectionPane</text>
      <text x="43" y="25" style="clip-path:url(#clipPath10); stroke:none;" xml:space="preserve">l</text>
      <text x="20" y="39" style="clip-path:url(#clipPath10); stroke:none;" xml:space="preserve">&lt;&lt;UI&gt;&gt;</text>
    </g>
    <g style="text-rendering:geometricPrecision; font-size:11; font-family:sans-serif;" transform="translate(520,35)">
      <text x="7" y="11" style="clip-path:url(#clipPath11); stroke:none;" xml:space="preserve">ImagePanel</text>
      <text x="15" y="25" style="clip-path:url(#clipPath11); stroke:none;" xml:space="preserve">&lt;&lt;UI&gt;&gt;</text>
    </g>
    <g style="text-rendering:geometricPrecision; font-size:11; font-family:sans-serif;" transform="translate(300,35)">
      <text x="4" y="11" style="clip-path:url(#clipPath12); stroke:none;" xml:space="preserve">ImageCropGUI</text>
      <text x="21" y="25" style="clip-path:url(#clipPath12); stroke:none;" xml:space="preserve">&lt;&lt;UI&gt;&gt;</text>
    </g>
    <g transform="translate(299,95)" style="font-size:11; stroke-linecap:butt; text-rendering:geometricPrecision; font-family:sans-serif; stroke-linejoin:round;">
      <line x1="50" x2="352" y1="50" style="clip-path:url(#clipPath13); fill:none;" y2="50" />
      <polygon style="clip-path:url(#clipPath13); stroke:none;" points=" 352 50 340 44 340 56" />
      <polygon style="fill:none; clip-path:url(#clipPath13);" points=" 352 50 340 44 340 56" />
    </g>
    <g transform="translate(299,125)" style="font-size:11; stroke-linecap:butt; text-rendering:geometricPrecision; font-family:sans-serif; stroke-linejoin:round;">
      <line x1="50" x2="352" y1="50" style="clip-path:url(#clipPath13); fill:none;" y2="50" />
      <polygon style="clip-path:url(#clipPath13); stroke:none;" points=" 352 50 340 44 340 56" />
      <polygon style="fill:none; clip-path:url(#clipPath13);" points=" 352 50 340 44 340 56" />
    </g>
    <g transform="translate(299,155)" style="font-size:11; stroke-linecap:butt; text-rendering:geometricPrecision; font-family:sans-serif; stroke-linejoin:round;">
      <line x1="50" x2="512" y1="50" style="clip-path:url(#clipPath14); fill:none;" y2="50" />
      <polygon style="clip-path:url(#clipPath14); stroke:none;" points=" 512 50 500 44 500 56" />
      <polygon style="fill:none; clip-path:url(#clipPath14);" points=" 512 50 500 44 500 56" />
    </g>
    <g transform="translate(30,75)" style="font-size:11; stroke-linecap:butt; text-rendering:geometricPrecision; font-family:sans-serif; stroke-linejoin:round;">
      <line x1="50" x2="311" y1="50" style="clip-path:url(#clipPath15); fill:none;" y2="50" />
      <polygon style="clip-path:url(#clipPath15); stroke:none;" points=" 311 50 299 44 299 56" />
      <polygon style="fill:none; clip-path:url(#clipPath15);" points=" 311 50 299 44 299 56" />
    </g>
    <g style="text-rendering:geometricPrecision; font-size:11; font-family:sans-serif;" transform="translate(485,184)">
      <text x="3" y="11" style="clip-path:url(#clipPath16); stroke:none;" xml:space="preserve">setCropSize(selectionRectangle)</text>
    </g>
    <g style="text-rendering:geometricPrecision; font-size:11; font-family:sans-serif;" transform="translate(452,154)">
      <text x="7" y="11" style="clip-path:url(#clipPath17); stroke:none;" xml:space="preserve">repaintComp()</text>
    </g>
    <g style="text-rendering:geometricPrecision; font-size:11; font-family:sans-serif;" transform="translate(417,124)">
      <text x="4" y="11" style="clip-path:url(#clipPath18); stroke:none;" xml:space="preserve">setRect(selectionRectangle)</text>
    </g>
    <g style="fill:rgb(120,120,120); text-rendering:geometricPrecision; font-size:10; stroke:rgb(120,120,120);">
      <text xml:space="preserve" x="0" y="10" style="stroke:none;">Visual Paradigm for UML Community Edition [not for commercial use] </text>
    </g>
  </g>
</svg>
