<?xml version="1.0" encoding="UTF-8"?>

<!DOCTYPE svg PUBLIC '-//W3C//DTD SVG 1.0//EN' 'http://www.w3.org/TR/2001/REC-SVG-20010904/DTD/svg10.dtd'>
<svg style="fill-opacity:1; color-rendering:auto; color-interpolation:auto; stroke:black; text-rendering:auto; stroke-linecap:square; stroke-miterlimit:10; stroke-opacity:1; shape-rendering:auto; fill:black; stroke-dasharray:none; font-weight:normal; stroke-width:1; font-family:&apos;Dialog&apos;; font-style:normal; stroke-linejoin:miter; font-size:12; stroke-dashoffset:0; image-rendering:auto;" xmlns="http://www.w3.org/2000/svg" width="1056" xmlns:xlink="http://www.w3.org/1999/xlink" height="769">
  <!--Generated by the Batik Graphics2D SVG Generator-->
  <defs id="genericDefs" />
  <g>
    <defs id="defs1">
      <clipPath clipPathUnits="userSpaceOnUse" id="clipPath1">
        <path d="M-3 -3 L127 -3 L127 727 L-3 727 L-3 -3 Z" />
      </clipPath>
      <clipPath clipPathUnits="userSpaceOnUse" id="clipPath2">
        <path d="M-3 -3 L97 -3 L97 727 L-3 727 L-3 -3 Z" />
      </clipPath>
      <clipPath clipPathUnits="userSpaceOnUse" id="clipPath3">
        <path d="M-3 -3 L15 -3 L15 628 L-3 628 L-3 -3 Z" />
      </clipPath>
      <clipPath clipPathUnits="userSpaceOnUse" id="clipPath4">
        <path d="M-3 -3 L15 -3 L15 587 L-3 587 L-3 -3 Z" />
      </clipPath>
      <clipPath clipPathUnits="userSpaceOnUse" id="clipPath5">
        <path d="M-3 -3 L137 -3 L137 727 L-3 727 L-3 -3 Z" />
      </clipPath>
      <clipPath clipPathUnits="userSpaceOnUse" id="clipPath6">
        <path d="M-3 -3 L167 -3 L167 727 L-3 727 L-3 -3 Z" />
      </clipPath>
      <clipPath clipPathUnits="userSpaceOnUse" id="clipPath7">
        <path d="M-3 -3 L67 -3 L67 727 L-3 727 L-3 -3 Z" />
      </clipPath>
      <clipPath clipPathUnits="userSpaceOnUse" id="clipPath8">
        <path d="M-3 -3 L15 -3 L15 19 L-3 19 L-3 -3 Z" />
      </clipPath>
      <clipPath clipPathUnits="userSpaceOnUse" id="clipPath9">
        <path d="M-3 -3 L15 -3 L15 387 L-3 387 L-3 -3 Z" />
      </clipPath>
      <clipPath clipPathUnits="userSpaceOnUse" id="clipPath10">
        <path d="M-3 -3 L347 -3 L347 137 L-3 137 L-3 -3 Z" />
      </clipPath>
      <clipPath clipPathUnits="userSpaceOnUse" id="clipPath11">
        <path d="M0 0 L26 0 L26 17 L0 17 L0 0 Z" />
      </clipPath>
      <clipPath clipPathUnits="userSpaceOnUse" id="clipPath12">
        <path d="M-3 -3 L347 -3 L347 67 L-3 67 L-3 -3 Z" />
      </clipPath>
      <clipPath clipPathUnits="userSpaceOnUse" id="clipPath13">
        <path d="M0 0 L206 0 L206 14 L0 14 L0 0 Z" />
      </clipPath>
      <clipPath clipPathUnits="userSpaceOnUse" id="clipPath14">
        <path d="M0 0 L0 4 L340 4 L340 0 Z" />
      </clipPath>
      <clipPath clipPathUnits="userSpaceOnUse" id="clipPath15">
        <path d="M-3 -3 L347 -3 L347 60 L-3 60 L-3 -3 Z" />
      </clipPath>
      <clipPath clipPathUnits="userSpaceOnUse" id="clipPath16">
        <path d="M-3 -3 L167 -3 L167 57 L-3 57 L-3 -3 Z" />
      </clipPath>
      <clipPath clipPathUnits="userSpaceOnUse" id="clipPath17">
        <path d="M0 0 L28 0 L28 17 L0 17 L0 0 Z" />
      </clipPath>
      <clipPath clipPathUnits="userSpaceOnUse" id="clipPath18">
        <path d="M0 0 L160 0 L160 50 L0 50 L0 0 Z" />
      </clipPath>
      <clipPath clipPathUnits="userSpaceOnUse" id="clipPath19">
        <path d="M-3 -3 L27 -3 L27 27 L-3 27 L-3 -3 Z" />
      </clipPath>
      <clipPath clipPathUnits="userSpaceOnUse" id="clipPath20">
        <path d="M-214 -14 L428 -14 L428 28 L-214 28 L-214 -14 Z" />
      </clipPath>
      <clipPath clipPathUnits="userSpaceOnUse" id="clipPath21">
        <path d="M-86 -14 L172 -14 L172 28 L-86 28 L-86 -14 Z" />
      </clipPath>
      <clipPath clipPathUnits="userSpaceOnUse" id="clipPath22">
        <path d="M-49 -14 L98 -14 L98 28 L-49 28 L-49 -14 Z" />
      </clipPath>
      <clipPath clipPathUnits="userSpaceOnUse" id="clipPath23">
        <path d="M-160 -42 L320 -42 L320 84 L-160 84 L-160 -42 Z" />
      </clipPath>
      <clipPath clipPathUnits="userSpaceOnUse" id="clipPath24">
        <path d="M-130 -42 L260 -42 L260 84 L-130 84 L-130 -42 Z" />
      </clipPath>
      <clipPath clipPathUnits="userSpaceOnUse" id="clipPath25">
        <path d="M-90 -28 L180 -28 L180 56 L-90 56 L-90 -28 Z" />
      </clipPath>
      <clipPath clipPathUnits="userSpaceOnUse" id="clipPath26">
        <path d="M-110 -14 L220 -14 L220 28 L-110 28 L-110 -14 Z" />
      </clipPath>
      <clipPath clipPathUnits="userSpaceOnUse" id="clipPath27">
        <path d="M0 0 L511 0 L511 104 L0 104 L0 0 Z" />
      </clipPath>
      <clipPath clipPathUnits="userSpaceOnUse" id="clipPath28">
        <path d="M0 0 L130 0 L130 124 L0 124 L0 0 Z" />
      </clipPath>
      <clipPath clipPathUnits="userSpaceOnUse" id="clipPath29">
        <path d="M0 0 L341 0 L341 104 L0 104 L0 0 Z" />
      </clipPath>
      <clipPath clipPathUnits="userSpaceOnUse" id="clipPath30">
        <path d="M0 0 L496 0 L496 104 L0 104 L0 0 Z" />
      </clipPath>
      <clipPath clipPathUnits="userSpaceOnUse" id="clipPath31">
        <path d="M0 0 L631 0 L631 104 L0 104 L0 0 Z" />
      </clipPath>
      <clipPath clipPathUnits="userSpaceOnUse" id="clipPath32">
        <path d="M0 0 L381 0 L381 104 L0 104 L0 0 Z" />
      </clipPath>
      <clipPath clipPathUnits="userSpaceOnUse" id="clipPath33">
        <path d="M0 0 L210 0 L210 104 L0 104 L0 0 Z" />
      </clipPath>
      <clipPath clipPathUnits="userSpaceOnUse" id="clipPath34">
        <path d="M-92 -14 L184 -14 L184 28 L-92 28 L-92 -14 Z" />
      </clipPath>
      <clipPath clipPathUnits="userSpaceOnUse" id="clipPath35">
        <path d="M-179 -14 L358 -14 L358 28 L-179 28 L-179 -14 Z" />
      </clipPath>
      <clipPath clipPathUnits="userSpaceOnUse" id="clipPath36">
        <path d="M-174 -14 L348 -14 L348 28 L-174 28 L-174 -14 Z" />
      </clipPath>
      <clipPath clipPathUnits="userSpaceOnUse" id="clipPath37">
        <path d="M-159 -14 L318 -14 L318 28 L-159 28 L-159 -14 Z" />
      </clipPath>
      <clipPath clipPathUnits="userSpaceOnUse" id="clipPath38">
        <path d="M-162 -14 L324 -14 L324 28 L-162 28 L-162 -14 Z" />
      </clipPath>
      <clipPath clipPathUnits="userSpaceOnUse" id="clipPath39">
        <path d="M-234 -14 L468 -14 L468 28 L-234 28 L-234 -14 Z" />
      </clipPath>
      <clipPath clipPathUnits="userSpaceOnUse" id="clipPath40">
        <path d="M-167 -14 L334 -14 L334 28 L-167 28 L-167 -14 Z" />
      </clipPath>
      <clipPath clipPathUnits="userSpaceOnUse" id="clipPath41">
        <path d="M-246 -14 L492 -14 L492 28 L-246 28 L-246 -14 Z" />
      </clipPath>
      <clipPath clipPathUnits="userSpaceOnUse" id="clipPath42">
        <path d="M-183 -14 L366 -14 L366 28 L-183 28 L-183 -14 Z" />
      </clipPath>
      <clipPath clipPathUnits="userSpaceOnUse" id="clipPath43">
        <path d="M-131 -14 L262 -14 L262 28 L-131 28 L-131 -14 Z" />
      </clipPath>
      <clipPath clipPathUnits="userSpaceOnUse" id="clipPath44">
        <path d="M-178 -14 L356 -14 L356 28 L-178 28 L-178 -14 Z" />
      </clipPath>
      <clipPath clipPathUnits="userSpaceOnUse" id="clipPath45">
        <path d="M-137 -14 L274 -14 L274 28 L-137 28 L-137 -14 Z" />
      </clipPath>
      <clipPath clipPathUnits="userSpaceOnUse" id="clipPath46">
        <path d="M-156 -14 L312 -14 L312 28 L-156 28 L-156 -14 Z" />
      </clipPath>
      <clipPath clipPathUnits="userSpaceOnUse" id="clipPath47">
        <path d="M-37 -14 L74 -14 L74 28 L-37 28 L-37 -14 Z" />
      </clipPath>
      <clipPath clipPathUnits="userSpaceOnUse" id="clipPath48">
        <path d="M-144 -14 L288 -14 L288 28 L-144 28 L-144 -14 Z" />
      </clipPath>
      <clipPath clipPathUnits="userSpaceOnUse" id="clipPath49">
        <path d="M-322 -14 L644 -14 L644 28 L-322 28 L-322 -14 Z" />
      </clipPath>
    </defs>
    <g style="fill:white; text-rendering:geometricPrecision; stroke:white;">
      <rect x="0" y="0" width="1056" style="stroke:none;" height="769" />
      <rect x="18" y="38" transform="translate(-18,-38)" width="1055" style="fill:none; stroke:black;" height="768" />
      <text x="25" y="54" transform="translate(-18,-38)" style="fill:black; stroke:none; font-weight:bold;" xml:space="preserve">sd</text>
      <text x="49" y="54" transform="translate(-18,-38)" style="fill:black; stroke:none;" xml:space="preserve">load image</text>
      <line transform="translate(-18,-38)" x1="18" x2="118" y1="61" style="fill:none; stroke:black;" y2="61" />
      <line transform="translate(-18,-38)" x1="124" x2="124" y1="38" style="fill:none; stroke:black;" y2="51" />
      <line transform="translate(-18,-38)" x1="124" x2="118" y1="51" style="fill:none; stroke:black;" y2="61" />
    </g>
    <g transform="translate(102,35)" style="font-size:11; fill:rgb(122,207,245); text-rendering:geometricPrecision; font-family:sans-serif; stroke:rgb(122,207,245);">
      <circle style="clip-path:url(#clipPath1); stroke:none;" r="15.5" cx="59.5" cy="19.5" />
      <circle style="clip-path:url(#clipPath1); fill:none; stroke:black;" r="15.5" cx="59.5" cy="19.5" />
      <line x1="56" x2="64" y1="4" style="clip-path:url(#clipPath1); fill:none; stroke:black;" y2="0" />
      <line x1="56" x2="64" y1="4" style="clip-path:url(#clipPath1); fill:none; stroke:black;" y2="8" />
    </g>
    <g transform="translate(102,35)" style="font-size:11; stroke-linecap:butt; text-rendering:geometricPrecision; font-family:sans-serif; stroke-linejoin:bevel; stroke-dasharray:8,3; stroke-miterlimit:0;">
      <line x1="59" x2="59" y1="49" style="clip-path:url(#clipPath1); fill:none;" y2="720" />
    </g>
    <g transform="translate(532,35)" style="font-size:11; fill:rgb(122,207,245); text-rendering:geometricPrecision; font-family:sans-serif; stroke:rgb(122,207,245);">
      <rect x="0" y="0" width="89" style="clip-path:url(#clipPath2); stroke:none;" height="35" />
    </g>
    <g transform="translate(532,35)" style="font-size:11; stroke-linecap:butt; text-rendering:geometricPrecision; font-family:sans-serif; stroke-linejoin:round; stroke-miterlimit:0;">
      <rect x="0" y="0" width="89" style="clip-path:url(#clipPath2); fill:none;" height="35" />
      <line x1="44" x2="44" y1="35" style="clip-path:url(#clipPath2); fill:none; stroke-linejoin:bevel; stroke-dasharray:8,3;" y2="720" />
    </g>
    <g transform="translate(573,105)" style="font-size:11; fill:rgb(122,207,245); text-rendering:geometricPrecision; font-family:sans-serif; stroke:rgb(122,207,245);">
      <rect x="0" y="0" width="8" style="clip-path:url(#clipPath3); stroke:none;" height="621" />
    </g>
    <g transform="translate(573,105)" style="font-size:11; stroke-linecap:butt; text-rendering:geometricPrecision; font-family:sans-serif; stroke-linejoin:round; stroke-miterlimit:0;">
      <rect x="0" y="0" width="8" style="clip-path:url(#clipPath3); fill:none;" height="621" />
    </g>
    <g transform="translate(158,142)" style="font-size:11; fill:rgb(122,207,245); text-rendering:geometricPrecision; font-family:sans-serif; stroke:rgb(122,207,245);">
      <rect x="0" y="0" width="8" style="clip-path:url(#clipPath4); stroke:none;" height="580" />
    </g>
    <g transform="translate(158,142)" style="font-size:11; stroke-linecap:butt; text-rendering:geometricPrecision; font-family:sans-serif; stroke-linejoin:round; stroke-miterlimit:0;">
      <rect x="0" y="0" width="8" style="clip-path:url(#clipPath4); fill:none;" height="580" />
    </g>
    <g transform="translate(912,35)" style="font-size:11; fill:rgb(122,207,245); text-rendering:geometricPrecision; font-family:sans-serif; stroke:rgb(122,207,245);">
      <rect x="0" y="0" width="129" style="clip-path:url(#clipPath5); stroke:none;" height="42" />
    </g>
    <g transform="translate(912,35)" style="font-size:11; stroke-linecap:butt; text-rendering:geometricPrecision; font-family:sans-serif; stroke-linejoin:round; stroke-miterlimit:0;">
      <rect x="0" y="0" width="129" style="clip-path:url(#clipPath5); fill:none;" height="42" />
      <line x1="64" x2="64" y1="35" style="clip-path:url(#clipPath5); fill:none; stroke-linejoin:bevel; stroke-dasharray:8,3;" y2="720" />
    </g>
    <g transform="translate(742,35)" style="font-size:11; fill:rgb(122,207,245); text-rendering:geometricPrecision; font-family:sans-serif; stroke:rgb(122,207,245);">
      <rect x="0" y="0" width="159" style="clip-path:url(#clipPath6); stroke:none;" height="42" />
    </g>
    <g transform="translate(742,35)" style="font-size:11; stroke-linecap:butt; text-rendering:geometricPrecision; font-family:sans-serif; stroke-linejoin:round; stroke-miterlimit:0;">
      <rect x="0" y="0" width="159" style="clip-path:url(#clipPath6); fill:none;" height="42" />
      <line x1="79" x2="79" y1="35" style="clip-path:url(#clipPath6); fill:none; stroke-linejoin:bevel; stroke-dasharray:8,3;" y2="720" />
    </g>
    <g transform="translate(12,35)" style="font-size:11; fill:rgb(122,207,245); text-rendering:geometricPrecision; font-family:sans-serif; stroke:rgb(122,207,245);">
      <circle style="clip-path:url(#clipPath7); stroke:none;" r="5" cx="30" cy="5" />
      <rect x="26" y="49" width="8" style="clip-path:url(#clipPath7); stroke:none;" height="670" />
    </g>
    <g transform="translate(12,35)" style="font-size:11; stroke-linecap:butt; text-rendering:geometricPrecision; font-family:sans-serif; stroke-linejoin:round; stroke-miterlimit:0;">
      <circle style="fill:none; clip-path:url(#clipPath7);" r="5" cx="30" cy="5" />
      <rect x="26" y="49" width="8" style="clip-path:url(#clipPath7); fill:none;" height="670" />
      <line x1="30" x2="30" y1="10" style="clip-path:url(#clipPath7); fill:none;" y2="25" />
      <line x1="30" x2="21" y1="25" style="clip-path:url(#clipPath7); fill:none;" y2="36" />
      <line x1="30" x2="39" y1="25" style="clip-path:url(#clipPath7); fill:none;" y2="36" />
      <line x1="21" x2="39" y1="16" style="clip-path:url(#clipPath7); fill:none;" y2="16" />
    </g>
    <g transform="translate(818,625)" style="font-size:11; fill:rgb(122,207,245); text-rendering:geometricPrecision; font-family:sans-serif; stroke:rgb(122,207,245);">
      <rect x="0" y="0" width="8" style="clip-path:url(#clipPath8); stroke:none;" height="12" />
    </g>
    <g transform="translate(818,625)" style="font-size:11; stroke-linecap:butt; text-rendering:geometricPrecision; font-family:sans-serif; stroke-linejoin:round; stroke-miterlimit:0;">
      <rect x="0" y="0" width="8" style="clip-path:url(#clipPath8); fill:none;" height="12" />
    </g>
    <g transform="translate(818,655)" style="font-size:11; fill:rgb(122,207,245); text-rendering:geometricPrecision; font-family:sans-serif; stroke:rgb(122,207,245);">
      <rect x="0" y="0" width="8" style="clip-path:url(#clipPath8); stroke:none;" height="12" />
    </g>
    <g transform="translate(818,655)" style="font-size:11; stroke-linecap:butt; text-rendering:geometricPrecision; font-family:sans-serif; stroke-linejoin:round; stroke-miterlimit:0;">
      <rect x="0" y="0" width="8" style="clip-path:url(#clipPath8); fill:none;" height="12" />
    </g>
    <g transform="translate(973,685)" style="font-size:11; fill:rgb(122,207,245); text-rendering:geometricPrecision; font-family:sans-serif; stroke:rgb(122,207,245);">
      <rect x="0" y="0" width="8" style="clip-path:url(#clipPath8); stroke:none;" height="12" />
    </g>
    <g transform="translate(973,685)" style="font-size:11; stroke-linecap:butt; text-rendering:geometricPrecision; font-family:sans-serif; stroke-linejoin:round; stroke-miterlimit:0;">
      <rect x="0" y="0" width="8" style="clip-path:url(#clipPath8); fill:none;" height="12" />
    </g>
    <g transform="translate(973,715)" style="font-size:11; fill:rgb(122,207,245); text-rendering:geometricPrecision; font-family:sans-serif; stroke:rgb(122,207,245);">
      <rect x="0" y="0" width="8" style="clip-path:url(#clipPath8); stroke:none;" height="12" />
    </g>
    <g transform="translate(973,715)" style="font-size:11; stroke-linecap:butt; text-rendering:geometricPrecision; font-family:sans-serif; stroke-linejoin:round; stroke-miterlimit:0;">
      <rect x="0" y="0" width="8" style="clip-path:url(#clipPath8); fill:none;" height="12" />
    </g>
    <g transform="translate(402,35)" style="font-size:11; fill:rgb(122,207,245); text-rendering:geometricPrecision; font-family:sans-serif; stroke:rgb(122,207,245);">
      <circle style="clip-path:url(#clipPath2); stroke:none;" r="16.5" cx="44.5" cy="16.5" />
      <circle style="clip-path:url(#clipPath2); fill:none; stroke:black;" r="16.5" cx="44.5" cy="16.5" />
      <line x1="5" x2="84" y1="33" style="clip-path:url(#clipPath2); fill:none; stroke:black;" y2="33" />
    </g>
    <g transform="translate(402,35)" style="font-size:11; stroke-linecap:butt; text-rendering:geometricPrecision; font-family:sans-serif; stroke-linejoin:bevel; stroke-dasharray:8,3; stroke-miterlimit:0;">
      <line x1="44" x2="44" y1="49" style="clip-path:url(#clipPath2); fill:none;" y2="720" />
    </g>
    <g transform="translate(443,275)" style="font-size:11; fill:rgb(122,207,245); text-rendering:geometricPrecision; font-family:sans-serif; stroke:rgb(122,207,245);">
      <rect x="0" y="0" width="8" style="clip-path:url(#clipPath9); stroke:none;" height="380" />
    </g>
    <g transform="translate(443,275)" style="font-size:11; stroke-linecap:butt; text-rendering:geometricPrecision; font-family:sans-serif; stroke-linejoin:round; stroke-miterlimit:0;">
      <rect x="0" y="0" width="8" style="clip-path:url(#clipPath9); fill:none;" height="380" />
    </g>
    <g transform="translate(142,305)" style="font-size:11; stroke-linecap:butt; text-rendering:geometricPrecision; font-family:sans-serif; stroke-linejoin:round; font-weight:bold; stroke-miterlimit:0;">
      <rect x="0" y="0" width="340" style="clip-path:url(#clipPath10); fill:none;" height="130" />
    </g>
    <g transform="translate(142,305)" style="font-size:11; fill:white; text-rendering:geometricPrecision; font-family:sans-serif; stroke:white; font-weight:bold;">
      <path d="M25 0 L25 8 L19 16 L0 16 L0 0 Z" style="clip-path:url(#clipPath10); stroke:none;" />
    </g>
    <g transform="translate(142,305)" style="font-size:11; stroke-linecap:butt; text-rendering:geometricPrecision; font-family:sans-serif; stroke-linejoin:round; font-weight:bold; stroke-miterlimit:0;">
      <path d="M25 0 L25 8 L19 16 L0 16 L0 0 Z" style="fill:none; clip-path:url(#clipPath10);" />
    </g>
    <g transform="translate(142,305)" style="text-rendering:geometricPrecision; font-size:11; font-weight:bold; font-family:sans-serif;">
      <text x="4" y="11" style="clip-path:url(#clipPath11); stroke:none;" xml:space="preserve">alt</text>
    </g>
    <g transform="translate(142,322)" style="font-size:11; fill:white; text-rendering:geometricPrecision; font-family:sans-serif; stroke:white;">
      <rect x="28" y="5" width="206" style="clip-path:url(#clipPath12); stroke:none;" height="14" />
    </g>
    <g transform="translate(142,322)" style="font-size:11; stroke-linecap:butt; text-rendering:geometricPrecision; font-family:sans-serif; stroke-linejoin:bevel; stroke-dasharray:5,2; stroke-miterlimit:0;">
      <line x1="0" x2="339" y1="59" style="clip-path:url(#clipPath12); fill:none;" y2="59" />
    </g>
    <g style="text-rendering:geometricPrecision; font-size:11; font-family:sans-serif;" transform="translate(170,327)">
      <text x="10" y="11" style="clip-path:url(#clipPath13); stroke:none;" xml:space="preserve">[previous imageParams == null]</text>
    </g>
    <g transform="translate(272,525)" style="font-size:11; stroke-linecap:butt; text-rendering:geometricPrecision; font-family:sans-serif; stroke-linejoin:round; stroke-miterlimit:0;">
      <rect x="0" y="0" width="160" style="clip-path:url(#clipPath16); fill:none;" height="50" />
      <path d="M27 0 L27 8 L21 16 L0 16" style="fill:none; clip-path:url(#clipPath16);" />
    </g>
    <g transform="translate(272,525)" style="text-rendering:geometricPrecision; font-size:11; font-weight:bold; font-family:sans-serif;">
      <text x="5" y="11" style="clip-path:url(#clipPath17); stroke:none;" xml:space="preserve">ref</text>
    </g>
    <g transform="translate(262,535)" style="font-size:11; fill:silver; text-rendering:geometricPrecision; font-family:sans-serif; stroke:silver;">
      <rect x="0" y="0" width="19" style="clip-path:url(#clipPath19); fill:none;" height="19" />
    </g>
    <g style="text-rendering:geometricPrecision; font-size:11; font-family:sans-serif;" transform="translate(165,555)">
      <text x="7" y="11" style="clip-path:url(#clipPath20); stroke:none;" xml:space="preserve">setScaleFactor(image, scaleFactor)</text>
    </g>
    <g style="text-rendering:geometricPrecision; font-size:11; font-family:sans-serif;" transform="translate(404,70)">
      <text x="5" y="11" style="clip-path:url(#clipPath21); stroke:none;" xml:space="preserve">ImageParams</text>
    </g>
    <g style="text-rendering:geometricPrecision; font-size:11; font-family:sans-serif;" transform="translate(18,70)">
      <text x="10" y="11" style="clip-path:url(#clipPath22); stroke:none;" xml:space="preserve">Actor</text>
    </g>
    <g style="text-rendering:geometricPrecision; font-size:11; font-family:sans-serif;" transform="translate(742,35)">
      <text x="4" y="11" style="clip-path:url(#clipPath23); stroke:none;" xml:space="preserve">BackgroundPropertiesPane</text>
      <text x="78" y="25" style="clip-path:url(#clipPath23); stroke:none;" xml:space="preserve">l</text>
      <text x="55" y="39" style="clip-path:url(#clipPath23); stroke:none;" xml:space="preserve">&lt;&lt;UI&gt;&gt;</text>
    </g>
    <g style="text-rendering:geometricPrecision; font-size:11; font-family:sans-serif;" transform="translate(912,35)">
      <text x="6" y="11" style="clip-path:url(#clipPath24); stroke:none;" xml:space="preserve">ImagePropertiesPane</text>
      <text x="63" y="25" style="clip-path:url(#clipPath24); stroke:none;" xml:space="preserve">l</text>
      <text x="40" y="39" style="clip-path:url(#clipPath24); stroke:none;" xml:space="preserve">&lt;&lt;UI&gt;&gt;</text>
    </g>
    <g style="text-rendering:geometricPrecision; font-size:11; font-family:sans-serif;" transform="translate(532,35)">
      <text x="4" y="11" style="clip-path:url(#clipPath25); stroke:none;" xml:space="preserve">ImageCropGUI</text>
      <text x="21" y="25" style="clip-path:url(#clipPath25); stroke:none;" xml:space="preserve">&lt;&lt;UI&gt;&gt;</text>
    </g>
    <g style="text-rendering:geometricPrecision; font-size:11; font-family:sans-serif;" transform="translate(107,70)">
      <text x="4" y="11" style="clip-path:url(#clipPath26); stroke:none;" xml:space="preserve">ImageCropControl</text>
    </g>
    <g transform="translate(116,125)" style="font-size:11; stroke-linecap:butt; text-rendering:geometricPrecision; font-family:sans-serif; stroke-linejoin:round;">
      <line x1="457" x2="50" y1="50" style="clip-path:url(#clipPath27); fill:none;" y2="50" />
      <polygon style="clip-path:url(#clipPath27); stroke:none;" points=" 50 50 62 56 62 44" />
      <polygon style="fill:none; clip-path:url(#clipPath27);" points=" 50 50 62 56 62 44" />
    </g>
    <g transform="translate(116,155)" style="font-size:11; stroke-linecap:butt; text-rendering:geometricPrecision; font-family:sans-serif; stroke-linejoin:round;">
      <line x1="50" x2="457" y1="50" style="clip-path:url(#clipPath27); fill:none;" y2="50" />
      <polygon style="clip-path:url(#clipPath27); stroke:none;" points=" 457 50 445 44 445 56" />
      <polygon style="fill:none; clip-path:url(#clipPath27);" points=" 457 50 445 44 445 56" />
    </g>
    <g transform="translate(116,175)" style="font-size:11; stroke-linecap:butt; text-rendering:geometricPrecision; font-family:sans-serif; stroke-linejoin:round; stroke-dasharray:8,3; stroke-miterlimit:0;">
      <line x1="457" x2="50" y1="50" style="clip-path:url(#clipPath27); fill:none;" y2="50" />
      <line x1="50" x2="62" y1="50" style="clip-path:url(#clipPath27); fill:none; stroke-dasharray:none; stroke-miterlimit:10;" y2="56" />
      <line x1="50" x2="62" y1="50" style="clip-path:url(#clipPath27); fill:none; stroke-dasharray:none; stroke-miterlimit:10;" y2="44" />
    </g>
    <g transform="translate(116,215)" style="font-size:11; stroke-linecap:butt; text-rendering:geometricPrecision; font-family:sans-serif; stroke-linejoin:round;">
      <line x1="50" x2="76" y1="50" style="clip-path:url(#clipPath28); fill:none;" y2="50" />
      <line x1="76" x2="76" y1="50" style="clip-path:url(#clipPath28); fill:none;" y2="70" />
      <line x1="76" x2="50" y1="70" style="clip-path:url(#clipPath28); fill:none;" y2="70" />
      <polygon style="clip-path:url(#clipPath28); stroke:none;" points=" 50 70 62 76 62 64" />
      <polygon style="fill:none; clip-path:url(#clipPath28);" points=" 50 70 62 76 62 64" />
    </g>
    <g transform="translate(116,405)" style="font-size:11; stroke-linecap:butt; text-rendering:geometricPrecision; font-family:sans-serif; stroke-linejoin:round;">
      <line x1="50" x2="76" y1="50" style="clip-path:url(#clipPath28); fill:none;" y2="50" />
      <line x1="76" x2="76" y1="50" style="clip-path:url(#clipPath28); fill:none;" y2="70" />
      <line x1="76" x2="50" y1="70" style="clip-path:url(#clipPath28); fill:none;" y2="70" />
      <polygon style="clip-path:url(#clipPath28); stroke:none;" points=" 50 70 62 76 62 64" />
      <polygon style="fill:none; clip-path:url(#clipPath28);" points=" 50 70 62 76 62 64" />
    </g>
    <g transform="translate(116,455)" style="font-size:11; stroke-linecap:butt; text-rendering:geometricPrecision; font-family:sans-serif; stroke-linejoin:round;">
      <line x1="50" x2="457" y1="50" style="clip-path:url(#clipPath27); fill:none;" y2="50" />
      <polygon style="clip-path:url(#clipPath27); stroke:none;" points=" 457 50 445 44 445 56" />
      <polygon style="fill:none; clip-path:url(#clipPath27);" points=" 457 50 445 44 445 56" />
    </g>
    <g transform="translate(116,565)" style="font-size:11; stroke-linecap:butt; text-rendering:geometricPrecision; font-family:sans-serif; stroke-linejoin:round;">
      <line x1="50" x2="457" y1="50" style="clip-path:url(#clipPath27); fill:none;" y2="50" />
      <polygon style="clip-path:url(#clipPath27); stroke:none;" points=" 457 50 445 44 445 56" />
      <polygon style="fill:none; clip-path:url(#clipPath27);" points=" 457 50 445 44 445 56" />
    </g>
    <g transform="translate(116,595)" style="font-size:11; stroke-linecap:butt; text-rendering:geometricPrecision; font-family:sans-serif; stroke-linejoin:round;">
      <line x1="50" x2="457" y1="50" style="clip-path:url(#clipPath27); fill:none;" y2="50" />
      <polygon style="clip-path:url(#clipPath27); stroke:none;" points=" 457 50 445 44 445 56" />
      <polygon style="fill:none; clip-path:url(#clipPath27);" points=" 457 50 445 44 445 56" />
    </g>
    <g transform="translate(116,625)" style="font-size:11; stroke-linecap:butt; text-rendering:geometricPrecision; font-family:sans-serif; stroke-linejoin:round;">
      <line x1="50" x2="457" y1="50" style="clip-path:url(#clipPath27); fill:none;" y2="50" />
      <polygon style="clip-path:url(#clipPath27); stroke:none;" points=" 457 50 445 44 445 56" />
      <polygon style="fill:none; clip-path:url(#clipPath27);" points=" 457 50 445 44 445 56" />
    </g>
    <g transform="translate(116,655)" style="font-size:11; stroke-linecap:butt; text-rendering:geometricPrecision; font-family:sans-serif; stroke-linejoin:round;">
      <line x1="50" x2="457" y1="50" style="clip-path:url(#clipPath27); fill:none;" y2="50" />
      <polygon style="clip-path:url(#clipPath27); stroke:none;" points=" 457 50 445 44 445 56" />
      <polygon style="fill:none; clip-path:url(#clipPath27);" points=" 457 50 445 44 445 56" />
    </g>
    <g transform="translate(116,185)" style="font-size:11; stroke-linecap:butt; text-rendering:geometricPrecision; font-family:sans-serif; stroke-linejoin:round;">
      <line x1="50" x2="76" y1="50" style="clip-path:url(#clipPath28); fill:none;" y2="50" />
      <line x1="76" x2="76" y1="50" style="clip-path:url(#clipPath28); fill:none;" y2="70" />
      <line x1="76" x2="50" y1="70" style="clip-path:url(#clipPath28); fill:none;" y2="70" />
      <polygon style="clip-path:url(#clipPath28); stroke:none;" points=" 50 70 62 76 62 64" />
      <polygon style="fill:none; clip-path:url(#clipPath28);" points=" 50 70 62 76 62 64" />
    </g>
    <g transform="translate(531,575)" style="font-size:11; stroke-linecap:butt; text-rendering:geometricPrecision; font-family:sans-serif; stroke-linejoin:round;">
      <line x1="50" x2="287" y1="50" style="clip-path:url(#clipPath29); fill:none;" y2="50" />
      <polygon style="clip-path:url(#clipPath29); stroke:none;" points=" 287 50 275 44 275 56" />
      <polygon style="fill:none; clip-path:url(#clipPath29);" points=" 287 50 275 44 275 56" />
    </g>
    <g transform="translate(531,605)" style="font-size:11; stroke-linecap:butt; text-rendering:geometricPrecision; font-family:sans-serif; stroke-linejoin:round;">
      <line x1="50" x2="287" y1="50" style="clip-path:url(#clipPath29); fill:none;" y2="50" />
      <polygon style="clip-path:url(#clipPath29); stroke:none;" points=" 287 50 275 44 275 56" />
      <polygon style="fill:none; clip-path:url(#clipPath29);" points=" 287 50 275 44 275 56" />
    </g>
    <g transform="translate(531,635)" style="font-size:11; stroke-linecap:butt; text-rendering:geometricPrecision; font-family:sans-serif; stroke-linejoin:round;">
      <line x1="50" x2="442" y1="50" style="clip-path:url(#clipPath30); fill:none;" y2="50" />
      <polygon style="clip-path:url(#clipPath30); stroke:none;" points=" 442 50 430 44 430 56" />
      <polygon style="fill:none; clip-path:url(#clipPath30);" points=" 442 50 430 44 430 56" />
    </g>
    <g transform="translate(531,665)" style="font-size:11; stroke-linecap:butt; text-rendering:geometricPrecision; font-family:sans-serif; stroke-linejoin:round;">
      <line x1="50" x2="442" y1="50" style="clip-path:url(#clipPath30); fill:none;" y2="50" />
      <polygon style="clip-path:url(#clipPath30); stroke:none;" points=" 442 50 430 44 430 56" />
      <polygon style="fill:none; clip-path:url(#clipPath30);" points=" 442 50 430 44 430 56" />
    </g>
    <g transform="translate(-4,75)" style="font-size:11; stroke-linecap:butt; text-rendering:geometricPrecision; font-family:sans-serif; stroke-linejoin:round;">
      <line x1="50" x2="577" y1="50" style="clip-path:url(#clipPath31); fill:none;" y2="50" />
      <polygon style="clip-path:url(#clipPath31); stroke:none;" points=" 577 50 565 44 565 56" />
      <polygon style="fill:none; clip-path:url(#clipPath31);" points=" 577 50 565 44 565 56" />
    </g>
    <g transform="translate(116,365)" style="font-size:11; stroke-linecap:butt; text-rendering:geometricPrecision; font-family:sans-serif; stroke-linejoin:round;">
      <line x1="50" x2="327" y1="50" style="clip-path:url(#clipPath32); fill:none;" y2="50" />
      <polygon style="clip-path:url(#clipPath32); stroke:none;" points=" 327 50 315 44 315 56" />
      <polygon style="fill:none; clip-path:url(#clipPath32);" points=" 327 50 315 44 315 56" />
    </g>
    <g transform="translate(116,315)" style="font-size:11; stroke-linecap:butt; text-rendering:geometricPrecision; font-family:sans-serif; stroke-linejoin:round;">
      <line x1="50" x2="327" y1="50" style="clip-path:url(#clipPath32); fill:none;" y2="50" />
      <polygon style="clip-path:url(#clipPath32); stroke:none;" points=" 327 50 315 44 315 56" />
      <polygon style="fill:none; clip-path:url(#clipPath32);" points=" 327 50 315 44 315 56" />
    </g>
    <g transform="translate(116,495)" style="font-size:11; stroke-linecap:butt; text-rendering:geometricPrecision; font-family:sans-serif; stroke-linejoin:round;">
      <line x1="50" x2="156" y1="50" style="clip-path:url(#clipPath33); fill:none;" y2="50" />
      <polygon style="fill:rgb(122,207,245); clip-path:url(#clipPath33); stroke:none;" points=" 156 50 144 44 144 56" />
      <polygon style="fill:none; clip-path:url(#clipPath33);" points=" 156 50 144 44 144 56" />
    </g>
    <g style="text-rendering:geometricPrecision; font-size:11; font-family:sans-serif;" transform="translate(262,345)">
      <text x="10" y="11" style="clip-path:url(#clipPath34); stroke:none;" xml:space="preserve">&lt;&lt;create&gt;&gt;</text>
    </g>
    <g style="text-rendering:geometricPrecision; font-size:11; font-family:sans-serif;" transform="translate(232,395)">
      <text x="6" y="11" style="clip-path:url(#clipPath35); stroke:none;" xml:space="preserve">clone previous imageParams</text>
    </g>
    <g style="text-rendering:geometricPrecision; font-size:11; font-family:sans-serif;" transform="translate(217,105)">
      <text x="5" y="11" style="clip-path:url(#clipPath36); stroke:none;" xml:space="preserve">click the "load image" butotn</text>
    </g>
    <g style="text-rendering:geometricPrecision; font-size:11; font-family:sans-serif;" transform="translate(692,695)">
      <text x="8" y="11" style="clip-path:url(#clipPath37); stroke:none;" xml:space="preserve">setImageSize(imageSize)</text>
    </g>
    <g style="text-rendering:geometricPrecision; font-size:11; font-family:sans-serif;" transform="translate(692,665)">
      <text x="9" y="11" style="clip-path:url(#clipPath38); stroke:none;" xml:space="preserve">setImageName(fileName)</text>
    </g>
    <g style="text-rendering:geometricPrecision; font-size:11; font-family:sans-serif;" transform="translate(577,635)">
      <text x="7" y="11" style="clip-path:url(#clipPath39); stroke:none;" xml:space="preserve">setBackgroundTolerance(bgTolerance)</text>
    </g>
    <g style="text-rendering:geometricPrecision; font-size:11; font-family:sans-serif;" transform="translate(617,605)">
      <text x="8" y="11" style="clip-path:url(#clipPath40); stroke:none;" xml:space="preserve">setBackgroundColor(color)</text>
    </g>
    <g style="text-rendering:geometricPrecision; font-size:11; font-family:sans-serif;" transform="translate(192,235)">
      <text x="7" y="11" style="clip-path:url(#clipPath41); stroke:none;" xml:space="preserve">image = loadImage(file) : BufferedImage</text>
    </g>
    <g style="text-rendering:geometricPrecision; font-size:11; font-family:sans-serif;" transform="translate(287,685)">
      <text x="8" y="11" style="clip-path:url(#clipPath37); stroke:none;" xml:space="preserve">setImageSize(imageSize)</text>
    </g>
    <g style="text-rendering:geometricPrecision; font-size:11; font-family:sans-serif;" transform="translate(287,655)">
      <text x="9" y="11" style="clip-path:url(#clipPath38); stroke:none;" xml:space="preserve">setImageName(fileName)</text>
    </g>
    <g style="text-rendering:geometricPrecision; font-size:11; font-family:sans-serif;" transform="translate(277,625)">
      <text x="8" y="11" style="clip-path:url(#clipPath42); stroke:none;" xml:space="preserve">setBgTolerance(bgTolerance)</text>
    </g>
    <g style="text-rendering:geometricPrecision; font-size:11; font-family:sans-serif;" transform="translate(307,595)">
      <text x="8" y="11" style="clip-path:url(#clipPath43); stroke:none;" xml:space="preserve">setBgColor(bgColor)</text>
    </g>
    <g style="text-rendering:geometricPrecision; font-size:11; font-family:sans-serif;" transform="translate(277,485)">
      <text x="8" y="11" style="clip-path:url(#clipPath44); stroke:none;" xml:space="preserve">setState(StateImageLoaded)</text>
    </g>
    <g style="text-rendering:geometricPrecision; font-size:11; font-family:sans-serif;" transform="translate(192,455)">
      <text x="9" y="11" style="clip-path:url(#clipPath45); stroke:none;" xml:space="preserve">setScaleFactorToFit()</text>
    </g>
    <g style="text-rendering:geometricPrecision; font-size:11; font-family:sans-serif;" transform="translate(192,265)">
      <text x="8" y="11" style="clip-path:url(#clipPath46); stroke:none;" xml:space="preserve">clearParamImageStack()</text>
    </g>
    <g style="text-rendering:geometricPrecision; font-size:11; font-family:sans-serif;" transform="translate(347,205)">
      <text x="10" y="11" style="clip-path:url(#clipPath47); stroke:none;" xml:space="preserve">file</text>
    </g>
    <g style="text-rendering:geometricPrecision; font-size:11; font-family:sans-serif;" transform="translate(297,185)">
      <text x="6" y="11" style="clip-path:url(#clipPath48); stroke:none;" xml:space="preserve">showLoadDialog() : File</text>
    </g>
    <g style="text-rendering:geometricPrecision; font-size:11; font-family:sans-serif;" transform="translate(207,155)">
      <text x="3" y="11" style="clip-path:url(#clipPath49); stroke:none;" xml:space="preserve">selectImage() through notification:LOAD_IMAGE_ACTION</text>
    </g>
    <g style="fill:rgb(120,120,120); text-rendering:geometricPrecision; font-size:10; stroke:rgb(120,120,120);">
      <text xml:space="preserve" x="0" y="10" style="stroke:none;">Visual Paradigm for UML Community Edition [not for commercial use] </text>
    </g>
  </g>
</svg>
