<?xml version="1.0" encoding="UTF-8"?>

<!DOCTYPE svg PUBLIC '-//W3C//DTD SVG 1.0//EN' 'http://www.w3.org/TR/2001/REC-SVG-20010904/DTD/svg10.dtd'>
<svg style="fill-opacity:1; color-rendering:auto; color-interpolation:auto; stroke:black; text-rendering:auto; stroke-linecap:square; stroke-miterlimit:10; stroke-opacity:1; shape-rendering:auto; fill:black; stroke-dasharray:none; font-weight:normal; stroke-width:1; font-family:&apos;Dialog&apos;; font-style:normal; stroke-linejoin:miter; font-size:12; stroke-dashoffset:0; image-rendering:auto;" xmlns="http://www.w3.org/2000/svg" width="924" xmlns:xlink="http://www.w3.org/1999/xlink" height="769">
  <!--Generated by the Batik Graphics2D SVG Generator-->
  <defs id="genericDefs" />
  <g>
    <defs id="defs1">
      <clipPath clipPathUnits="userSpaceOnUse" id="clipPath1">
        <path d="M-3 -3 L127 -3 L127 727 L-3 727 L-3 -3 Z" />
      </clipPath>
      <clipPath clipPathUnits="userSpaceOnUse" id="clipPath2">
        <path d="M-3 -3 L97 -3 L97 727 L-3 727 L-3 -3 Z" />
      </clipPath>
      <clipPath clipPathUnits="userSpaceOnUse" id="clipPath3">
        <path d="M-3 -3 L137 -3 L137 727 L-3 727 L-3 -3 Z" />
      </clipPath>
      <clipPath clipPathUnits="userSpaceOnUse" id="clipPath4">
        <path d="M-3 -3 L15 -3 L15 211 L-3 211 L-3 -3 Z" />
      </clipPath>
      <clipPath clipPathUnits="userSpaceOnUse" id="clipPath5">
        <path d="M-3 -3 L15 -3 L15 19 L-3 19 L-3 -3 Z" />
      </clipPath>
      <clipPath clipPathUnits="userSpaceOnUse" id="clipPath6">
        <path d="M-3 -3 L15 -3 L15 488 L-3 488 L-3 -3 Z" />
      </clipPath>
      <clipPath clipPathUnits="userSpaceOnUse" id="clipPath7">
        <path d="M-3 -3 L15 -3 L15 270 L-3 270 L-3 -3 Z" />
      </clipPath>
      <clipPath clipPathUnits="userSpaceOnUse" id="clipPath8">
        <path d="M-3 -3 L15 -3 L15 39 L-3 39 L-3 -3 Z" />
      </clipPath>
      <clipPath clipPathUnits="userSpaceOnUse" id="clipPath9">
        <path d="M-3 -3 L15 -3 L15 78 L-3 78 L-3 -3 Z" />
      </clipPath>
      <clipPath clipPathUnits="userSpaceOnUse" id="clipPath10">
        <path d="M-3 -3 L357 -3 L357 147 L-3 147 L-3 -3 Z" />
      </clipPath>
      <clipPath clipPathUnits="userSpaceOnUse" id="clipPath11">
        <path d="M0 0 L31 0 L31 17 L0 17 L0 0 Z" />
      </clipPath>
      <clipPath clipPathUnits="userSpaceOnUse" id="clipPath12">
        <path d="M-3 -3 L357 -3 L357 130 L-3 130 L-3 -3 Z" />
      </clipPath>
      <clipPath clipPathUnits="userSpaceOnUse" id="clipPath13">
        <path d="M0 0 L198 0 L198 14 L0 14 L0 0 Z" />
      </clipPath>
      <clipPath clipPathUnits="userSpaceOnUse" id="clipPath14">
        <path d="M0 0 L0 4 L350 4 L350 0 Z" />
      </clipPath>
      <clipPath clipPathUnits="userSpaceOnUse" id="clipPath15">
        <path d="M-3 -3 L147 -3 L147 57 L-3 57 L-3 -3 Z" />
      </clipPath>
      <clipPath clipPathUnits="userSpaceOnUse" id="clipPath16">
        <path d="M0 0 L28 0 L28 17 L0 17 L0 0 Z" />
      </clipPath>
      <clipPath clipPathUnits="userSpaceOnUse" id="clipPath17">
        <path d="M0 0 L140 0 L140 50 L0 50 L0 0 Z" />
      </clipPath>
      <clipPath clipPathUnits="userSpaceOnUse" id="clipPath18">
        <path d="M-3 -3 L157 -3 L157 57 L-3 57 L-3 -3 Z" />
      </clipPath>
      <clipPath clipPathUnits="userSpaceOnUse" id="clipPath19">
        <path d="M0 0 L150 0 L150 50 L0 50 L0 0 Z" />
      </clipPath>
      <clipPath clipPathUnits="userSpaceOnUse" id="clipPath20">
        <path d="M-3 -3 L27 -3 L27 27 L-3 27 L-3 -3 Z" />
      </clipPath>
      <clipPath clipPathUnits="userSpaceOnUse" id="clipPath21">
        <path d="M-118 -14 L236 -14 L236 28 L-118 28 L-118 -14 Z" />
      </clipPath>
      <clipPath clipPathUnits="userSpaceOnUse" id="clipPath22">
        <path d="M-191 -14 L382 -14 L382 28 L-191 28 L-191 -14 Z" />
      </clipPath>
      <clipPath clipPathUnits="userSpaceOnUse" id="clipPath23">
        <path d="M-202 -14 L404 -14 L404 28 L-202 28 L-202 -14 Z" />
      </clipPath>
      <clipPath clipPathUnits="userSpaceOnUse" id="clipPath24">
        <path d="M-86 -14 L172 -14 L172 28 L-86 28 L-86 -14 Z" />
      </clipPath>
      <clipPath clipPathUnits="userSpaceOnUse" id="clipPath25">
        <path d="M-130 -42 L260 -42 L260 84 L-130 84 L-130 -42 Z" />
      </clipPath>
      <clipPath clipPathUnits="userSpaceOnUse" id="clipPath26">
        <path d="M-90 -28 L180 -28 L180 56 L-90 56 L-90 -28 Z" />
      </clipPath>
      <clipPath clipPathUnits="userSpaceOnUse" id="clipPath27">
        <path d="M-110 -14 L220 -14 L220 28 L-110 28 L-110 -14 Z" />
      </clipPath>
      <clipPath clipPathUnits="userSpaceOnUse" id="clipPath28">
        <path d="M0 0 L130 0 L130 124 L0 124 L0 0 Z" />
      </clipPath>
      <clipPath clipPathUnits="userSpaceOnUse" id="clipPath29">
        <path d="M0 0 L521 0 L521 104 L0 104 L0 0 Z" />
      </clipPath>
      <clipPath clipPathUnits="userSpaceOnUse" id="clipPath30">
        <path d="M0 0 L296 0 L296 104 L0 104 L0 0 Z" />
      </clipPath>
      <clipPath clipPathUnits="userSpaceOnUse" id="clipPath31">
        <path d="M0 0 L391 0 L391 104 L0 104 L0 0 Z" />
      </clipPath>
      <clipPath clipPathUnits="userSpaceOnUse" id="clipPath32">
        <path d="M0 0 L440 0 L440 104 L0 104 L0 0 Z" />
      </clipPath>
      <clipPath clipPathUnits="userSpaceOnUse" id="clipPath33">
        <path d="M0 0 L450 0 L450 104 L0 104 L0 0 Z" />
      </clipPath>
      <clipPath clipPathUnits="userSpaceOnUse" id="clipPath34">
        <path d="M0 0 L250 0 L250 104 L0 104 L0 0 Z" />
      </clipPath>
      <clipPath clipPathUnits="userSpaceOnUse" id="clipPath35">
        <path d="M-222 -14 L444 -14 L444 28 L-222 28 L-222 -14 Z" />
      </clipPath>
      <clipPath clipPathUnits="userSpaceOnUse" id="clipPath36">
        <path d="M-214 -14 L428 -14 L428 28 L-214 28 L-214 -14 Z" />
      </clipPath>
      <clipPath clipPathUnits="userSpaceOnUse" id="clipPath37">
        <path d="M-91 -14 L182 -14 L182 28 L-91 28 L-91 -14 Z" />
      </clipPath>
      <clipPath clipPathUnits="userSpaceOnUse" id="clipPath38">
        <path d="M-68 -14 L136 -14 L136 28 L-68 28 L-68 -14 Z" />
      </clipPath>
      <clipPath clipPathUnits="userSpaceOnUse" id="clipPath39">
        <path d="M-134 -14 L268 -14 L268 28 L-134 28 L-134 -14 Z" />
      </clipPath>
      <clipPath clipPathUnits="userSpaceOnUse" id="clipPath40">
        <path d="M-167 -14 L334 -14 L334 28 L-167 28 L-167 -14 Z" />
      </clipPath>
      <clipPath clipPathUnits="userSpaceOnUse" id="clipPath41">
        <path d="M-117 -14 L234 -14 L234 28 L-117 28 L-117 -14 Z" />
      </clipPath>
      <clipPath clipPathUnits="userSpaceOnUse" id="clipPath42">
        <path d="M-56 -14 L112 -14 L112 28 L-56 28 L-56 -14 Z" />
      </clipPath>
      <clipPath clipPathUnits="userSpaceOnUse" id="clipPath43">
        <path d="M-115 -14 L230 -14 L230 28 L-115 28 L-115 -14 Z" />
      </clipPath>
      <clipPath clipPathUnits="userSpaceOnUse" id="clipPath44">
        <path d="M-151 -14 L302 -14 L302 28 L-151 28 L-151 -14 Z" />
      </clipPath>
      <clipPath clipPathUnits="userSpaceOnUse" id="clipPath45">
        <path d="M-95 -14 L190 -14 L190 28 L-95 28 L-95 -14 Z" />
      </clipPath>
      <clipPath clipPathUnits="userSpaceOnUse" id="clipPath46">
        <path d="M-130 -14 L260 -14 L260 28 L-130 28 L-130 -14 Z" />
      </clipPath>
      <clipPath clipPathUnits="userSpaceOnUse" id="clipPath47">
        <path d="M-251 -14 L502 -14 L502 28 L-251 28 L-251 -14 Z" />
      </clipPath>
    </defs>
    <g style="fill:white; text-rendering:geometricPrecision; stroke:white;">
      <rect x="0" y="0" width="924" style="stroke:none;" height="769" />
      <rect x="0" y="38" transform="translate(0,-38)" width="923" style="fill:none; stroke:black;" height="768" />
      <text x="7" y="54" transform="translate(0,-38)" style="fill:black; stroke:none; font-weight:bold;" xml:space="preserve">sd</text>
      <text x="31" y="54" transform="translate(0,-38)" style="fill:black; stroke:none;" xml:space="preserve">pushImage(...)</text>
      <line transform="translate(0,-38)" x1="0" x2="122" y1="61" style="fill:none; stroke:black;" y2="61" />
      <line transform="translate(0,-38)" x1="128" x2="128" y1="38" style="fill:none; stroke:black;" y2="51" />
      <line transform="translate(0,-38)" x1="128" x2="122" y1="51" style="fill:none; stroke:black;" y2="61" />
    </g>
    <g transform="translate(160,35)" style="font-size:11; fill:rgb(122,207,245); text-rendering:geometricPrecision; font-family:sans-serif; stroke:rgb(122,207,245);">
      <circle style="clip-path:url(#clipPath1); stroke:none;" r="15.5" cx="59.5" cy="19.5" />
      <circle style="clip-path:url(#clipPath1); fill:none; stroke:black;" r="15.5" cx="59.5" cy="19.5" />
      <line x1="56" x2="64" y1="4" style="clip-path:url(#clipPath1); fill:none; stroke:black;" y2="0" />
      <line x1="56" x2="64" y1="4" style="clip-path:url(#clipPath1); fill:none; stroke:black;" y2="8" />
    </g>
    <g transform="translate(160,35)" style="font-size:11; stroke-linecap:butt; text-rendering:geometricPrecision; font-family:sans-serif; stroke-linejoin:bevel; stroke-dasharray:8,3; stroke-miterlimit:0;">
      <line x1="59" x2="59" y1="49" style="clip-path:url(#clipPath1); fill:none;" y2="720" />
    </g>
    <g transform="translate(600,35)" style="font-size:11; fill:rgb(122,207,245); text-rendering:geometricPrecision; font-family:sans-serif; stroke:rgb(122,207,245);">
      <rect x="0" y="0" width="89" style="clip-path:url(#clipPath2); stroke:none;" height="35" />
    </g>
    <g transform="translate(600,35)" style="font-size:11; stroke-linecap:butt; text-rendering:geometricPrecision; font-family:sans-serif; stroke-linejoin:round; stroke-miterlimit:0;">
      <rect x="0" y="0" width="89" style="clip-path:url(#clipPath2); fill:none;" height="35" />
      <line x1="44" x2="44" y1="35" style="clip-path:url(#clipPath2); fill:none; stroke-linejoin:bevel; stroke-dasharray:8,3;" y2="480" />
      <line x1="44" x2="44" y1="530" style="clip-path:url(#clipPath2); fill:none; stroke-linejoin:bevel; stroke-dasharray:8,3;" y2="720" />
    </g>
    <g transform="translate(780,35)" style="font-size:11; fill:rgb(122,207,245); text-rendering:geometricPrecision; font-family:sans-serif; stroke:rgb(122,207,245);">
      <rect x="0" y="0" width="129" style="clip-path:url(#clipPath3); stroke:none;" height="42" />
    </g>
    <g transform="translate(780,35)" style="font-size:11; stroke-linecap:butt; text-rendering:geometricPrecision; font-family:sans-serif; stroke-linejoin:round; stroke-miterlimit:0;">
      <rect x="0" y="0" width="129" style="clip-path:url(#clipPath3); fill:none;" height="42" />
      <line x1="64" x2="64" y1="35" style="clip-path:url(#clipPath3); fill:none; stroke-linejoin:bevel; stroke-dasharray:8,3;" y2="720" />
    </g>
    <g transform="translate(470,35)" style="font-size:11; fill:rgb(122,207,245); text-rendering:geometricPrecision; font-family:sans-serif; stroke:rgb(122,207,245);">
      <circle style="clip-path:url(#clipPath2); stroke:none;" r="16.5" cx="44.5" cy="16.5" />
      <circle style="clip-path:url(#clipPath2); fill:none; stroke:black;" r="16.5" cx="44.5" cy="16.5" />
      <line x1="5" x2="84" y1="33" style="clip-path:url(#clipPath2); fill:none; stroke:black;" y2="33" />
    </g>
    <g transform="translate(470,35)" style="font-size:11; stroke-linecap:butt; text-rendering:geometricPrecision; font-family:sans-serif; stroke-linejoin:bevel; stroke-dasharray:8,3; stroke-miterlimit:0;">
      <line x1="44" x2="44" y1="49" style="clip-path:url(#clipPath2); fill:none;" y2="720" />
    </g>
    <g transform="translate(641,525)" style="font-size:11; fill:rgb(122,207,245); text-rendering:geometricPrecision; font-family:sans-serif; stroke:rgb(122,207,245);">
      <rect x="0" y="0" width="8" style="clip-path:url(#clipPath4); stroke:none;" height="204" />
    </g>
    <g transform="translate(641,525)" style="font-size:11; stroke-linecap:butt; text-rendering:geometricPrecision; font-family:sans-serif; stroke-linejoin:round; stroke-miterlimit:0;">
      <rect x="0" y="0" width="8" style="clip-path:url(#clipPath4); fill:none;" height="204" />
    </g>
    <g transform="translate(841,695)" style="font-size:11; fill:rgb(122,207,245); text-rendering:geometricPrecision; font-family:sans-serif; stroke:rgb(122,207,245);">
      <rect x="0" y="0" width="8" style="clip-path:url(#clipPath5); stroke:none;" height="12" />
    </g>
    <g transform="translate(841,695)" style="font-size:11; stroke-linecap:butt; text-rendering:geometricPrecision; font-family:sans-serif; stroke-linejoin:round; stroke-miterlimit:0;">
      <rect x="0" y="0" width="8" style="clip-path:url(#clipPath5); fill:none;" height="12" />
    </g>
    <g transform="translate(216,245)" style="font-size:11; fill:rgb(122,207,245); text-rendering:geometricPrecision; font-family:sans-serif; stroke:rgb(122,207,245);">
      <rect x="0" y="0" width="8" style="clip-path:url(#clipPath6); stroke:none;" height="481" />
    </g>
    <g transform="translate(216,245)" style="font-size:11; stroke-linecap:butt; text-rendering:geometricPrecision; font-family:sans-serif; stroke-linejoin:round; stroke-miterlimit:0;">
      <rect x="0" y="0" width="8" style="clip-path:url(#clipPath6); fill:none;" height="481" />
    </g>
    <g transform="translate(511,245)" style="font-size:11; fill:rgb(122,207,245); text-rendering:geometricPrecision; font-family:sans-serif; stroke:rgb(122,207,245);">
      <rect x="0" y="0" width="8" style="clip-path:url(#clipPath7); stroke:none;" height="263" />
    </g>
    <g transform="translate(511,245)" style="font-size:11; stroke-linecap:butt; text-rendering:geometricPrecision; font-family:sans-serif; stroke-linejoin:round; stroke-miterlimit:0;">
      <rect x="0" y="0" width="8" style="clip-path:url(#clipPath7); fill:none;" height="263" />
    </g>
    <g transform="translate(511,135)" style="font-size:11; fill:rgb(122,207,245); text-rendering:geometricPrecision; font-family:sans-serif; stroke:rgb(122,207,245);">
      <rect x="0" y="0" width="8" style="clip-path:url(#clipPath8); stroke:none;" height="32" />
    </g>
    <g transform="translate(511,135)" style="font-size:11; stroke-linecap:butt; text-rendering:geometricPrecision; font-family:sans-serif; stroke-linejoin:round; stroke-miterlimit:0;">
      <rect x="0" y="0" width="8" style="clip-path:url(#clipPath8); fill:none;" height="32" />
    </g>
    <g transform="translate(216,95)" style="font-size:11; fill:rgb(122,207,245); text-rendering:geometricPrecision; font-family:sans-serif; stroke:rgb(122,207,245);">
      <rect x="0" y="0" width="8" style="clip-path:url(#clipPath9); stroke:none;" height="71" />
    </g>
    <g transform="translate(216,95)" style="font-size:11; stroke-linecap:butt; text-rendering:geometricPrecision; font-family:sans-serif; stroke-linejoin:round; stroke-miterlimit:0;">
      <rect x="0" y="0" width="8" style="clip-path:url(#clipPath9); fill:none;" height="71" />
    </g>
    <g transform="translate(200,185)" style="font-size:11; stroke-linecap:butt; text-rendering:geometricPrecision; font-family:sans-serif; stroke-linejoin:round; font-weight:bold; stroke-miterlimit:0;">
      <rect x="0" y="0" width="350" style="clip-path:url(#clipPath10); fill:none;" height="140" />
    </g>
    <g transform="translate(200,185)" style="font-size:11; fill:white; text-rendering:geometricPrecision; font-family:sans-serif; stroke:white; font-weight:bold;">
      <path d="M30 0 L30 8 L24 16 L0 16 L0 0 Z" style="clip-path:url(#clipPath10); stroke:none;" />
    </g>
    <g transform="translate(200,185)" style="font-size:11; stroke-linecap:butt; text-rendering:geometricPrecision; font-family:sans-serif; stroke-linejoin:round; font-weight:bold; stroke-miterlimit:0;">
      <path d="M30 0 L30 8 L24 16 L0 16 L0 0 Z" style="fill:none; clip-path:url(#clipPath10);" />
    </g>
    <g transform="translate(200,185)" style="text-rendering:geometricPrecision; font-size:11; font-weight:bold; font-family:sans-serif;">
      <text x="5" y="11" style="clip-path:url(#clipPath11); stroke:none;" xml:space="preserve">opt</text>
    </g>
    <g transform="translate(200,202)" style="font-size:11; fill:white; text-rendering:geometricPrecision; font-family:sans-serif; stroke:white;">
      <rect x="28" y="5" width="198" style="clip-path:url(#clipPath12); stroke:none;" height="14" />
    </g>
    <g style="text-rendering:geometricPrecision; font-size:11; font-family:sans-serif;" transform="translate(228,207)">
      <text x="10" y="11" style="clip-path:url(#clipPath13); stroke:none;" xml:space="preserve">[imageParamStack.size() == 1]</text>
    </g>
    <g transform="translate(570,515)" style="font-size:11; stroke-linecap:butt; text-rendering:geometricPrecision; font-family:sans-serif; stroke-linejoin:round; stroke-miterlimit:0;">
      <rect x="0" y="0" width="140" style="clip-path:url(#clipPath15); fill:none;" height="50" />
      <path d="M27 0 L27 8 L21 16 L0 16" style="fill:none; clip-path:url(#clipPath15);" />
    </g>
    <g transform="translate(570,515)" style="text-rendering:geometricPrecision; font-size:11; font-weight:bold; font-family:sans-serif;">
      <text x="5" y="11" style="clip-path:url(#clipPath16); stroke:none;" xml:space="preserve">ref</text>
    </g>
    <g transform="translate(560,605)" style="font-size:11; stroke-linecap:butt; text-rendering:geometricPrecision; font-family:sans-serif; stroke-linejoin:round; stroke-miterlimit:0;">
      <rect x="0" y="0" width="150" style="clip-path:url(#clipPath18); fill:none;" height="50" />
      <path d="M27 0 L27 8 L21 16 L0 16" style="fill:none; clip-path:url(#clipPath18);" />
    </g>
    <g transform="translate(560,605)" style="text-rendering:geometricPrecision; font-size:11; font-weight:bold; font-family:sans-serif;">
      <text x="5" y="11" style="clip-path:url(#clipPath16); stroke:none;" xml:space="preserve">ref</text>
    </g>
    <g transform="translate(550,615)" style="font-size:11; fill:silver; text-rendering:geometricPrecision; font-family:sans-serif; stroke:silver;">
      <rect x="0" y="0" width="19" style="clip-path:url(#clipPath20); fill:none;" height="19" />
    </g>
    <g transform="translate(560,525)" style="font-size:11; fill:silver; text-rendering:geometricPrecision; font-family:sans-serif; stroke:silver;">
      <rect x="0" y="0" width="19" style="clip-path:url(#clipPath20); fill:none;" height="19" />
    </g>
    <g transform="translate(60,105)" style="font-size:11; fill:silver; text-rendering:geometricPrecision; font-family:sans-serif; stroke:silver;">
      <rect x="0" y="0" width="19" style="clip-path:url(#clipPath20); fill:none;" height="19" />
    </g>
    <g style="text-rendering:geometricPrecision; font-size:11; font-family:sans-serif;" transform="translate(11,125)">
      <text x="6" y="11" style="clip-path:url(#clipPath21); stroke:none;" xml:space="preserve">pushImage(image)</text>
    </g>
    <g style="text-rendering:geometricPrecision; font-size:11; font-family:sans-serif;" transform="translate(475,545)">
      <text x="-32" y="11" style="clip-path:url(#clipPath22); stroke:none;" xml:space="preserve">setSelectionRect(selectionRectangle, repaint)</text>
    </g>
    <g style="text-rendering:geometricPrecision; font-size:11; font-family:sans-serif;" transform="translate(459,635)">
      <text x="1" y="11" style="clip-path:url(#clipPath23); stroke:none;" xml:space="preserve">setScaleFactor(image, scaleFactor)</text>
    </g>
    <g style="text-rendering:geometricPrecision; font-size:11; font-family:sans-serif;" transform="translate(472,70)">
      <text x="5" y="11" style="clip-path:url(#clipPath24); stroke:none;" xml:space="preserve">ImageParams</text>
    </g>
    <g style="text-rendering:geometricPrecision; font-size:11; font-family:sans-serif;" transform="translate(780,35)">
      <text x="6" y="11" style="clip-path:url(#clipPath25); stroke:none;" xml:space="preserve">ImagePropertiesPane</text>
      <text x="63" y="25" style="clip-path:url(#clipPath25); stroke:none;" xml:space="preserve">l</text>
      <text x="40" y="39" style="clip-path:url(#clipPath25); stroke:none;" xml:space="preserve">&lt;&lt;UI&gt;&gt;</text>
    </g>
    <g style="text-rendering:geometricPrecision; font-size:11; font-family:sans-serif;" transform="translate(600,35)">
      <text x="4" y="11" style="clip-path:url(#clipPath26); stroke:none;" xml:space="preserve">ImageCropGUI</text>
      <text x="21" y="25" style="clip-path:url(#clipPath26); stroke:none;" xml:space="preserve">&lt;&lt;UI&gt;&gt;</text>
    </g>
    <g style="text-rendering:geometricPrecision; font-size:11; font-family:sans-serif;" transform="translate(165,70)">
      <text x="4" y="11" style="clip-path:url(#clipPath27); stroke:none;" xml:space="preserve">ImageCropControl</text>
    </g>
    <g transform="translate(174,235)" style="font-size:11; stroke-linecap:butt; text-rendering:geometricPrecision; font-family:sans-serif; stroke-linejoin:round;">
      <line x1="50" x2="76" y1="50" style="clip-path:url(#clipPath28); fill:none;" y2="50" />
      <line x1="76" x2="76" y1="50" style="clip-path:url(#clipPath28); fill:none;" y2="70" />
      <line x1="76" x2="50" y1="70" style="clip-path:url(#clipPath28); fill:none;" y2="70" />
      <polygon style="clip-path:url(#clipPath28); stroke:none;" points=" 50 70 62 76 62 64" />
      <polygon style="fill:none; clip-path:url(#clipPath28);" points=" 50 70 62 76 62 64" />
    </g>
    <g transform="translate(174,295)" style="font-size:11; stroke-linecap:butt; text-rendering:geometricPrecision; font-family:sans-serif; stroke-linejoin:round;">
      <line x1="50" x2="76" y1="50" style="clip-path:url(#clipPath28); fill:none;" y2="50" />
      <line x1="76" x2="76" y1="50" style="clip-path:url(#clipPath28); fill:none;" y2="70" />
      <line x1="76" x2="50" y1="70" style="clip-path:url(#clipPath28); fill:none;" y2="70" />
      <polygon style="clip-path:url(#clipPath28); stroke:none;" points=" 50 70 62 76 62 64" />
      <polygon style="fill:none; clip-path:url(#clipPath28);" points=" 50 70 62 76 62 64" />
    </g>
    <g transform="translate(174,425)" style="font-size:11; stroke-linecap:butt; text-rendering:geometricPrecision; font-family:sans-serif; stroke-linejoin:round;">
      <line x1="50" x2="76" y1="50" style="clip-path:url(#clipPath28); fill:none;" y2="50" />
      <line x1="76" x2="76" y1="50" style="clip-path:url(#clipPath28); fill:none;" y2="70" />
      <line x1="76" x2="50" y1="70" style="clip-path:url(#clipPath28); fill:none;" y2="70" />
      <polygon style="clip-path:url(#clipPath28); stroke:none;" points=" 50 70 62 76 62 64" />
      <polygon style="fill:none; clip-path:url(#clipPath28);" points=" 50 70 62 76 62 64" />
    </g>
    <g transform="translate(174,535)" style="font-size:11; stroke-linecap:butt; text-rendering:geometricPrecision; font-family:sans-serif; stroke-linejoin:round;">
      <line x1="50" x2="467" y1="50" style="clip-path:url(#clipPath29); fill:none;" y2="50" />
      <polygon style="clip-path:url(#clipPath29); stroke:none;" points=" 467 50 455 44 455 56" />
      <polygon style="fill:none; clip-path:url(#clipPath29);" points=" 467 50 455 44 455 56" />
    </g>
    <g transform="translate(174,635)" style="font-size:11; stroke-linecap:butt; text-rendering:geometricPrecision; font-family:sans-serif; stroke-linejoin:round;">
      <line x1="50" x2="467" y1="50" style="clip-path:url(#clipPath29); fill:none;" y2="50" />
      <polygon style="clip-path:url(#clipPath29); stroke:none;" points=" 467 50 455 44 455 56" />
      <polygon style="fill:none; clip-path:url(#clipPath29);" points=" 467 50 455 44 455 56" />
    </g>
    <g transform="translate(599,645)" style="font-size:11; stroke-linecap:butt; text-rendering:geometricPrecision; font-family:sans-serif; stroke-linejoin:round;">
      <line x1="50" x2="242" y1="50" style="clip-path:url(#clipPath30); fill:none;" y2="50" />
      <polygon style="clip-path:url(#clipPath30); stroke:none;" points=" 242 50 230 44 230 56" />
      <polygon style="fill:none; clip-path:url(#clipPath30);" points=" 242 50 230 44 230 56" />
    </g>
    <g transform="translate(174,85)" style="font-size:11; stroke-linecap:butt; text-rendering:geometricPrecision; font-family:sans-serif; stroke-linejoin:round;">
      <line x1="50" x2="337" y1="50" style="clip-path:url(#clipPath31); fill:none;" y2="50" />
      <polygon style="clip-path:url(#clipPath31); stroke:none;" points=" 337 50 325 44 325 56" />
      <polygon style="fill:none; clip-path:url(#clipPath31);" points=" 337 50 325 44 325 56" />
    </g>
    <g transform="translate(174,195)" style="font-size:11; stroke-linecap:butt; text-rendering:geometricPrecision; font-family:sans-serif; stroke-linejoin:round;">
      <line x1="50" x2="337" y1="50" style="clip-path:url(#clipPath31); fill:none;" y2="50" />
      <polygon style="clip-path:url(#clipPath31); stroke:none;" points=" 337 50 325 44 325 56" />
      <polygon style="fill:none; clip-path:url(#clipPath31);" points=" 337 50 325 44 325 56" />
    </g>
    <g transform="translate(174,345)" style="font-size:11; stroke-linecap:butt; text-rendering:geometricPrecision; font-family:sans-serif; stroke-linejoin:round;">
      <line x1="50" x2="337" y1="50" style="clip-path:url(#clipPath31); fill:none;" y2="50" />
      <polygon style="clip-path:url(#clipPath31); stroke:none;" points=" 337 50 325 44 325 56" />
      <polygon style="fill:none; clip-path:url(#clipPath31);" points=" 337 50 325 44 325 56" />
    </g>
    <g transform="translate(174,375)" style="font-size:11; stroke-linecap:butt; text-rendering:geometricPrecision; font-family:sans-serif; stroke-linejoin:round;">
      <line x1="50" x2="337" y1="50" style="clip-path:url(#clipPath31); fill:none;" y2="50" />
      <polygon style="clip-path:url(#clipPath31); stroke:none;" points=" 337 50 325 44 325 56" />
      <polygon style="fill:none; clip-path:url(#clipPath31);" points=" 337 50 325 44 325 56" />
    </g>
    <g transform="translate(174,405)" style="font-size:11; stroke-linecap:butt; text-rendering:geometricPrecision; font-family:sans-serif; stroke-linejoin:round;">
      <line x1="50" x2="337" y1="50" style="clip-path:url(#clipPath31); fill:none;" y2="50" />
      <polygon style="clip-path:url(#clipPath31); stroke:none;" points=" 337 50 325 44 325 56" />
      <polygon style="fill:none; clip-path:url(#clipPath31);" points=" 337 50 325 44 325 56" />
    </g>
    <g transform="translate(174,105)" style="font-size:11; stroke-linecap:butt; text-rendering:geometricPrecision; font-family:sans-serif; stroke-linejoin:round; stroke-dasharray:8,3; stroke-miterlimit:0;">
      <line x1="337" x2="50" y1="50" style="clip-path:url(#clipPath31); fill:none;" y2="50" />
      <line x1="50" x2="62" y1="50" style="clip-path:url(#clipPath31); fill:none; stroke-dasharray:none; stroke-miterlimit:10;" y2="56" />
      <line x1="50" x2="62" y1="50" style="clip-path:url(#clipPath31); fill:none; stroke-dasharray:none; stroke-miterlimit:10;" y2="44" />
    </g>
    <g transform="translate(174,215)" style="font-size:11; stroke-linecap:butt; text-rendering:geometricPrecision; font-family:sans-serif; stroke-linejoin:round; stroke-dasharray:8,3; stroke-miterlimit:0;">
      <line x1="337" x2="50" y1="50" style="clip-path:url(#clipPath31); fill:none;" y2="50" />
      <line x1="50" x2="62" y1="50" style="clip-path:url(#clipPath31); fill:none; stroke-dasharray:none; stroke-miterlimit:10;" y2="56" />
      <line x1="50" x2="62" y1="50" style="clip-path:url(#clipPath31); fill:none; stroke-dasharray:none; stroke-miterlimit:10;" y2="44" />
    </g>
    <g transform="translate(174,575)" style="font-size:11; stroke-linecap:butt; text-rendering:geometricPrecision; font-family:sans-serif; stroke-linejoin:round;">
      <line x1="50" x2="386" y1="50" style="clip-path:url(#clipPath32); fill:none;" y2="50" />
      <polygon style="clip-path:url(#clipPath32); stroke:none;" points=" 386 50 374 44 374 56" />
      <polygon style="fill:none; clip-path:url(#clipPath32);" points=" 386 50 374 44 374 56" />
    </g>
    <g transform="translate(174,485)" style="font-size:11; stroke-linecap:butt; text-rendering:geometricPrecision; font-family:sans-serif; stroke-linejoin:round;">
      <line x1="50" x2="396" y1="50" style="clip-path:url(#clipPath33); fill:none;" y2="50" />
      <polygon style="clip-path:url(#clipPath33); stroke:none;" points=" 396 50 384 44 384 56" />
      <polygon style="fill:none; clip-path:url(#clipPath33);" points=" 396 50 384 44 384 56" />
    </g>
    <g transform="translate(20,65)" style="font-size:11; stroke-linecap:butt; text-rendering:geometricPrecision; font-family:sans-serif; stroke-linejoin:round;">
      <line x1="50" x2="196" y1="50" style="clip-path:url(#clipPath34); fill:none;" y2="50" />
      <polygon style="clip-path:url(#clipPath34); stroke:none;" points=" 196 50 184 44 184 56" />
      <polygon style="fill:none; clip-path:url(#clipPath34);" points=" 196 50 184 44 184 56" />
    </g>
    <g style="text-rendering:geometricPrecision; font-size:11; font-family:sans-serif;" transform="translate(286,514)">
      <text x="8" y="11" style="clip-path:url(#clipPath35); stroke:none;" xml:space="preserve">setSelectionRect(selectionRect, null)</text>
    </g>
    <g style="text-rendering:geometricPrecision; font-size:11; font-family:sans-serif;" transform="translate(290,605)">
      <text x="7" y="11" style="clip-path:url(#clipPath36); stroke:none;" xml:space="preserve">setScaleFactor(image, scaleFactor)</text>
    </g>
    <g style="text-rendering:geometricPrecision; font-size:11; font-family:sans-serif;" transform="translate(322,244)">
      <text x="6" y="11" style="clip-path:url(#clipPath37); stroke:none;" xml:space="preserve">imageParams</text>
    </g>
    <g style="text-rendering:geometricPrecision; font-size:11; font-family:sans-serif;" transform="translate(334,134)">
      <text x="8" y="11" style="clip-path:url(#clipPath38); stroke:none;" xml:space="preserve">selection</text>
    </g>
    <g style="text-rendering:geometricPrecision; font-size:11; font-family:sans-serif;" transform="translate(300,434)">
      <text x="5" y="11" style="clip-path:url(#clipPath39); stroke:none;" xml:space="preserve">setSelectionRect(null)</text>
    </g>
    <g style="text-rendering:geometricPrecision; font-size:11; font-family:sans-serif;" transform="translate(283,404)">
      <text x="2" y="11" style="clip-path:url(#clipPath40); stroke:none;" xml:space="preserve">setState(StateImageLoaded)</text>
    </g>
    <g style="text-rendering:geometricPrecision; font-size:11; font-family:sans-serif;" transform="translate(308,374)">
      <text x="5" y="11" style="clip-path:url(#clipPath41); stroke:none;" xml:space="preserve">setScaleFactor(1d)</text>
    </g>
    <g style="text-rendering:geometricPrecision; font-size:11; font-family:sans-serif;" transform="translate(339,224)">
      <text x="9" y="11" style="clip-path:url(#clipPath42); stroke:none;" xml:space="preserve">clone()</text>
    </g>
    <g style="text-rendering:geometricPrecision; font-size:11; font-family:sans-serif;" transform="translate(309,114)">
      <text x="6" y="11" style="clip-path:url(#clipPath43); stroke:none;" xml:space="preserve">getSelectionRect()</text>
    </g>
    <g style="text-rendering:geometricPrecision; font-size:11; font-family:sans-serif;" transform="translate(669,674)">
      <text x="4" y="11" style="clip-path:url(#clipPath44); stroke:none;" xml:space="preserve">setImageSize(imageSize)</text>
    </g>
    <g style="text-rendering:geometricPrecision; font-size:11; font-family:sans-serif;" transform="translate(356,664)">
      <text x="4" y="11" style="clip-path:url(#clipPath44); stroke:none;" xml:space="preserve">setImageSize(imageSize)</text>
    </g>
    <g style="text-rendering:geometricPrecision; font-size:11; font-family:sans-serif;" transform="translate(384,564)">
      <text x="4" y="11" style="clip-path:url(#clipPath45); stroke:none;" xml:space="preserve">setState(state)</text>
    </g>
    <g style="text-rendering:geometricPrecision; font-size:11; font-family:sans-serif;" transform="translate(250,475)">
      <text x="5" y="11" style="clip-path:url(#clipPath46); stroke:none;" xml:space="preserve">setScaleFactorToFit()</text>
    </g>
    <g style="text-rendering:geometricPrecision; font-size:11; font-family:sans-serif;" transform="translate(250,345)">
      <text x="6" y="11" style="clip-path:url(#clipPath47); stroke:none;" xml:space="preserve">imageParams = imageParamStack.peek()</text>
    </g>
    <g style="text-rendering:geometricPrecision; font-size:11; font-family:sans-serif;" transform="translate(250,285)">
      <text x="0" y="11" style="clip-path:url(#clipPath35); stroke:none;" xml:space="preserve">imageParamStack.push(imageParams)</text>
    </g>
    <g style="fill:rgb(120,120,120); text-rendering:geometricPrecision; font-size:10; stroke:rgb(120,120,120);">
      <text xml:space="preserve" x="0" y="10" style="stroke:none;">Visual Paradigm for UML Community Edition [not for commercial use] </text>
    </g>
  </g>
</svg>
