<?xml version="1.0" encoding="UTF-8"?>

<!DOCTYPE svg PUBLIC '-//W3C//DTD SVG 1.0//EN' 'http://www.w3.org/TR/2001/REC-SVG-20010904/DTD/svg10.dtd'>
<svg style="fill-opacity:1; color-rendering:auto; color-interpolation:auto; stroke:black; text-rendering:auto; stroke-linecap:square; stroke-miterlimit:10; stroke-opacity:1; shape-rendering:auto; fill:black; stroke-dasharray:none; font-weight:normal; stroke-width:1; font-family:&apos;Dialog&apos;; font-style:normal; stroke-linejoin:miter; font-size:12; stroke-dashoffset:0; image-rendering:auto;" xmlns="http://www.w3.org/2000/svg" width="844" xmlns:xlink="http://www.w3.org/1999/xlink" height="429">
  <!--Generated by the Batik Graphics2D SVG Generator-->
  <defs id="genericDefs" />
  <g>
    <defs id="defs1">
      <clipPath clipPathUnits="userSpaceOnUse" id="clipPath1">
        <path d="M-3 -3 L97 -3 L97 387 L-3 387 L-3 -3 Z" />
      </clipPath>
      <clipPath clipPathUnits="userSpaceOnUse" id="clipPath2">
        <path d="M-3 -3 L87 -3 L87 387 L-3 387 L-3 -3 Z" />
      </clipPath>
      <clipPath clipPathUnits="userSpaceOnUse" id="clipPath3">
        <path d="M-3 -3 L137 -3 L137 387 L-3 387 L-3 -3 Z" />
      </clipPath>
      <clipPath clipPathUnits="userSpaceOnUse" id="clipPath4">
        <path d="M-3 -3 L15 -3 L15 299 L-3 299 L-3 -3 Z" />
      </clipPath>
      <clipPath clipPathUnits="userSpaceOnUse" id="clipPath5">
        <path d="M-3 -3 L15 -3 L15 19 L-3 19 L-3 -3 Z" />
      </clipPath>
      <clipPath clipPathUnits="userSpaceOnUse" id="clipPath6">
        <path d="M-3 -3 L15 -3 L15 167 L-3 167 L-3 -3 Z" />
      </clipPath>
      <clipPath clipPathUnits="userSpaceOnUse" id="clipPath7">
        <path d="M-3 -3 L27 -3 L27 27 L-3 27 L-3 -3 Z" />
      </clipPath>
      <clipPath clipPathUnits="userSpaceOnUse" id="clipPath8">
        <path d="M-202 -14 L404 -14 L404 28 L-202 28 L-202 -14 Z" />
      </clipPath>
      <clipPath clipPathUnits="userSpaceOnUse" id="clipPath9">
        <path d="M-130 -42 L260 -42 L260 84 L-130 84 L-130 -42 Z" />
      </clipPath>
      <clipPath clipPathUnits="userSpaceOnUse" id="clipPath10">
        <path d="M-90 -42 L180 -42 L180 84 L-90 84 L-90 -42 Z" />
      </clipPath>
      <clipPath clipPathUnits="userSpaceOnUse" id="clipPath11">
        <path d="M-80 -28 L160 -28 L160 56 L-80 56 L-80 -28 Z" />
      </clipPath>
      <clipPath clipPathUnits="userSpaceOnUse" id="clipPath12">
        <path d="M-90 -28 L180 -28 L180 56 L-90 56 L-90 -28 Z" />
      </clipPath>
      <clipPath clipPathUnits="userSpaceOnUse" id="clipPath13">
        <path d="M0 0 L135 0 L135 124 L0 124 L0 0 Z" />
      </clipPath>
      <clipPath clipPathUnits="userSpaceOnUse" id="clipPath14">
        <path d="M0 0 L331 0 L331 104 L0 104 L0 0 Z" />
      </clipPath>
      <clipPath clipPathUnits="userSpaceOnUse" id="clipPath15">
        <path d="M0 0 L446 0 L446 104 L0 104 L0 0 Z" />
      </clipPath>
      <clipPath clipPathUnits="userSpaceOnUse" id="clipPath16">
        <path d="M0 0 L596 0 L596 104 L0 104 L0 0 Z" />
      </clipPath>
      <clipPath clipPathUnits="userSpaceOnUse" id="clipPath17">
        <path d="M0 0 L315 0 L315 104 L0 104 L0 0 Z" />
      </clipPath>
      <clipPath clipPathUnits="userSpaceOnUse" id="clipPath18">
        <path d="M-196 -14 L392 -14 L392 28 L-196 28 L-196 -14 Z" />
      </clipPath>
      <clipPath clipPathUnits="userSpaceOnUse" id="clipPath19">
        <path d="M-151 -14 L302 -14 L302 28 L-151 28 L-151 -14 Z" />
      </clipPath>
      <clipPath clipPathUnits="userSpaceOnUse" id="clipPath20">
        <path d="M-248 -14 L496 -14 L496 28 L-248 28 L-248 -14 Z" />
      </clipPath>
      <clipPath clipPathUnits="userSpaceOnUse" id="clipPath21">
        <path d="M-145 -14 L290 -14 L290 28 L-145 28 L-145 -14 Z" />
      </clipPath>
      <clipPath clipPathUnits="userSpaceOnUse" id="clipPath22">
        <path d="M-79 -14 L158 -14 L158 28 L-79 28 L-79 -14 Z" />
      </clipPath>
      <clipPath clipPathUnits="userSpaceOnUse" id="clipPath23">
        <path d="M-207 -14 L414 -14 L414 28 L-207 28 L-207 -14 Z" />
      </clipPath>
      <clipPath clipPathUnits="userSpaceOnUse" id="clipPath24">
        <path d="M-126 -14 L252 -14 L252 28 L-126 28 L-126 -14 Z" />
      </clipPath>
    </defs>
    <g style="fill:white; text-rendering:geometricPrecision; stroke:white;">
      <rect x="0" y="0" width="844" style="stroke:none;" height="429" />
      <rect x="0" y="38" transform="translate(0,-38)" width="843" style="fill:none; stroke:black;" height="428" />
      <text x="7" y="54" transform="translate(0,-38)" style="fill:black; stroke:none; font-weight:bold;" xml:space="preserve">sd</text>
      <text x="31" y="54" transform="translate(0,-38)" style="fill:black; stroke:none;" xml:space="preserve">setScaleFactor(...)</text>
      <line transform="translate(0,-38)" x1="0" x2="147" y1="61" style="fill:none; stroke:black;" y2="61" />
      <line transform="translate(0,-38)" x1="153" x2="153" y1="38" style="fill:none; stroke:black;" y2="51" />
      <line transform="translate(0,-38)" x1="153" x2="147" y1="51" style="fill:none; stroke:black;" y2="61" />
    </g>
    <g transform="translate(220,35)" style="font-size:11; fill:rgb(122,207,245); text-rendering:geometricPrecision; font-family:sans-serif; stroke:rgb(122,207,245);">
      <rect x="0" y="0" width="89" style="clip-path:url(#clipPath1); stroke:none;" height="35" />
    </g>
    <g transform="translate(220,35)" style="font-size:11; stroke-linecap:butt; text-rendering:geometricPrecision; font-family:sans-serif; stroke-linejoin:round; stroke-miterlimit:0;">
      <rect x="0" y="0" width="89" style="clip-path:url(#clipPath1); fill:none;" height="35" />
      <line x1="44" x2="44" y1="35" style="clip-path:url(#clipPath1); fill:none; stroke-linejoin:bevel; stroke-dasharray:8,3;" y2="380" />
    </g>
    <g transform="translate(460,35)" style="font-size:11; fill:rgb(122,207,245); text-rendering:geometricPrecision; font-family:sans-serif; stroke:rgb(122,207,245);">
      <rect x="0" y="0" width="79" style="clip-path:url(#clipPath2); stroke:none;" height="35" />
    </g>
    <g transform="translate(460,35)" style="font-size:11; stroke-linecap:butt; text-rendering:geometricPrecision; font-family:sans-serif; stroke-linejoin:round; stroke-miterlimit:0;">
      <rect x="0" y="0" width="79" style="clip-path:url(#clipPath2); fill:none;" height="35" />
      <line x1="39" x2="39" y1="35" style="clip-path:url(#clipPath2); fill:none; stroke-linejoin:bevel; stroke-dasharray:8,3;" y2="380" />
    </g>
    <g transform="translate(570,35)" style="font-size:11; fill:rgb(122,207,245); text-rendering:geometricPrecision; font-family:sans-serif; stroke:rgb(122,207,245);">
      <rect x="0" y="0" width="89" style="clip-path:url(#clipPath1); stroke:none;" height="42" />
    </g>
    <g transform="translate(570,35)" style="font-size:11; stroke-linecap:butt; text-rendering:geometricPrecision; font-family:sans-serif; stroke-linejoin:round; stroke-miterlimit:0;">
      <rect x="0" y="0" width="89" style="clip-path:url(#clipPath1); fill:none;" height="42" />
      <line x1="44" x2="44" y1="35" style="clip-path:url(#clipPath1); fill:none; stroke-linejoin:bevel; stroke-dasharray:8,3;" y2="380" />
    </g>
    <g transform="translate(700,35)" style="font-size:11; fill:rgb(122,207,245); text-rendering:geometricPrecision; font-family:sans-serif; stroke:rgb(122,207,245);">
      <rect x="0" y="0" width="129" style="clip-path:url(#clipPath3); stroke:none;" height="42" />
    </g>
    <g transform="translate(700,35)" style="font-size:11; stroke-linecap:butt; text-rendering:geometricPrecision; font-family:sans-serif; stroke-linejoin:round; stroke-miterlimit:0;">
      <rect x="0" y="0" width="129" style="clip-path:url(#clipPath3); fill:none;" height="42" />
      <line x1="64" x2="64" y1="35" style="clip-path:url(#clipPath3); fill:none; stroke-linejoin:bevel; stroke-dasharray:8,3;" y2="380" />
    </g>
    <g transform="translate(261,95)" style="font-size:11; fill:rgb(122,207,245); text-rendering:geometricPrecision; font-family:sans-serif; stroke:rgb(122,207,245);">
      <rect x="0" y="0" width="8" style="clip-path:url(#clipPath4); stroke:none;" height="292" />
    </g>
    <g transform="translate(261,95)" style="font-size:11; stroke-linecap:butt; text-rendering:geometricPrecision; font-family:sans-serif; stroke-linejoin:round; stroke-miterlimit:0;">
      <rect x="0" y="0" width="8" style="clip-path:url(#clipPath4); fill:none;" height="292" />
    </g>
    <g transform="translate(761,365)" style="font-size:11; fill:rgb(122,207,245); text-rendering:geometricPrecision; font-family:sans-serif; stroke:rgb(122,207,245);">
      <rect x="0" y="0" width="8" style="clip-path:url(#clipPath5); stroke:none;" height="12" />
    </g>
    <g transform="translate(761,365)" style="font-size:11; stroke-linecap:butt; text-rendering:geometricPrecision; font-family:sans-serif; stroke-linejoin:round; stroke-miterlimit:0;">
      <rect x="0" y="0" width="8" style="clip-path:url(#clipPath5); fill:none;" height="12" />
    </g>
    <g transform="translate(761,325)" style="font-size:11; fill:rgb(122,207,245); text-rendering:geometricPrecision; font-family:sans-serif; stroke:rgb(122,207,245);">
      <rect x="0" y="0" width="8" style="clip-path:url(#clipPath5); stroke:none;" height="12" />
    </g>
    <g transform="translate(761,325)" style="font-size:11; stroke-linecap:butt; text-rendering:geometricPrecision; font-family:sans-serif; stroke-linejoin:round; stroke-miterlimit:0;">
      <rect x="0" y="0" width="8" style="clip-path:url(#clipPath5); fill:none;" height="12" />
    </g>
    <g transform="translate(496,215)" style="font-size:11; fill:rgb(122,207,245); text-rendering:geometricPrecision; font-family:sans-serif; stroke:rgb(122,207,245);">
      <rect x="0" y="0" width="8" style="clip-path:url(#clipPath5); stroke:none;" height="12" />
    </g>
    <g transform="translate(496,215)" style="font-size:11; stroke-linecap:butt; text-rendering:geometricPrecision; font-family:sans-serif; stroke-linejoin:round; stroke-miterlimit:0;">
      <rect x="0" y="0" width="8" style="clip-path:url(#clipPath5); fill:none;" height="12" />
    </g>
    <g transform="translate(611,105)" style="font-size:11; fill:rgb(122,207,245); text-rendering:geometricPrecision; font-family:sans-serif; stroke:rgb(122,207,245);">
      <rect x="0" y="0" width="8" style="clip-path:url(#clipPath6); stroke:none;" height="160" />
    </g>
    <g transform="translate(611,105)" style="font-size:11; stroke-linecap:butt; text-rendering:geometricPrecision; font-family:sans-serif; stroke-linejoin:round; stroke-miterlimit:0;">
      <rect x="0" y="0" width="8" style="clip-path:url(#clipPath6); fill:none;" height="160" />
    </g>
    <g transform="translate(40,105)" style="font-size:11; fill:silver; text-rendering:geometricPrecision; font-family:sans-serif; stroke:silver;">
      <rect x="0" y="0" width="19" style="clip-path:url(#clipPath7); fill:none;" height="19" />
    </g>
    <g style="text-rendering:geometricPrecision; font-size:11; font-family:sans-serif;" transform="translate(10,125)">
      <text x="1" y="11" style="clip-path:url(#clipPath8); stroke:none;" xml:space="preserve">setScaleFactor(image, scaleFactor)</text>
    </g>
    <g style="text-rendering:geometricPrecision; font-size:11; font-family:sans-serif;" transform="translate(700,35)">
      <text x="6" y="11" style="clip-path:url(#clipPath9); stroke:none;" xml:space="preserve">ImagePropertiesPane</text>
      <text x="63" y="25" style="clip-path:url(#clipPath9); stroke:none;" xml:space="preserve">l</text>
      <text x="40" y="39" style="clip-path:url(#clipPath9); stroke:none;" xml:space="preserve">&lt;&lt;UI&gt;&gt;</text>
    </g>
    <g style="text-rendering:geometricPrecision; font-size:11; font-family:sans-serif;" transform="translate(570,35)">
      <text x="6" y="11" style="clip-path:url(#clipPath10); stroke:none;" xml:space="preserve">SelectionPane</text>
      <text x="43" y="25" style="clip-path:url(#clipPath10); stroke:none;" xml:space="preserve">l</text>
      <text x="20" y="39" style="clip-path:url(#clipPath10); stroke:none;" xml:space="preserve">&lt;&lt;UI&gt;&gt;</text>
    </g>
    <g style="text-rendering:geometricPrecision; font-size:11; font-family:sans-serif;" transform="translate(460,35)">
      <text x="7" y="11" style="clip-path:url(#clipPath11); stroke:none;" xml:space="preserve">ImagePanel</text>
      <text x="15" y="25" style="clip-path:url(#clipPath11); stroke:none;" xml:space="preserve">&lt;&lt;UI&gt;&gt;</text>
    </g>
    <g style="text-rendering:geometricPrecision; font-size:11; font-family:sans-serif;" transform="translate(220,35)">
      <text x="4" y="11" style="clip-path:url(#clipPath12); stroke:none;" xml:space="preserve">ImageCropGUI</text>
      <text x="21" y="25" style="clip-path:url(#clipPath12); stroke:none;" xml:space="preserve">&lt;&lt;UI&gt;&gt;</text>
    </g>
    <g transform="translate(219,225)" style="font-size:11; stroke-linecap:butt; text-rendering:geometricPrecision; font-family:sans-serif; stroke-linejoin:round;">
      <line x1="50" x2="81" y1="50" style="clip-path:url(#clipPath13); fill:none;" y2="50" />
      <line x1="81" x2="81" y1="50" style="clip-path:url(#clipPath13); fill:none;" y2="70" />
      <line x1="81" x2="50" y1="70" style="clip-path:url(#clipPath13); fill:none;" y2="70" />
      <polygon style="clip-path:url(#clipPath13); stroke:none;" points=" 50 70 62 76 62 64" />
      <polygon style="fill:none; clip-path:url(#clipPath13);" points=" 50 70 62 76 62 64" />
    </g>
    <g transform="translate(219,165)" style="font-size:11; stroke-linecap:butt; text-rendering:geometricPrecision; font-family:sans-serif; stroke-linejoin:round;">
      <line x1="50" x2="277" y1="50" style="clip-path:url(#clipPath14); fill:none;" y2="50" />
      <polygon style="clip-path:url(#clipPath14); stroke:none;" points=" 277 50 265 44 265 56" />
      <polygon style="fill:none; clip-path:url(#clipPath14);" points=" 277 50 265 44 265 56" />
    </g>
    <g transform="translate(219,85)" style="font-size:11; stroke-linecap:butt; text-rendering:geometricPrecision; font-family:sans-serif; stroke-linejoin:round;">
      <line x1="50" x2="392" y1="50" style="clip-path:url(#clipPath15); fill:none;" y2="50" />
      <polygon style="clip-path:url(#clipPath15); stroke:none;" points=" 392 50 380 44 380 56" />
      <polygon style="fill:none; clip-path:url(#clipPath15);" points=" 392 50 380 44 380 56" />
    </g>
    <g transform="translate(219,125)" style="font-size:11; stroke-linecap:butt; text-rendering:geometricPrecision; font-family:sans-serif; stroke-linejoin:round;">
      <line x1="50" x2="392" y1="50" style="clip-path:url(#clipPath15); fill:none;" y2="50" />
      <polygon style="clip-path:url(#clipPath15); stroke:none;" points=" 392 50 380 44 380 56" />
      <polygon style="fill:none; clip-path:url(#clipPath15);" points=" 392 50 380 44 380 56" />
    </g>
    <g transform="translate(219,205)" style="font-size:11; stroke-linecap:butt; text-rendering:geometricPrecision; font-family:sans-serif; stroke-linejoin:round;">
      <line x1="50" x2="392" y1="50" style="clip-path:url(#clipPath15); fill:none;" y2="50" />
      <polygon style="clip-path:url(#clipPath15); stroke:none;" points=" 392 50 380 44 380 56" />
      <polygon style="fill:none; clip-path:url(#clipPath15);" points=" 392 50 380 44 380 56" />
    </g>
    <g transform="translate(219,315)" style="font-size:11; stroke-linecap:butt; text-rendering:geometricPrecision; font-family:sans-serif; stroke-linejoin:round;">
      <line x1="50" x2="542" y1="50" style="clip-path:url(#clipPath16); fill:none;" y2="50" />
      <polygon style="clip-path:url(#clipPath16); stroke:none;" points=" 542 50 530 44 530 56" />
      <polygon style="fill:none; clip-path:url(#clipPath16);" points=" 542 50 530 44 530 56" />
    </g>
    <g transform="translate(219,275)" style="font-size:11; stroke-linecap:butt; text-rendering:geometricPrecision; font-family:sans-serif; stroke-linejoin:round;">
      <line x1="50" x2="542" y1="50" style="clip-path:url(#clipPath16); fill:none;" y2="50" />
      <polygon style="clip-path:url(#clipPath16); stroke:none;" points=" 542 50 530 44 530 56" />
      <polygon style="fill:none; clip-path:url(#clipPath16);" points=" 542 50 530 44 530 56" />
    </g>
    <g transform="translate(0,65)" style="font-size:11; stroke-linecap:butt; text-rendering:geometricPrecision; font-family:sans-serif; stroke-linejoin:round;">
      <line x1="50" x2="261" y1="50" style="clip-path:url(#clipPath17); fill:none;" y2="50" />
      <polygon style="clip-path:url(#clipPath17); stroke:none;" points=" 261 50 249 44 249 56" />
      <polygon style="fill:none; clip-path:url(#clipPath17);" points=" 261 50 249 44 249 56" />
    </g>
    <g style="text-rendering:geometricPrecision; font-size:11; font-family:sans-serif;" transform="translate(417,304)">
      <text x="2" y="11" style="clip-path:url(#clipPath18); stroke:none;" xml:space="preserve">setScaleFactor(scaleFactor * 100)</text>
    </g>
    <g style="text-rendering:geometricPrecision; font-size:11; font-family:sans-serif;" transform="translate(439,344)">
      <text x="4" y="11" style="clip-path:url(#clipPath19); stroke:none;" xml:space="preserve">setImageSize(imageSize)</text>
    </g>
    <g style="text-rendering:geometricPrecision; font-size:11; font-family:sans-serif;" transform="translate(320,235)">
      <text x="9" y="11" style="clip-path:url(#clipPath20); stroke:none;" xml:space="preserve">setDimension(imageWidth, imageHeight)</text>
    </g>
    <g style="text-rendering:geometricPrecision; font-size:11; font-family:sans-serif;" transform="translate(367,154)">
      <text x="3" y="11" style="clip-path:url(#clipPath21); stroke:none;" xml:space="preserve">scale(scaleFactor, false)</text>
    </g>
    <g style="text-rendering:geometricPrecision; font-size:11; font-family:sans-serif;" transform="translate(400,114)">
      <text x="6" y="11" style="clip-path:url(#clipPath22); stroke:none;" xml:space="preserve">reset(false)</text>
    </g>
    <g style="text-rendering:geometricPrecision; font-size:11; font-family:sans-serif;" transform="translate(280,195)">
      <text x="1" y="11" style="clip-path:url(#clipPath23); stroke:none;" xml:space="preserve">setImage(image, scaleFactor, false)</text>
    </g>
    <g style="text-rendering:geometricPrecision; font-size:11; font-family:sans-serif;" transform="translate(300,275)">
      <text x="5" y="11" style="clip-path:url(#clipPath24); stroke:none;" xml:space="preserve">repaintImagePanel()</text>
    </g>
    <g style="fill:rgb(120,120,120); text-rendering:geometricPrecision; font-size:10; stroke:rgb(120,120,120);">
      <text xml:space="preserve" x="0" y="10" style="stroke:none;">Visual Paradigm for UML Community Edition [not for commercial use] </text>
    </g>
  </g>
</svg>
