<?xml version="1.0" encoding="UTF-8"?>

<!DOCTYPE svg PUBLIC '-//W3C//DTD SVG 1.0//EN' 'http://www.w3.org/TR/2001/REC-SVG-20010904/DTD/svg10.dtd'>
<svg style="fill-opacity:1; color-rendering:auto; color-interpolation:auto; stroke:black; text-rendering:auto; stroke-linecap:square; stroke-miterlimit:10; stroke-opacity:1; shape-rendering:auto; fill:black; stroke-dasharray:none; font-weight:normal; stroke-width:1; font-family:&apos;Dialog&apos;; font-style:normal; stroke-linejoin:miter; font-size:12; stroke-dashoffset:0; image-rendering:auto;" xmlns="http://www.w3.org/2000/svg" width="1414" xmlns:xlink="http://www.w3.org/1999/xlink" height="409">
  <!--Generated by the Batik Graphics2D SVG Generator-->
  <defs id="genericDefs" />
  <g>
    <defs id="defs1">
      <clipPath clipPathUnits="userSpaceOnUse" id="clipPath1">
        <path d="M-3 -3 L127 -3 L127 367 L-3 367 L-3 -3 Z" />
      </clipPath>
      <clipPath clipPathUnits="userSpaceOnUse" id="clipPath2">
        <path d="M-3 -3 L97 -3 L97 367 L-3 367 L-3 -3 Z" />
      </clipPath>
      <clipPath clipPathUnits="userSpaceOnUse" id="clipPath3">
        <path d="M-3 -3 L87 -3 L87 367 L-3 367 L-3 -3 Z" />
      </clipPath>
      <clipPath clipPathUnits="userSpaceOnUse" id="clipPath4">
        <path d="M-3 -3 L137 -3 L137 367 L-3 367 L-3 -3 Z" />
      </clipPath>
      <clipPath clipPathUnits="userSpaceOnUse" id="clipPath5">
        <path d="M-3 -3 L167 -3 L167 367 L-3 367 L-3 -3 Z" />
      </clipPath>
      <clipPath clipPathUnits="userSpaceOnUse" id="clipPath6">
        <path d="M-3 -3 L67 -3 L67 367 L-3 367 L-3 -3 Z" />
      </clipPath>
      <clipPath clipPathUnits="userSpaceOnUse" id="clipPath7">
        <path d="M-3 -3 L15 -3 L15 103 L-3 103 L-3 -3 Z" />
      </clipPath>
      <clipPath clipPathUnits="userSpaceOnUse" id="clipPath8">
        <path d="M-3 -3 L15 -3 L15 19 L-3 19 L-3 -3 Z" />
      </clipPath>
      <clipPath clipPathUnits="userSpaceOnUse" id="clipPath9">
        <path d="M-3 -3 L15 -3 L15 71 L-3 71 L-3 -3 Z" />
      </clipPath>
      <clipPath clipPathUnits="userSpaceOnUse" id="clipPath10">
        <path d="M-3 -3 L15 -3 L15 127 L-3 127 L-3 -3 Z" />
      </clipPath>
      <clipPath clipPathUnits="userSpaceOnUse" id="clipPath11">
        <path d="M-86 -14 L172 -14 L172 28 L-86 28 L-86 -14 Z" />
      </clipPath>
      <clipPath clipPathUnits="userSpaceOnUse" id="clipPath12">
        <path d="M-50 -14 L100 -14 L100 28 L-50 28 L-50 -14 Z" />
      </clipPath>
      <clipPath clipPathUnits="userSpaceOnUse" id="clipPath13">
        <path d="M-160 -42 L320 -42 L320 84 L-160 84 L-160 -42 Z" />
      </clipPath>
      <clipPath clipPathUnits="userSpaceOnUse" id="clipPath14">
        <path d="M-130 -42 L260 -42 L260 84 L-130 84 L-130 -42 Z" />
      </clipPath>
      <clipPath clipPathUnits="userSpaceOnUse" id="clipPath15">
        <path d="M-90 -42 L180 -42 L180 84 L-90 84 L-90 -42 Z" />
      </clipPath>
      <clipPath clipPathUnits="userSpaceOnUse" id="clipPath16">
        <path d="M-80 -28 L160 -28 L160 56 L-80 56 L-80 -28 Z" />
      </clipPath>
      <clipPath clipPathUnits="userSpaceOnUse" id="clipPath17">
        <path d="M-90 -28 L180 -28 L180 56 L-90 56 L-90 -28 Z" />
      </clipPath>
      <clipPath clipPathUnits="userSpaceOnUse" id="clipPath18">
        <path d="M-110 -14 L220 -14 L220 28 L-110 28 L-110 -14 Z" />
      </clipPath>
      <clipPath clipPathUnits="userSpaceOnUse" id="clipPath19">
        <path d="M0 0 L216 0 L216 104 L0 104 L0 0 Z" />
      </clipPath>
      <clipPath clipPathUnits="userSpaceOnUse" id="clipPath20">
        <path d="M0 0 L311 0 L311 104 L0 104 L0 0 Z" />
      </clipPath>
      <clipPath clipPathUnits="userSpaceOnUse" id="clipPath21">
        <path d="M0 0 L521 0 L521 104 L0 104 L0 0 Z" />
      </clipPath>
      <clipPath clipPathUnits="userSpaceOnUse" id="clipPath22">
        <path d="M0 0 L341 0 L341 104 L0 104 L0 0 Z" />
      </clipPath>
      <clipPath clipPathUnits="userSpaceOnUse" id="clipPath23">
        <path d="M0 0 L476 0 L476 104 L0 104 L0 0 Z" />
      </clipPath>
      <clipPath clipPathUnits="userSpaceOnUse" id="clipPath24">
        <path d="M0 0 L831 0 L831 104 L0 104 L0 0 Z" />
      </clipPath>
      <clipPath clipPathUnits="userSpaceOnUse" id="clipPath25">
        <path d="M0 0 L636 0 L636 104 L0 104 L0 0 Z" />
      </clipPath>
      <clipPath clipPathUnits="userSpaceOnUse" id="clipPath26">
        <path d="M0 0 L135 0 L135 124 L0 124 L0 0 Z" />
      </clipPath>
      <clipPath clipPathUnits="userSpaceOnUse" id="clipPath27">
        <path d="M-113 -14 L226 -14 L226 28 L-113 28 L-113 -14 Z" />
      </clipPath>
      <clipPath clipPathUnits="userSpaceOnUse" id="clipPath28">
        <path d="M-88 -14 L176 -14 L176 28 L-88 28 L-88 -14 Z" />
      </clipPath>
    </defs>
    <g style="fill:white; text-rendering:geometricPrecision; stroke:white;">
      <rect x="0" y="0" width="1414" style="stroke:none;" height="409" />
      <rect x="0" y="38" transform="translate(0,-38)" width="1413" style="fill:none; stroke:black;" height="408" />
      <text x="7" y="54" transform="translate(0,-38)" style="fill:black; stroke:none; font-weight:bold;" xml:space="preserve">sd</text>
      <text x="31" y="54" transform="translate(0,-38)" style="fill:black; stroke:none;" xml:space="preserve">app init</text>
      <line transform="translate(0,-38)" x1="0" x2="78" y1="61" style="fill:none; stroke:black;" y2="61" />
      <line transform="translate(0,-38)" x1="84" x2="84" y1="38" style="fill:none; stroke:black;" y2="51" />
      <line transform="translate(0,-38)" x1="84" x2="78" y1="51" style="fill:none; stroke:black;" y2="61" />
    </g>
    <g transform="translate(100,35)" style="font-size:11; fill:rgb(122,207,245); text-rendering:geometricPrecision; font-family:sans-serif; stroke:rgb(122,207,245);">
      <circle style="clip-path:url(#clipPath1); stroke:none;" r="15.5" cx="59.5" cy="19.5" />
      <circle style="clip-path:url(#clipPath1); fill:none; stroke:black;" r="15.5" cx="59.5" cy="19.5" />
      <line x1="56" x2="64" y1="4" style="clip-path:url(#clipPath1); fill:none; stroke:black;" y2="0" />
      <line x1="56" x2="64" y1="4" style="clip-path:url(#clipPath1); fill:none; stroke:black;" y2="8" />
    </g>
    <g transform="translate(100,35)" style="font-size:11; stroke-linecap:butt; text-rendering:geometricPrecision; font-family:sans-serif; stroke-linejoin:bevel; stroke-dasharray:8,3; stroke-miterlimit:0;">
      <line x1="59" x2="59" y1="49" style="clip-path:url(#clipPath1); fill:none;" y2="360" />
    </g>
    <g transform="translate(540,35)" style="font-size:11; fill:rgb(122,207,245); text-rendering:geometricPrecision; font-family:sans-serif; stroke:rgb(122,207,245);">
      <rect x="0" y="0" width="89" style="clip-path:url(#clipPath2); stroke:none;" height="35" />
    </g>
    <g transform="translate(540,35)" style="font-size:11; stroke-linecap:butt; text-rendering:geometricPrecision; font-family:sans-serif; stroke-linejoin:round; stroke-miterlimit:0;">
      <rect x="0" y="0" width="89" style="clip-path:url(#clipPath2); fill:none;" height="35" />
      <line x1="44" x2="44" y1="35" style="clip-path:url(#clipPath2); fill:none; stroke-linejoin:bevel; stroke-dasharray:8,3;" y2="360" />
    </g>
    <g transform="translate(790,35)" style="font-size:11; fill:rgb(122,207,245); text-rendering:geometricPrecision; font-family:sans-serif; stroke:rgb(122,207,245);">
      <rect x="0" y="0" width="79" style="clip-path:url(#clipPath3); stroke:none;" height="35" />
    </g>
    <g transform="translate(790,35)" style="font-size:11; stroke-linecap:butt; text-rendering:geometricPrecision; font-family:sans-serif; stroke-linejoin:round; stroke-miterlimit:0;">
      <rect x="0" y="0" width="79" style="clip-path:url(#clipPath3); fill:none;" height="35" />
      <line x1="39" x2="39" y1="35" style="clip-path:url(#clipPath3); fill:none; stroke-linejoin:bevel; stroke-dasharray:8,3;" y2="360" />
    </g>
    <g transform="translate(920,35)" style="font-size:11; fill:rgb(122,207,245); text-rendering:geometricPrecision; font-family:sans-serif; stroke:rgb(122,207,245);">
      <rect x="0" y="0" width="89" style="clip-path:url(#clipPath2); stroke:none;" height="42" />
    </g>
    <g transform="translate(920,35)" style="font-size:11; stroke-linecap:butt; text-rendering:geometricPrecision; font-family:sans-serif; stroke-linejoin:round; stroke-miterlimit:0;">
      <rect x="0" y="0" width="89" style="clip-path:url(#clipPath2); fill:none;" height="42" />
      <line x1="44" x2="44" y1="35" style="clip-path:url(#clipPath2); fill:none; stroke-linejoin:bevel; stroke-dasharray:8,3;" y2="360" />
    </g>
    <g transform="translate(1060,35)" style="font-size:11; fill:rgb(122,207,245); text-rendering:geometricPrecision; font-family:sans-serif; stroke:rgb(122,207,245);">
      <rect x="0" y="0" width="129" style="clip-path:url(#clipPath4); stroke:none;" height="42" />
    </g>
    <g transform="translate(1060,35)" style="font-size:11; stroke-linecap:butt; text-rendering:geometricPrecision; font-family:sans-serif; stroke-linejoin:round; stroke-miterlimit:0;">
      <rect x="0" y="0" width="129" style="clip-path:url(#clipPath4); fill:none;" height="42" />
      <line x1="64" x2="64" y1="35" style="clip-path:url(#clipPath4); fill:none; stroke-linejoin:bevel; stroke-dasharray:8,3;" y2="360" />
    </g>
    <g transform="translate(1240,35)" style="font-size:11; fill:rgb(122,207,245); text-rendering:geometricPrecision; font-family:sans-serif; stroke:rgb(122,207,245);">
      <rect x="0" y="0" width="159" style="clip-path:url(#clipPath5); stroke:none;" height="42" />
    </g>
    <g transform="translate(1240,35)" style="font-size:11; stroke-linecap:butt; text-rendering:geometricPrecision; font-family:sans-serif; stroke-linejoin:round; stroke-miterlimit:0;">
      <rect x="0" y="0" width="159" style="clip-path:url(#clipPath5); fill:none;" height="42" />
      <line x1="79" x2="79" y1="35" style="clip-path:url(#clipPath5); fill:none; stroke-linejoin:bevel; stroke-dasharray:8,3;" y2="360" />
    </g>
    <g transform="translate(10,35)" style="font-size:11; fill:rgb(122,207,245); text-rendering:geometricPrecision; font-family:sans-serif; stroke:rgb(122,207,245);">
      <circle style="clip-path:url(#clipPath6); stroke:none;" r="5" cx="30" cy="5" />
      <rect x="26" y="49" width="8" style="clip-path:url(#clipPath6); stroke:none;" height="310" />
    </g>
    <g transform="translate(10,35)" style="font-size:11; stroke-linecap:butt; text-rendering:geometricPrecision; font-family:sans-serif; stroke-linejoin:round; stroke-miterlimit:0;">
      <circle style="fill:none; clip-path:url(#clipPath6);" r="5" cx="30" cy="5" />
      <rect x="26" y="49" width="8" style="clip-path:url(#clipPath6); fill:none;" height="310" />
      <line x1="30" x2="30" y1="10" style="clip-path:url(#clipPath6); fill:none;" y2="25" />
      <line x1="30" x2="21" y1="25" style="clip-path:url(#clipPath6); fill:none;" y2="36" />
      <line x1="30" x2="39" y1="25" style="clip-path:url(#clipPath6); fill:none;" y2="36" />
      <line x1="21" x2="39" y1="16" style="clip-path:url(#clipPath6); fill:none;" y2="16" />
    </g>
    <g transform="translate(330,35)" style="font-size:11; fill:rgb(122,207,245); text-rendering:geometricPrecision; font-family:sans-serif; stroke:rgb(122,207,245);">
      <circle style="clip-path:url(#clipPath2); stroke:none;" r="16.5" cx="44.5" cy="16.5" />
      <circle style="clip-path:url(#clipPath2); fill:none; stroke:black;" r="16.5" cx="44.5" cy="16.5" />
      <line x1="5" x2="84" y1="33" style="clip-path:url(#clipPath2); fill:none; stroke:black;" y2="33" />
    </g>
    <g transform="translate(330,35)" style="font-size:11; stroke-linecap:butt; text-rendering:geometricPrecision; font-family:sans-serif; stroke-linejoin:bevel; stroke-dasharray:8,3; stroke-miterlimit:0;">
      <line x1="44" x2="44" y1="49" style="clip-path:url(#clipPath2); fill:none;" y2="360" />
    </g>
    <g transform="translate(156,125)" style="font-size:11; fill:rgb(122,207,245); text-rendering:geometricPrecision; font-family:sans-serif; stroke:rgb(122,207,245);">
      <rect x="0" y="0" width="8" style="clip-path:url(#clipPath7); stroke:none;" height="96" />
    </g>
    <g transform="translate(156,125)" style="font-size:11; stroke-linecap:butt; text-rendering:geometricPrecision; font-family:sans-serif; stroke-linejoin:round; stroke-miterlimit:0;">
      <rect x="0" y="0" width="8" style="clip-path:url(#clipPath7); fill:none;" height="96" />
    </g>
    <g transform="translate(371,135)" style="font-size:11; fill:rgb(122,207,245); text-rendering:geometricPrecision; font-family:sans-serif; stroke:rgb(122,207,245);">
      <rect x="0" y="0" width="8" style="clip-path:url(#clipPath8); stroke:none;" height="12" />
    </g>
    <g transform="translate(371,135)" style="font-size:11; stroke-linecap:butt; text-rendering:geometricPrecision; font-family:sans-serif; stroke-linejoin:round; stroke-miterlimit:0;">
      <rect x="0" y="0" width="8" style="clip-path:url(#clipPath8); fill:none;" height="12" />
    </g>
    <g transform="translate(581,175)" style="font-size:11; fill:rgb(122,207,245); text-rendering:geometricPrecision; font-family:sans-serif; stroke:rgb(122,207,245);">
      <rect x="0" y="0" width="8" style="clip-path:url(#clipPath9); stroke:none;" height="64" />
    </g>
    <g transform="translate(581,175)" style="font-size:11; stroke-linecap:butt; text-rendering:geometricPrecision; font-family:sans-serif; stroke-linejoin:round; stroke-miterlimit:0;">
      <rect x="0" y="0" width="8" style="clip-path:url(#clipPath9); fill:none;" height="64" />
    </g>
    <g transform="translate(826,185)" style="font-size:11; fill:rgb(122,207,245); text-rendering:geometricPrecision; font-family:sans-serif; stroke:rgb(122,207,245);">
      <rect x="0" y="0" width="8" style="clip-path:url(#clipPath8); stroke:none;" height="12" />
    </g>
    <g transform="translate(826,185)" style="font-size:11; stroke-linecap:butt; text-rendering:geometricPrecision; font-family:sans-serif; stroke-linejoin:round; stroke-miterlimit:0;">
      <rect x="0" y="0" width="8" style="clip-path:url(#clipPath8); fill:none;" height="12" />
    </g>
    <g transform="translate(961,215)" style="font-size:11; fill:rgb(122,207,245); text-rendering:geometricPrecision; font-family:sans-serif; stroke:rgb(122,207,245);">
      <rect x="0" y="0" width="8" style="clip-path:url(#clipPath8); stroke:none;" height="12" />
    </g>
    <g transform="translate(961,215)" style="font-size:11; stroke-linecap:butt; text-rendering:geometricPrecision; font-family:sans-serif; stroke-linejoin:round; stroke-miterlimit:0;">
      <rect x="0" y="0" width="8" style="clip-path:url(#clipPath8); fill:none;" height="12" />
    </g>
    <g transform="translate(581,255)" style="font-size:11; fill:rgb(122,207,245); text-rendering:geometricPrecision; font-family:sans-serif; stroke:rgb(122,207,245);">
      <rect x="0" y="0" width="8" style="clip-path:url(#clipPath10); stroke:none;" height="120" />
    </g>
    <g transform="translate(581,255)" style="font-size:11; stroke-linecap:butt; text-rendering:geometricPrecision; font-family:sans-serif; stroke-linejoin:round; stroke-miterlimit:0;">
      <rect x="0" y="0" width="8" style="clip-path:url(#clipPath10); fill:none;" height="120" />
    </g>
    <g transform="translate(1316,255)" style="font-size:11; fill:rgb(122,207,245); text-rendering:geometricPrecision; font-family:sans-serif; stroke:rgb(122,207,245);">
      <rect x="0" y="0" width="8" style="clip-path:url(#clipPath8); stroke:none;" height="12" />
    </g>
    <g transform="translate(1316,255)" style="font-size:11; stroke-linecap:butt; text-rendering:geometricPrecision; font-family:sans-serif; stroke-linejoin:round; stroke-miterlimit:0;">
      <rect x="0" y="0" width="8" style="clip-path:url(#clipPath8); fill:none;" height="12" />
    </g>
    <g transform="translate(961,285)" style="font-size:11; fill:rgb(122,207,245); text-rendering:geometricPrecision; font-family:sans-serif; stroke:rgb(122,207,245);">
      <rect x="0" y="0" width="8" style="clip-path:url(#clipPath8); stroke:none;" height="12" />
    </g>
    <g transform="translate(961,285)" style="font-size:11; stroke-linecap:butt; text-rendering:geometricPrecision; font-family:sans-serif; stroke-linejoin:round; stroke-miterlimit:0;">
      <rect x="0" y="0" width="8" style="clip-path:url(#clipPath8); fill:none;" height="12" />
    </g>
    <g transform="translate(1121,315)" style="font-size:11; fill:rgb(122,207,245); text-rendering:geometricPrecision; font-family:sans-serif; stroke:rgb(122,207,245);">
      <rect x="0" y="0" width="8" style="clip-path:url(#clipPath8); stroke:none;" height="12" />
    </g>
    <g transform="translate(1121,315)" style="font-size:11; stroke-linecap:butt; text-rendering:geometricPrecision; font-family:sans-serif; stroke-linejoin:round; stroke-miterlimit:0;">
      <rect x="0" y="0" width="8" style="clip-path:url(#clipPath8); fill:none;" height="12" />
    </g>
    <g style="text-rendering:geometricPrecision; font-size:11; font-family:sans-serif;" transform="translate(332,70)">
      <text x="5" y="11" style="clip-path:url(#clipPath11); stroke:none;" xml:space="preserve">ImageParams</text>
    </g>
    <g style="text-rendering:geometricPrecision; font-size:11; font-family:sans-serif;" transform="translate(15,70)">
      <text x="10" y="11" style="clip-path:url(#clipPath12); stroke:none;" xml:space="preserve">Actor</text>
    </g>
    <g style="text-rendering:geometricPrecision; font-size:11; font-family:sans-serif;" transform="translate(1240,35)">
      <text x="4" y="11" style="clip-path:url(#clipPath13); stroke:none;" xml:space="preserve">BackgroundPropertiesPane</text>
      <text x="78" y="25" style="clip-path:url(#clipPath13); stroke:none;" xml:space="preserve">l</text>
      <text x="55" y="39" style="clip-path:url(#clipPath13); stroke:none;" xml:space="preserve">&lt;&lt;UI&gt;&gt;</text>
    </g>
    <g style="text-rendering:geometricPrecision; font-size:11; font-family:sans-serif;" transform="translate(1060,35)">
      <text x="6" y="11" style="clip-path:url(#clipPath14); stroke:none;" xml:space="preserve">ImagePropertiesPane</text>
      <text x="63" y="25" style="clip-path:url(#clipPath14); stroke:none;" xml:space="preserve">l</text>
      <text x="40" y="39" style="clip-path:url(#clipPath14); stroke:none;" xml:space="preserve">&lt;&lt;UI&gt;&gt;</text>
    </g>
    <g style="text-rendering:geometricPrecision; font-size:11; font-family:sans-serif;" transform="translate(920,35)">
      <text x="6" y="11" style="clip-path:url(#clipPath15); stroke:none;" xml:space="preserve">SelectionPane</text>
      <text x="43" y="25" style="clip-path:url(#clipPath15); stroke:none;" xml:space="preserve">l</text>
      <text x="20" y="39" style="clip-path:url(#clipPath15); stroke:none;" xml:space="preserve">&lt;&lt;UI&gt;&gt;</text>
    </g>
    <g style="text-rendering:geometricPrecision; font-size:11; font-family:sans-serif;" transform="translate(790,35)">
      <text x="7" y="11" style="clip-path:url(#clipPath16); stroke:none;" xml:space="preserve">ImagePanel</text>
      <text x="15" y="25" style="clip-path:url(#clipPath16); stroke:none;" xml:space="preserve">&lt;&lt;UI&gt;&gt;</text>
    </g>
    <g style="text-rendering:geometricPrecision; font-size:11; font-family:sans-serif;" transform="translate(540,35)">
      <text x="4" y="11" style="clip-path:url(#clipPath17); stroke:none;" xml:space="preserve">ImageCropGUI</text>
      <text x="21" y="25" style="clip-path:url(#clipPath17); stroke:none;" xml:space="preserve">&lt;&lt;UI&gt;&gt;</text>
    </g>
    <g style="text-rendering:geometricPrecision; font-size:11; font-family:sans-serif;" transform="translate(105,70)">
      <text x="4" y="11" style="clip-path:url(#clipPath18); stroke:none;" xml:space="preserve">ImageCropControl</text>
    </g>
    <g transform="translate(-6,75)" style="font-size:11; stroke-linecap:butt; text-rendering:geometricPrecision; font-family:sans-serif; stroke-linejoin:round;">
      <line x1="50" x2="162" y1="50" style="clip-path:url(#clipPath19); fill:none;" y2="50" />
      <polygon style="clip-path:url(#clipPath19); stroke:none;" points=" 162 50 150 44 150 56" />
      <polygon style="fill:none; clip-path:url(#clipPath19);" points=" 162 50 150 44 150 56" />
    </g>
    <g transform="translate(114,85)" style="font-size:11; stroke-linecap:butt; text-rendering:geometricPrecision; font-family:sans-serif; stroke-linejoin:round;">
      <line x1="50" x2="257" y1="50" style="clip-path:url(#clipPath20); fill:none;" y2="50" />
      <polygon style="clip-path:url(#clipPath20); stroke:none;" points=" 257 50 245 44 245 56" />
      <polygon style="fill:none; clip-path:url(#clipPath20);" points=" 257 50 245 44 245 56" />
    </g>
    <g transform="translate(114,125)" style="font-size:11; stroke-linecap:butt; text-rendering:geometricPrecision; font-family:sans-serif; stroke-linejoin:round;">
      <line x1="50" x2="467" y1="50" style="clip-path:url(#clipPath21); fill:none;" y2="50" />
      <polygon style="clip-path:url(#clipPath21); stroke:none;" points=" 467 50 455 44 455 56" />
      <polygon style="fill:none; clip-path:url(#clipPath21);" points=" 467 50 455 44 455 56" />
    </g>
    <g transform="translate(539,135)" style="font-size:11; stroke-linecap:butt; text-rendering:geometricPrecision; font-family:sans-serif; stroke-linejoin:round;">
      <line x1="50" x2="287" y1="50" style="clip-path:url(#clipPath22); fill:none;" y2="50" />
      <polygon style="clip-path:url(#clipPath22); stroke:none;" points=" 287 50 275 44 275 56" />
      <polygon style="fill:none; clip-path:url(#clipPath22);" points=" 287 50 275 44 275 56" />
    </g>
    <g transform="translate(539,165)" style="font-size:11; stroke-linecap:butt; text-rendering:geometricPrecision; font-family:sans-serif; stroke-linejoin:round;">
      <line x1="50" x2="422" y1="50" style="clip-path:url(#clipPath23); fill:none;" y2="50" />
      <polygon style="clip-path:url(#clipPath23); stroke:none;" points=" 422 50 410 44 410 56" />
      <polygon style="fill:none; clip-path:url(#clipPath23);" points=" 422 50 410 44 410 56" />
    </g>
    <g transform="translate(539,205)" style="font-size:11; stroke-linecap:butt; text-rendering:geometricPrecision; font-family:sans-serif; stroke-linejoin:round;">
      <line x1="50" x2="777" y1="50" style="clip-path:url(#clipPath24); fill:none;" y2="50" />
      <polygon style="clip-path:url(#clipPath24); stroke:none;" points=" 777 50 765 44 765 56" />
      <polygon style="fill:none; clip-path:url(#clipPath24);" points=" 777 50 765 44 765 56" />
    </g>
    <g transform="translate(539,235)" style="font-size:11; stroke-linecap:butt; text-rendering:geometricPrecision; font-family:sans-serif; stroke-linejoin:round;">
      <line x1="50" x2="422" y1="50" style="clip-path:url(#clipPath23); fill:none;" y2="50" />
      <polygon style="clip-path:url(#clipPath23); stroke:none;" points=" 422 50 410 44 410 56" />
      <polygon style="fill:none; clip-path:url(#clipPath23);" points=" 422 50 410 44 410 56" />
    </g>
    <g transform="translate(539,265)" style="font-size:11; stroke-linecap:butt; text-rendering:geometricPrecision; font-family:sans-serif; stroke-linejoin:round;">
      <line x1="50" x2="582" y1="50" style="clip-path:url(#clipPath25); fill:none;" y2="50" />
      <polygon style="clip-path:url(#clipPath25); stroke:none;" points=" 582 50 570 44 570 56" />
      <polygon style="fill:none; clip-path:url(#clipPath25);" points=" 582 50 570 44 570 56" />
    </g>
    <g transform="translate(539,285)" style="font-size:11; stroke-linecap:butt; text-rendering:geometricPrecision; font-family:sans-serif; stroke-linejoin:round;">
      <line x1="50" x2="81" y1="50" style="clip-path:url(#clipPath26); fill:none;" y2="50" />
      <line x1="81" x2="81" y1="50" style="clip-path:url(#clipPath26); fill:none;" y2="70" />
      <line x1="81" x2="50" y1="70" style="clip-path:url(#clipPath26); fill:none;" y2="70" />
      <polygon style="clip-path:url(#clipPath26); stroke:none;" points=" 50 70 62 76 62 64" />
      <polygon style="fill:none; clip-path:url(#clipPath26);" points=" 50 70 62 76 62 64" />
    </g>
    <g style="text-rendering:geometricPrecision; font-size:11; font-family:sans-serif;" transform="translate(630,335)">
      <text x="5" y="11" style="clip-path:url(#clipPath27); stroke:none;" xml:space="preserve">setState(StateInit)</text>
    </g>
    <g style="text-rendering:geometricPrecision; font-size:11; font-family:sans-serif;" transform="translate(806,296)">
      <text x="8" y="11" style="clip-path:url(#clipPath28); stroke:none;" xml:space="preserve">&lt;&lt;create&gt;&gt;</text>
    </g>
    <g style="text-rendering:geometricPrecision; font-size:11; font-family:sans-serif;" transform="translate(726,266)">
      <text x="8" y="11" style="clip-path:url(#clipPath28); stroke:none;" xml:space="preserve">&lt;&lt;create&gt;&gt;</text>
    </g>
    <g style="text-rendering:geometricPrecision; font-size:11; font-family:sans-serif;" transform="translate(906,236)">
      <text x="8" y="11" style="clip-path:url(#clipPath28); stroke:none;" xml:space="preserve">&lt;&lt;create&gt;&gt;</text>
    </g>
    <g style="text-rendering:geometricPrecision; font-size:11; font-family:sans-serif;" transform="translate(726,196)">
      <text x="8" y="11" style="clip-path:url(#clipPath28); stroke:none;" xml:space="preserve">&lt;&lt;create&gt;&gt;</text>
    </g>
    <g style="text-rendering:geometricPrecision; font-size:11; font-family:sans-serif;" transform="translate(663,166)">
      <text x="8" y="11" style="clip-path:url(#clipPath28); stroke:none;" xml:space="preserve">&lt;&lt;create&gt;&gt;</text>
    </g>
    <g style="text-rendering:geometricPrecision; font-size:11; font-family:sans-serif;" transform="translate(328,156)">
      <text x="8" y="11" style="clip-path:url(#clipPath28); stroke:none;" xml:space="preserve">&lt;&lt;create&gt;&gt;</text>
    </g>
    <g style="text-rendering:geometricPrecision; font-size:11; font-family:sans-serif;" transform="translate(218,116)">
      <text x="8" y="11" style="clip-path:url(#clipPath28); stroke:none;" xml:space="preserve">&lt;&lt;create&gt;&gt;</text>
    </g>
    <g style="text-rendering:geometricPrecision; font-size:11; font-family:sans-serif;" transform="translate(53,106)">
      <text x="8" y="11" style="clip-path:url(#clipPath28); stroke:none;" xml:space="preserve">&lt;&lt;create&gt;&gt;</text>
    </g>
    <g style="fill:rgb(120,120,120); text-rendering:geometricPrecision; font-size:10; stroke:rgb(120,120,120);">
      <text xml:space="preserve" x="0" y="10" style="stroke:none;">Visual Paradigm for UML Community Edition [not for commercial use] </text>
    </g>
  </g>
</svg>
