<?xml version="1.0" encoding="UTF-8"?>

<!DOCTYPE svg PUBLIC '-//W3C//DTD SVG 1.0//EN' 'http://www.w3.org/TR/2001/REC-SVG-20010904/DTD/svg10.dtd'>
<svg style="fill-opacity:1; color-rendering:auto; color-interpolation:auto; stroke:black; text-rendering:auto; stroke-linecap:square; stroke-miterlimit:10; stroke-opacity:1; shape-rendering:auto; fill:black; stroke-dasharray:none; font-weight:normal; stroke-width:1; font-family:&apos;Dialog&apos;; font-style:normal; stroke-linejoin:miter; font-size:12; stroke-dashoffset:0; image-rendering:auto;" xmlns="http://www.w3.org/2000/svg" width="403" xmlns:xlink="http://www.w3.org/1999/xlink" height="649">
  <!--Generated by the Batik Graphics2D SVG Generator-->
  <defs id="genericDefs" />
  <g>
    <defs id="defs1">
      <clipPath clipPathUnits="userSpaceOnUse" id="clipPath1">
        <path d="M-3 -3 L37 -3 L37 67 L-3 67 L-3 -3 Z" />
      </clipPath>
      <clipPath clipPathUnits="userSpaceOnUse" id="clipPath2">
        <path d="M-3 -3 L87 -3 L87 47 L-3 47 L-3 -3 Z" />
      </clipPath>
      <clipPath clipPathUnits="userSpaceOnUse" id="clipPath3">
        <path d="M-3 -3 L137 -3 L137 67 L-3 67 L-3 -3 Z" />
      </clipPath>
      <clipPath clipPathUnits="userSpaceOnUse" id="clipPath4">
        <path d="M-3 -3 L147 -3 L147 47 L-3 47 L-3 -3 Z" />
      </clipPath>
      <clipPath clipPathUnits="userSpaceOnUse" id="clipPath5">
        <path d="M-3 -3 L107 -3 L107 47 L-3 47 L-3 -3 Z" />
      </clipPath>
      <clipPath clipPathUnits="userSpaceOnUse" id="clipPath6">
        <path d="M-3 -3 L97 -3 L97 47 L-3 47 L-3 -3 Z" />
      </clipPath>
      <clipPath clipPathUnits="userSpaceOnUse" id="clipPath7">
        <path d="M-80 -40 L160 -40 L160 80 L-80 80 L-80 -40 Z" />
      </clipPath>
      <clipPath clipPathUnits="userSpaceOnUse" id="clipPath8">
        <path d="M-90 -40 L180 -40 L180 80 L-90 80 L-90 -40 Z" />
      </clipPath>
      <clipPath clipPathUnits="userSpaceOnUse" id="clipPath9">
        <path d="M-100 -40 L200 -40 L200 80 L-100 80 L-100 -40 Z" />
      </clipPath>
      <clipPath clipPathUnits="userSpaceOnUse" id="clipPath10">
        <path d="M-140 -40 L280 -40 L280 80 L-140 80 L-140 -40 Z" />
      </clipPath>
      <clipPath clipPathUnits="userSpaceOnUse" id="clipPath11">
        <path d="M-130 -60 L260 -60 L260 120 L-130 120 L-130 -60 Z" />
      </clipPath>
      <clipPath clipPathUnits="userSpaceOnUse" id="clipPath12">
        <path d="M-44 -14 L88 -14 L88 28 L-44 28 L-44 -14 Z" />
      </clipPath>
      <clipPath clipPathUnits="userSpaceOnUse" id="clipPath13">
        <path d="M0 0 L310 0 L310 382 L0 382 L0 0 Z" />
      </clipPath>
      <clipPath clipPathUnits="userSpaceOnUse" id="clipPath14">
        <path d="M0 0 L313 0 L313 324 L0 324 L0 0 Z" />
      </clipPath>
      <clipPath clipPathUnits="userSpaceOnUse" id="clipPath15">
        <path d="M0 0 L318 0 L318 244 L0 244 L0 0 Z" />
      </clipPath>
      <clipPath clipPathUnits="userSpaceOnUse" id="clipPath16">
        <path d="M0 0 L318 0 L318 181 L0 181 L0 0 Z" />
      </clipPath>
      <clipPath clipPathUnits="userSpaceOnUse" id="clipPath17">
        <path d="M0 0 L323 0 L323 117 L0 117 L0 0 Z" />
      </clipPath>
      <clipPath clipPathUnits="userSpaceOnUse" id="clipPath18">
        <path d="M0 0 L304 0 L304 104 L0 104 L0 0 Z" />
      </clipPath>
      <clipPath clipPathUnits="userSpaceOnUse" id="clipPath19">
        <path d="M0 0 L315 0 L315 104 L0 104 L0 0 Z" />
      </clipPath>
      <clipPath clipPathUnits="userSpaceOnUse" id="clipPath20">
        <path d="M0 0 L309 0 L309 166 L0 166 L0 0 Z" />
      </clipPath>
      <clipPath clipPathUnits="userSpaceOnUse" id="clipPath21">
        <path d="M0 0 L304 0 L304 227 L0 227 L0 0 Z" />
      </clipPath>
      <clipPath clipPathUnits="userSpaceOnUse" id="clipPath22">
        <path d="M0 0 L313 0 L313 288 L0 288 L0 0 Z" />
      </clipPath>
    </defs>
    <g style="fill:white; text-rendering:geometricPrecision; stroke:white;">
      <rect x="0" y="0" width="403" style="stroke:none;" height="649" />
      <rect x="101" y="18" transform="translate(-101,-18)" width="402" style="fill:none; stroke:black;" height="648" />
      <text x="108" y="34" transform="translate(-101,-18)" style="fill:black; stroke:none;" xml:space="preserve">image crop</text>
      <line transform="translate(-101,-18)" x1="101" x2="178" y1="41" style="fill:none; stroke:black;" y2="41" />
      <line transform="translate(-101,-18)" x1="184" x2="184" y1="18" style="fill:none; stroke:black;" y2="31" />
      <line transform="translate(-101,-18)" x1="184" x2="178" y1="31" style="fill:none; stroke:black;" y2="41" />
    </g>
    <g transform="translate(19,345)" style="font-size:11; fill:rgb(122,207,245); text-rendering:geometricPrecision; font-family:sans-serif; stroke:rgb(122,207,245);">
      <circle style="clip-path:url(#clipPath1); stroke:none;" r="7.5" cx="14.5" cy="7.5" />
    </g>
    <g transform="translate(19,345)" style="font-size:11; stroke-linecap:butt; text-rendering:geometricPrecision; font-family:sans-serif; stroke-linejoin:round; stroke-miterlimit:0;">
      <circle style="fill:none; clip-path:url(#clipPath1);" r="7.5" cx="14.5" cy="7.5" />
      <line x1="15" x2="15" y1="15" style="clip-path:url(#clipPath1); fill:none;" y2="40" />
      <line x1="0" x2="30" y1="24" style="clip-path:url(#clipPath1); fill:none;" y2="24" />
      <line x1="15" x2="0" y1="40" style="clip-path:url(#clipPath1); fill:none;" y2="60" />
      <line x1="15" x2="30" y1="40" style="clip-path:url(#clipPath1); fill:none;" y2="60" />
    </g>
    <g transform="translate(249,35)" style="font-size:11; fill:rgb(122,207,245); text-rendering:geometricPrecision; font-family:sans-serif; stroke:rgb(122,207,245);">
      <ellipse style="clip-path:url(#clipPath2); stroke:none;" rx="40" cx="40" ry="20" cy="20" />
    </g>
    <g transform="translate(249,35)" style="font-size:11; stroke-linecap:butt; text-rendering:geometricPrecision; font-family:sans-serif; stroke-linejoin:round; stroke-miterlimit:0;">
      <ellipse style="clip-path:url(#clipPath2); fill:none;" rx="40" cx="40" ry="20" cy="20" />
    </g>
    <g transform="translate(249,155)" style="font-size:11; fill:rgb(122,207,245); text-rendering:geometricPrecision; font-family:sans-serif; stroke:rgb(122,207,245);">
      <ellipse style="clip-path:url(#clipPath3); stroke:none;" rx="65" cx="65" ry="30" cy="30" />
    </g>
    <g transform="translate(249,155)" style="font-size:11; stroke-linecap:butt; text-rendering:geometricPrecision; font-family:sans-serif; stroke-linejoin:round; stroke-miterlimit:0;">
      <ellipse style="clip-path:url(#clipPath3); fill:none;" rx="65" cx="65" ry="30" cy="30" />
    </g>
    <g transform="translate(249,95)" style="font-size:11; fill:rgb(122,207,245); text-rendering:geometricPrecision; font-family:sans-serif; stroke:rgb(122,207,245);">
      <ellipse style="clip-path:url(#clipPath4); stroke:none;" rx="70" cx="70" ry="20" cy="20" />
    </g>
    <g transform="translate(249,95)" style="font-size:11; stroke-linecap:butt; text-rendering:geometricPrecision; font-family:sans-serif; stroke-linejoin:round; stroke-miterlimit:0;">
      <ellipse style="clip-path:url(#clipPath4); fill:none;" rx="70" cx="70" ry="20" cy="20" />
    </g>
    <g transform="translate(249,235)" style="font-size:11; fill:rgb(122,207,245); text-rendering:geometricPrecision; font-family:sans-serif; stroke:rgb(122,207,245);">
      <ellipse style="clip-path:url(#clipPath5); stroke:none;" rx="50" cx="50" ry="20" cy="20" />
    </g>
    <g transform="translate(249,235)" style="font-size:11; stroke-linecap:butt; text-rendering:geometricPrecision; font-family:sans-serif; stroke-linejoin:round; stroke-miterlimit:0;">
      <ellipse style="clip-path:url(#clipPath5); fill:none;" rx="50" cx="50" ry="20" cy="20" />
    </g>
    <g transform="translate(249,355)" style="font-size:11; fill:rgb(122,207,245); text-rendering:geometricPrecision; font-family:sans-serif; stroke:rgb(122,207,245);">
      <ellipse style="clip-path:url(#clipPath5); stroke:none;" rx="50" cx="50" ry="20" cy="20" />
    </g>
    <g transform="translate(249,355)" style="font-size:11; stroke-linecap:butt; text-rendering:geometricPrecision; font-family:sans-serif; stroke-linejoin:round; stroke-miterlimit:0;">
      <ellipse style="clip-path:url(#clipPath5); fill:none;" rx="50" cx="50" ry="20" cy="20" />
    </g>
    <g transform="translate(249,295)" style="font-size:11; fill:rgb(122,207,245); text-rendering:geometricPrecision; font-family:sans-serif; stroke:rgb(122,207,245);">
      <ellipse style="clip-path:url(#clipPath2); stroke:none;" rx="40" cx="40" ry="20" cy="20" />
    </g>
    <g transform="translate(249,295)" style="font-size:11; stroke-linecap:butt; text-rendering:geometricPrecision; font-family:sans-serif; stroke-linejoin:round; stroke-miterlimit:0;">
      <ellipse style="clip-path:url(#clipPath2); fill:none;" rx="40" cx="40" ry="20" cy="20" />
    </g>
    <g transform="translate(249,415)" style="font-size:11; fill:rgb(122,207,245); text-rendering:geometricPrecision; font-family:sans-serif; stroke:rgb(122,207,245);">
      <ellipse style="clip-path:url(#clipPath6); stroke:none;" rx="45" cx="45" ry="20" cy="20" />
    </g>
    <g transform="translate(249,415)" style="font-size:11; stroke-linecap:butt; text-rendering:geometricPrecision; font-family:sans-serif; stroke-linejoin:round; stroke-miterlimit:0;">
      <ellipse style="clip-path:url(#clipPath6); fill:none;" rx="45" cx="45" ry="20" cy="20" />
    </g>
    <g transform="translate(249,475)" style="font-size:11; fill:rgb(122,207,245); text-rendering:geometricPrecision; font-family:sans-serif; stroke:rgb(122,207,245);">
      <ellipse style="clip-path:url(#clipPath6); stroke:none;" rx="45" cx="45" ry="20" cy="20" />
    </g>
    <g transform="translate(249,475)" style="font-size:11; stroke-linecap:butt; text-rendering:geometricPrecision; font-family:sans-serif; stroke-linejoin:round; stroke-miterlimit:0;">
      <ellipse style="clip-path:url(#clipPath6); fill:none;" rx="45" cx="45" ry="20" cy="20" />
    </g>
    <g transform="translate(249,535)" style="font-size:11; fill:rgb(122,207,245); text-rendering:geometricPrecision; font-family:sans-serif; stroke:rgb(122,207,245);">
      <ellipse style="clip-path:url(#clipPath6); stroke:none;" rx="45" cx="45" ry="20" cy="20" />
    </g>
    <g transform="translate(249,535)" style="font-size:11; stroke-linecap:butt; text-rendering:geometricPrecision; font-family:sans-serif; stroke-linejoin:round; stroke-miterlimit:0;">
      <ellipse style="clip-path:url(#clipPath6); fill:none;" rx="45" cx="45" ry="20" cy="20" />
    </g>
    <g transform="translate(259,595)" style="font-size:11; fill:rgb(122,207,245); text-rendering:geometricPrecision; font-family:sans-serif; stroke:rgb(122,207,245);">
      <ellipse style="clip-path:url(#clipPath2); stroke:none;" rx="40" cx="40" ry="20" cy="20" />
    </g>
    <g transform="translate(259,595)" style="font-size:11; stroke-linecap:butt; text-rendering:geometricPrecision; font-family:sans-serif; stroke-linejoin:round; stroke-miterlimit:0;">
      <ellipse style="clip-path:url(#clipPath2); fill:none;" rx="40" cx="40" ry="20" cy="20" />
    </g>
    <g style="text-rendering:geometricPrecision; font-size:11; font-family:sans-serif;" transform="translate(259,595)">
      <text x="8" y="24" style="clip-path:url(#clipPath7); stroke:none;" xml:space="preserve">save image</text>
    </g>
    <g style="text-rendering:geometricPrecision; font-size:11; font-family:sans-serif;" transform="translate(249,535)">
      <text x="6" y="24" style="clip-path:url(#clipPath8); stroke:none;" xml:space="preserve">discard image</text>
    </g>
    <g style="text-rendering:geometricPrecision; font-size:11; font-family:sans-serif;" transform="translate(249,475)">
      <text x="8" y="24" style="clip-path:url(#clipPath8); stroke:none;" xml:space="preserve">rotate image</text>
    </g>
    <g style="text-rendering:geometricPrecision; font-size:11; font-family:sans-serif;" transform="translate(249,415)">
      <text x="5" y="24" style="clip-path:url(#clipPath8); stroke:none;" xml:space="preserve">crop selection</text>
    </g>
    <g style="text-rendering:geometricPrecision; font-size:11; font-family:sans-serif;" transform="translate(249,295)">
      <text x="9" y="24" style="clip-path:url(#clipPath7); stroke:none;" xml:space="preserve">auto select</text>
    </g>
    <g style="text-rendering:geometricPrecision; font-size:11; font-family:sans-serif;" transform="translate(249,355)">
      <text x="6" y="24" style="clip-path:url(#clipPath9); stroke:none;" xml:space="preserve">adjust selection</text>
    </g>
    <g style="text-rendering:geometricPrecision; font-size:11; font-family:sans-serif;" transform="translate(249,235)">
      <text x="5" y="24" style="clip-path:url(#clipPath9); stroke:none;" xml:space="preserve">create selection</text>
    </g>
    <g style="text-rendering:geometricPrecision; font-size:11; font-family:sans-serif;" transform="translate(249,95)">
      <text x="9" y="24" style="clip-path:url(#clipPath10); stroke:none;" xml:space="preserve">pick background color</text>
    </g>
    <g style="text-rendering:geometricPrecision; font-size:11; font-family:sans-serif;" transform="translate(249,155)">
      <text x="9" y="27" style="clip-path:url(#clipPath11); stroke:none;" xml:space="preserve">change background</text>
      <text x="36" y="41" style="clip-path:url(#clipPath11); stroke:none;" xml:space="preserve">properties</text>
    </g>
    <g style="text-rendering:geometricPrecision; font-size:11; font-family:sans-serif;" transform="translate(249,35)">
      <text x="18" y="24" style="clip-path:url(#clipPath7); stroke:none;" xml:space="preserve">load file</text>
    </g>
    <g style="text-rendering:geometricPrecision; font-size:11; font-family:sans-serif;" transform="translate(12,405)">
      <text x="9" y="11" style="clip-path:url(#clipPath12); stroke:none;" xml:space="preserve">user</text>
    </g>
    <g transform="translate(-1,17)" style="font-size:11; stroke-linecap:butt; text-rendering:geometricPrecision; font-family:sans-serif; stroke-linejoin:round;">
      <line x1="50" x2="256" y1="328" style="clip-path:url(#clipPath13); fill:none;" y2="50" />
    </g>
    <g transform="translate(-1,75)" style="font-size:11; stroke-linecap:butt; text-rendering:geometricPrecision; font-family:sans-serif; stroke-linejoin:round;">
      <line x1="50" x2="259" y1="270" style="clip-path:url(#clipPath14); fill:none;" y2="50" />
    </g>
    <g transform="translate(-1,155)" style="font-size:11; stroke-linecap:butt; text-rendering:geometricPrecision; font-family:sans-serif; stroke-linejoin:round;">
      <line x1="50" x2="264" y1="190" style="clip-path:url(#clipPath15); fill:none;" y2="50" />
    </g>
    <g transform="translate(-1,219)" style="font-size:11; stroke-linecap:butt; text-rendering:geometricPrecision; font-family:sans-serif; stroke-linejoin:round;">
      <line x1="50" x2="264" y1="127" style="clip-path:url(#clipPath16); fill:none;" y2="50" />
    </g>
    <g transform="translate(-1,283)" style="font-size:11; stroke-linecap:butt; text-rendering:geometricPrecision; font-family:sans-serif; stroke-linejoin:round;">
      <line x1="50" x2="269" y1="63" style="clip-path:url(#clipPath17); fill:none;" y2="50" />
    </g>
    <g transform="translate(-1,305)" style="font-size:11; stroke-linecap:butt; text-rendering:geometricPrecision; font-family:sans-serif; stroke-linejoin:round;">
      <line x1="50" x2="250" y1="50" style="clip-path:url(#clipPath18); fill:none;" y2="50" />
    </g>
    <g transform="translate(9,368)" style="font-size:11; stroke-linecap:butt; text-rendering:geometricPrecision; font-family:sans-serif; stroke-linejoin:round;">
      <line x1="50" x2="261" y1="50" style="clip-path:url(#clipPath19); fill:none;" y2="50" />
    </g>
    <g transform="translate(9,368)" style="font-size:11; stroke-linecap:butt; text-rendering:geometricPrecision; font-family:sans-serif; stroke-linejoin:round;">
      <line x1="50" x2="255" y1="50" style="clip-path:url(#clipPath20); fill:none;" y2="112" />
    </g>
    <g transform="translate(9,369)" style="font-size:11; stroke-linecap:butt; text-rendering:geometricPrecision; font-family:sans-serif; stroke-linejoin:round;">
      <line x1="50" x2="250" y1="50" style="clip-path:url(#clipPath21); fill:none;" y2="173" />
    </g>
    <g transform="translate(9,369)" style="font-size:11; stroke-linecap:butt; text-rendering:geometricPrecision; font-family:sans-serif; stroke-linejoin:round;">
      <line x1="50" x2="259" y1="50" style="clip-path:url(#clipPath22); fill:none;" y2="234" />
    </g>
    <g style="fill:rgb(120,120,120); text-rendering:geometricPrecision; font-size:10; stroke:rgb(120,120,120);">
      <text xml:space="preserve" x="0" y="10" style="stroke:none;">Visual Paradigm for UML Community Edition [not for commercial use] </text>
    </g>
  </g>
</svg>
